<svg width="22" height="21" viewBox="0 0 22 21" fill="none" xmlns="http://www.w3.org/2000/svg">
<path d="M3.14281 4.4423C3.14281 3.26413 3.5981 2.13421 4.40851 1.30112C5.21892 0.468027 6.31808 0 7.46417 0C8.61027 0 9.70943 0.468027 10.5198 1.30112C11.3303 2.13421 11.7855 3.26413 11.7855 4.4423C11.7855 5.62048 11.3303 6.75039 10.5198 7.58349C9.70943 8.41658 8.61027 8.88461 7.46417 8.88461C6.31808 8.88461 5.21892 8.41658 4.40851 7.58349C3.5981 6.75039 3.14281 5.62048 3.14281 4.4423ZM13.3569 6.86538C13.3569 6.38807 13.4484 5.91544 13.6261 5.47447C13.8038 5.0335 14.0642 4.63282 14.3925 4.29532C14.7208 3.95781 15.1106 3.69009 15.5396 3.50743C15.9685 3.32478 16.4283 3.23077 16.8926 3.23077C17.3569 3.23077 17.8167 3.32478 18.2456 3.50743C18.6746 3.69009 19.0644 3.95781 19.3927 4.29532C19.721 4.63282 19.9814 5.0335 20.1591 5.47447C20.3368 5.91544 20.4283 6.38807 20.4283 6.86538C20.4283 7.82934 20.0558 8.75382 19.3927 9.43544C18.7296 10.1171 17.8303 10.5 16.8926 10.5C15.9549 10.5 15.0556 10.1171 14.3925 9.43544C13.7295 8.75382 13.3569 7.82934 13.3569 6.86538ZM0 18.1731C2.94987e-08 16.138 0.786402 14.1864 2.18621 12.7474C3.58601 11.3084 5.48455 10.5 7.46417 10.5C9.4438 10.5 11.3423 11.3084 12.7421 12.7474C14.1419 14.1864 14.9283 16.138 14.9283 18.1731V18.1763L14.9273 18.3044C14.9251 18.4414 14.889 18.5755 14.8225 18.6942C14.756 18.8129 14.6612 18.9122 14.547 18.9829C12.4091 20.3064 9.95985 21.0039 7.46417 21C4.8745 21 2.45034 20.2634 0.382375 18.9829C0.268031 18.9124 0.173029 18.8131 0.106318 18.6944C0.039606 18.5757 0.00337888 18.4415 0.00104765 18.3044L0 18.1731ZM16.4998 18.1763L16.4987 18.3314C16.4928 18.6903 16.4095 19.0434 16.2546 19.3652C18.0834 19.4812 19.9101 19.1063 21.5555 18.2775C21.6827 18.2136 21.7908 18.1155 21.8683 17.9936C21.9457 17.8717 21.9897 17.7305 21.9955 17.5851C22.0325 16.6818 21.8419 15.784 21.4423 14.9786C21.0426 14.1733 20.4474 13.4877 19.7144 12.9882C18.9813 12.4888 18.1352 12.1924 17.258 12.1277C16.3808 12.0631 15.5022 12.2325 14.7073 12.6194C15.8735 14.2225 16.5021 16.1713 16.4987 18.1731L16.4998 18.1763Z" fill="#107495"/>
</svg>
