<svg width="16" height="20" viewBox="0 0 16 20" fill="none" xmlns="http://www.w3.org/2000/svg">
<path fill-rule="evenodd" clip-rule="evenodd" d="M7.55394 19.8543L7.62182 19.8938L7.64897 19.9096C7.75664 19.9689 7.87711 20 7.99952 20C8.12192 20 8.24239 19.9689 8.35006 19.9096L8.37721 19.8948L8.44606 19.8543C8.82533 19.6253 9.1954 19.3808 9.55539 19.1214C10.4873 18.4512 11.3581 17.6969 12.1571 16.8674C14.0422 14.9019 16 11.9486 16 8.14876C16 5.98757 15.1571 3.9149 13.6569 2.38672C12.1566 0.858527 10.1217 0 8 0C5.87827 0 3.84344 0.858527 2.34315 2.38672C0.842855 3.9149 0 5.98757 0 8.14876C0 11.9476 1.95879 14.9019 3.84291 16.8674C4.64159 17.6968 5.51202 18.4512 6.44364 19.1214C6.80395 19.3808 7.17435 19.6253 7.55394 19.8543ZM8 11.1119C8.77154 11.1119 9.51148 10.7998 10.057 10.244C10.6026 9.68834 10.9091 8.93464 10.9091 8.14876C10.9091 7.36287 10.6026 6.60918 10.057 6.05347C9.51148 5.49777 8.77154 5.18557 8 5.18557C7.22846 5.18557 6.48852 5.49777 5.94296 6.05347C5.3974 6.60918 5.09091 7.36287 5.09091 8.14876C5.09091 8.93464 5.3974 9.68834 5.94296 10.244C6.48852 10.7998 7.22846 11.1119 8 11.1119Z" fill="#107495"/>
</svg>
