<svg width="24" height="20" viewBox="0 0 24 20" fill="none" xmlns="http://www.w3.org/2000/svg">
<path d="M2.08333 0C0.932222 0 0 0.933333 0 2.08333V2.91667C0 4.06778 0.933333 5 2.08333 5H21.25C22.4 5 23.3333 4.06667 23.3333 2.91667V2.08333C23.3333 0.932222 22.4 0 21.25 0H2.08333Z" fill="#107495"/>
<path fill-rule="evenodd" clip-rule="evenodd" d="M1.76367 6.6665L2.36367 16.8621C2.41353 17.7104 2.78555 18.5078 3.40368 19.091C4.02182 19.6742 4.83938 19.9993 5.68923 19.9998H17.6415C18.4917 19.9999 19.3098 19.675 19.9284 19.0917C20.547 18.5085 20.9193 17.7108 20.9692 16.8621L21.5703 6.6665H1.76367ZM8.61145 10.8332C8.61145 10.6122 8.69925 10.4002 8.85553 10.2439C9.01181 10.0876 9.22377 9.99984 9.44478 9.99984H13.8892C14.1102 9.99984 14.3222 10.0876 14.4785 10.2439C14.6348 10.4002 14.7226 10.6122 14.7226 10.8332C14.7226 11.0542 14.6348 11.2661 14.4785 11.4224C14.3222 11.5787 14.1102 11.6665 13.8892 11.6665H9.44478C9.22377 11.6665 9.01181 11.5787 8.85553 11.4224C8.69925 11.2661 8.61145 11.0542 8.61145 10.8332Z" fill="#107495"/>
</svg>
