<svg width="23" height="20" viewBox="0 0 23 20" fill="none" xmlns="http://www.w3.org/2000/svg">
<path d="M10.6154 1.7385C8.76725 0.600339 6.61782 -0.00311333 4.42308 1.20791e-05C3.11737 -0.00127116 1.82101 0.211579 0.589744 0.629406C0.417292 0.688028 0.267981 0.796606 0.162366 0.940191C0.0567513 1.08378 2.60428e-05 1.25531 0 1.43117V17.5913C2.01471e-05 17.7273 0.0339891 17.8614 0.0990551 17.9822C0.164121 18.1031 0.258385 18.2071 0.373934 18.2857C0.489483 18.3642 0.622944 18.415 0.763113 18.4336C0.903283 18.4523 1.04607 18.4384 1.17949 18.3931C2.22137 18.0397 3.31829 17.8599 4.42308 17.8612C6.77615 17.8612 8.93226 18.663 10.6154 20V1.7385ZM12.3846 20C14.126 18.6144 16.3165 17.8578 18.5769 17.8612C19.7163 17.8612 20.8062 18.0494 21.8205 18.3942C21.954 18.4396 22.0969 18.4535 22.2372 18.4347C22.3774 18.416 22.511 18.3651 22.6265 18.2865C22.7421 18.2078 22.8364 18.1036 22.9014 17.9826C22.9663 17.8616 23.0002 17.7274 23 17.5913V1.43117C23 1.25531 22.9432 1.08378 22.8376 0.940191C22.732 0.796606 22.5827 0.688028 22.4103 0.629406C21.179 0.211579 19.8826 -0.00127116 18.5769 1.20791e-05C16.3822 -0.00311333 14.2327 0.600339 12.3846 1.7385V20Z" fill="#107495"/>
</svg>
