<svg width="20" height="20" viewBox="0 0 20 20" fill="none" xmlns="http://www.w3.org/2000/svg">
<path d="M19.9693 10.7733C20.1083 9.00243 19.7738 7.22639 19.0002 5.62834C17.7196 6.84841 16.2059 7.79574 14.5504 8.4132C14.6835 10.0518 14.6098 11.7006 14.3309 13.3206C16.3455 12.8118 18.2545 11.9494 19.9693 10.7733ZM12.7014 13.6508C13.0289 12.0804 13.1434 10.4729 13.0418 8.87186C12.0655 9.1053 11.0472 9.22871 10.0001 9.22871C8.95304 9.22871 7.93469 9.1053 6.95839 8.87186C6.85916 10.4729 6.97366 12.0801 7.29886 13.6508C9.08924 13.926 10.911 13.926 12.7014 13.6508ZM7.71523 15.2643C9.23319 15.4444 10.767 15.4444 12.285 15.2643C11.7633 16.9483 10.9931 18.5446 10.0001 20C9.00706 18.5446 8.2369 16.9484 7.71523 15.2643ZM5.6693 13.3217C5.38896 11.7011 5.31521 10.0514 5.44983 8.41218C3.79389 7.79486 2.27984 6.84752 0.999033 5.62731C0.225595 7.22576 -0.108595 9.00218 0.0309335 10.7733C1.74576 11.9494 3.65467 12.8129 5.6693 13.3217ZM19.595 12.8301C19.0772 14.5896 18.0886 16.1733 16.7367 17.4092C15.3847 18.6451 13.721 19.486 11.9261 19.8406C12.8249 18.325 13.511 16.6923 13.9648 14.9887C15.9436 14.5728 17.8439 13.8446 19.595 12.8311V12.8301ZM0.405252 12.8301C2.13019 13.8287 4.02537 14.566 6.03541 14.9887C6.48921 16.6923 7.17527 18.325 8.07416 19.8406C6.27937 19.486 4.61571 18.6453 3.26375 17.4096C1.9118 16.1739 0.923196 14.5904 0.405252 12.8311V12.8301ZM11.9261 0.158371C14.467 0.659202 16.7153 2.12858 18.1982 4.25751C17.1036 5.36649 15.7969 6.24236 14.3566 6.83258C13.9685 4.47534 13.1441 2.21168 11.9261 0.158371ZM10.0001 0C11.4968 2.19261 12.4801 4.69597 12.8767 7.32312C11.9568 7.55965 10.9928 7.68614 10.0001 7.68614C9.00739 7.68614 8.0434 7.56067 7.1235 7.32312C7.52005 4.69596 8.50341 2.1926 10.0001 0ZM8.07416 0.158371C6.85607 2.21167 6.03172 4.47533 5.64366 6.83258C4.20326 6.24239 2.89658 5.36652 1.80202 4.25751C3.28498 2.12889 5.5333 0.658845 8.07416 0.158371Z" fill="#107495"/>
</svg>
