<svg width="62" height="62" viewBox="0 0 62 62" fill="none" xmlns="http://www.w3.org/2000/svg">
<g clip-path="url(#clip0_3_14936)">
<path fill-rule="evenodd" clip-rule="evenodd" d="M28.3276 44.1538C32.4095 42.9426 36.4511 41.5991 40.4457 40.1255L43.7843 44.9648L48.032 43.5527C48.683 43.3364 49.3932 43.3874 50.0065 43.6947C50.6198 44.002 51.0859 44.5403 51.3023 45.1913C51.5187 45.8422 51.4676 46.5524 51.1604 47.1657C50.8531 47.779 50.3148 48.2451 49.6638 48.4615L25.9314 56.3507C25.2805 56.567 24.5703 56.516 23.957 56.2087C23.3437 55.9014 22.8776 55.3631 22.6612 54.7122C22.4448 54.0612 22.4958 53.351 22.8031 52.7377C23.1104 52.1244 23.6487 51.6583 24.2997 51.4419L28.5474 50.0298L28.3276 44.1538Z" fill="#2859C5"/>
<path fill-rule="evenodd" clip-rule="evenodd" d="M23.2478 8.6393C17.6092 10.5137 12.0818 12.5692 7.02619 14.9838C5.95073 15.497 5.05719 16.3258 4.46464 17.3597C3.87208 18.3935 3.60866 19.5834 3.70945 20.7708C4.01512 24.3688 4.64214 27.0749 6.55894 32.8411C8.21248 37.8154 9.60849 40.3313 10.9098 42.6716L11.4466 43.6415C12.676 45.8967 15.267 47.3394 18.0113 46.7724C23.3679 45.6677 28.895 44.0703 34.4157 42.2351C39.9496 40.3955 45.2414 38.3965 50.261 36.0483C52.7963 34.8639 54.0244 32.1516 53.6502 29.594L53.4897 28.4663C53.1081 25.7548 52.7005 22.834 51.1046 18.0332C49.2726 12.5223 48.0393 9.73059 46.1835 6.70608C45.5497 5.67931 44.6145 4.87313 43.5055 4.39756C42.3965 3.92199 41.1678 3.80019 39.9871 4.04878C34.3243 5.25831 28.7354 6.79099 23.2478 8.6393Z" fill="#8FBFFA"/>
<path fill-rule="evenodd" clip-rule="evenodd" d="M30.9947 17.261C30.9951 16.9779 30.9397 16.6975 30.8317 16.4357C30.7237 16.174 30.5652 15.9361 30.3652 15.7357C30.1653 15.5352 29.9278 15.3761 29.6664 15.2674C29.405 15.1587 29.1247 15.1025 28.8416 15.1022C28.5584 15.1018 28.278 15.1572 28.0163 15.2652C27.7546 15.3732 27.5167 15.5317 27.3162 15.7316C27.1157 15.9315 26.9566 16.169 26.8479 16.4304C26.7392 16.6919 26.6831 16.9722 26.6827 17.2553L26.6693 33.6134C26.6689 33.8966 26.7243 34.177 26.8323 34.4387C26.9403 34.7005 27.0988 34.9383 27.2987 35.1388C27.7025 35.5437 28.2506 35.7716 28.8224 35.7723C29.3942 35.7731 29.9429 35.5466 30.3478 35.1429C30.5482 34.9429 30.7074 34.7055 30.816 34.444C30.9247 34.1826 30.9809 33.9023 30.9813 33.6192L30.9947 17.261ZM19.8834 22.2629C20.1365 22.3897 20.3622 22.5651 20.5475 22.7791C20.7328 22.9931 20.8742 23.2416 20.9635 23.5102C21.0528 23.7788 21.0883 24.0624 21.068 24.3448C21.0477 24.6272 20.9719 24.9028 20.8451 25.1559L18.5337 29.7691L23.147 32.0805C23.6581 32.3366 24.0466 32.7853 24.2269 33.3278C24.4073 33.8703 24.3647 34.4623 24.1086 34.9734C23.8525 35.4846 23.4039 35.8731 22.8613 36.0534C22.3188 36.2338 21.7269 36.1912 21.2157 35.9351L14.6751 32.6581C14.422 32.5313 14.1964 32.3559 14.011 32.1419C13.8257 31.9279 13.6844 31.6795 13.5951 31.4108C13.5058 31.1422 13.4702 30.8586 13.4906 30.5762C13.5109 30.2939 13.5866 30.0183 13.7135 29.7652L16.9905 23.2246C17.1173 22.9715 17.2927 22.7458 17.5067 22.5605C17.7207 22.3752 17.9691 22.2338 18.2377 22.1445C18.5064 22.0552 18.79 22.0197 19.0723 22.04C19.3547 22.0603 19.6303 22.1361 19.8834 22.2629ZM34.0993 17.5373C34.3555 17.0271 34.8037 16.6395 35.3454 16.4594C35.8872 16.2793 36.4782 16.3215 36.9889 16.5767L43.5295 19.8537C43.7826 19.9805 44.0083 20.1559 44.1936 20.3699C44.3789 20.5839 44.5203 20.8323 44.6096 21.101C44.6989 21.3696 44.7344 21.6532 44.714 21.9356C44.6937 22.218 44.618 22.4936 44.4911 22.7466L41.2141 29.2872C40.9481 29.7807 40.5002 30.1511 39.9655 30.3198C39.4308 30.4885 38.8515 30.4422 38.3503 30.1908C37.8492 29.9394 37.4658 29.5026 37.2814 28.9731C37.0971 28.4437 37.1263 27.8632 37.3628 27.3549L39.6742 22.7416L35.0609 20.4302C34.8078 20.3034 34.5821 20.128 34.3968 19.914C34.2115 19.7 34.0701 19.4516 33.9808 19.183C33.8915 18.9143 33.856 18.6307 33.8763 18.3483C33.8967 18.066 33.9724 17.7904 34.0993 17.5373Z" fill="#2859C5"/>
</g>
<defs>
<clipPath id="clip0_3_14936">
<rect width="48.2804" height="48.2804" fill="white" transform="translate(0 15.23) rotate(-18.3879)"/>
</clipPath>
</defs>
</svg>
