<svg width="69" height="70" viewBox="0 0 69 70" fill="none" xmlns="http://www.w3.org/2000/svg">
<path d="M37.2154 15.8015C40.6164 12.9256 45.6781 15.8082 45.1087 20.0823L45.0347 20.4872L43.7818 26.362C43.4942 27.7091 43.4988 29.1023 43.7954 30.4475C44.092 31.7927 44.6736 33.0586 45.501 34.1599L45.8491 34.5958L49.728 39.1815C52.6038 42.5825 49.7213 47.6442 45.4492 47.076L45.0443 47.002L39.1695 45.7491C37.8222 45.461 36.4287 45.4653 35.0831 45.7617C33.7375 46.0581 32.4712 46.6396 31.3695 47.4671L30.9349 47.8132L26.348 51.6941C22.9469 54.57 17.8853 51.6874 18.4555 47.4165L18.5254 47.0092L19.7803 41.1357C20.0684 39.7883 20.0641 38.3948 19.7678 37.0492C19.4714 35.7037 18.8898 34.4373 18.0623 33.3356L17.7163 32.901L13.8374 28.3153C10.9595 24.913 13.8421 19.8514 18.115 20.4229L18.5223 20.4927L24.3959 21.7477C25.743 22.0353 27.1362 22.0307 28.4814 21.7341C29.8266 21.4375 31.0925 20.8559 32.1938 20.0285L32.6285 19.6824L37.2154 15.8015ZM61.9228 20.919C62.3094 21.1505 62.6232 21.4858 62.8287 21.8868C63.0342 22.2878 63.1231 22.7383 63.0853 23.1873L63.0397 23.4884L62.4933 26.0415L64.1822 28.0355C64.4907 28.3991 64.6844 28.8461 64.7386 29.3199C64.7928 29.7936 64.7052 30.2729 64.4868 30.6968C64.2684 31.1207 63.9291 31.4702 63.5118 31.7011C63.0945 31.932 62.6181 32.0338 62.1429 31.9936L61.8397 31.9468L59.2867 31.4003L57.2927 33.0892C56.9289 33.3975 56.4818 33.5909 56.0081 33.6449C55.5343 33.6988 55.0551 33.6109 54.6314 33.3923C54.2076 33.1737 53.8583 32.8342 53.6276 32.4168C53.397 31.9995 53.2954 31.523 53.3358 31.0479L53.3814 30.7468L53.9278 28.1938L52.239 26.1998C51.9304 25.8362 51.7367 25.3892 51.6825 24.9154C51.6283 24.4416 51.7159 23.9624 51.9343 23.5384C52.1527 23.1145 52.492 22.765 52.9093 22.5341C53.3266 22.3032 53.803 22.2015 54.2782 22.2416L54.5814 22.2885L57.1344 22.8349L59.1284 21.146C59.5122 20.8212 59.988 20.6247 60.4892 20.584C60.9903 20.5433 61.4916 20.6604 61.9228 20.919Z" fill="url(#paint0_linear_3_14942)"/>
<defs>
<linearGradient id="paint0_linear_3_14942" x1="47.5586" y1="12.3165" x2="22.927" y2="53.4453" gradientUnits="userSpaceOnUse">
<stop stop-color="#8FBFFA"/>
<stop offset="1" stop-color="#2859C5"/>
</linearGradient>
</defs>
</svg>
