<svg width="80" height="80" viewBox="0 0 80 80" fill="none" xmlns="http://www.w3.org/2000/svg">
<path d="M39.9993 26.7797C39.9993 34.0811 34.0803 40 26.7789 40H13.5586V26.7797C13.5586 19.4783 19.4775 13.5593 26.7789 13.5593C34.0803 13.5593 39.9993 19.4783 39.9993 26.7797Z" fill="#17CF97"/>
<path d="M40 53.2203C40 45.919 45.919 40 53.2203 40H66.4407V53.2203C66.4407 60.5217 60.5217 66.4407 53.2203 66.4407C45.919 66.4407 40 60.5217 40 53.2203Z" fill="#17CF97"/>
<path d="M13.5586 53.2203C13.5586 60.5217 19.4775 66.4407 26.7789 66.4407H39.9993V53.2203C39.9993 45.919 34.0803 40 26.7789 40C19.4775 40 13.5586 45.919 13.5586 53.2203Z" fill="#17CF97"/>
<path d="M66.4407 26.7797C66.4407 19.4783 60.5217 13.5593 53.2203 13.5593H40V26.7797C40 34.0811 45.919 40 53.2203 40C60.5217 40 66.4407 34.0811 66.4407 26.7797Z" fill="#17CF97"/>
</svg>
