<svg width="80" height="80" viewBox="0 0 80 80" fill="none" xmlns="http://www.w3.org/2000/svg">
<path d="M6.92288 62.7209V51.3318H5.05566V62.7209H6.92288Z" fill="black"/>
<path d="M8.06543 58.9244C8.06543 61.2512 9.62657 62.9044 11.9988 62.9044C14.3711 62.9044 15.9322 61.2512 15.9322 58.9244C15.9322 56.5976 14.3711 54.9443 11.9988 54.9443C9.62657 54.9443 8.06543 56.5976 8.06543 58.9244ZM9.94794 58.9244C9.94794 57.562 10.7591 56.6129 11.9988 56.6129C13.2385 56.6129 14.0497 57.562 14.0497 58.9244C14.0497 60.2715 13.2385 61.2359 11.9988 61.2359C10.7591 61.2359 9.94794 60.2715 9.94794 58.9244Z" fill="black"/>
<path d="M16.5605 58.7714C16.5605 60.9758 17.9839 62.5679 20.1113 62.5679C21.2133 62.5679 22.1622 62.1239 22.6366 61.3891V62.675C22.6366 63.9149 21.8561 64.7416 20.5551 64.7416C19.392 64.7416 18.5961 64.1752 18.489 63.1802H16.6065C16.8513 65.1549 18.3665 66.4407 20.448 66.4407C22.8969 66.4407 24.4579 64.8334 24.4579 62.3382V55.1588H22.805L22.6979 56.1844C22.2387 55.3884 21.2898 54.9138 20.1725 54.9138C18.0145 54.9138 16.5605 56.5518 16.5605 58.7714ZM18.4584 58.7255C18.4584 57.4703 19.2542 56.5518 20.4327 56.5518C21.7184 56.5518 22.5754 57.4856 22.5754 58.7255C22.5754 59.9808 21.7184 60.9452 20.4327 60.9452C19.2695 60.9452 18.4584 59.9961 18.4584 58.7255Z" fill="black"/>
<path d="M25.3818 58.9244C25.3818 61.2512 26.943 62.9044 29.3152 62.9044C31.6875 62.9044 33.2486 61.2512 33.2486 58.9244C33.2486 56.5976 31.6875 54.9443 29.3152 54.9443C26.943 54.9443 25.3818 56.5976 25.3818 58.9244ZM27.2643 58.9244C27.2643 57.562 28.0755 56.6129 29.3152 56.6129C30.5549 56.6129 31.3661 57.562 31.3661 58.9244C31.3661 60.2715 30.5549 61.2359 29.3152 61.2359C28.0755 61.2359 27.2643 60.2715 27.2643 58.9244Z" fill="black"/>
<path d="M35.269 53.6127C35.8812 53.6127 36.3863 53.1228 36.3863 52.4952C36.3863 51.8829 35.8812 51.3931 35.269 51.3931C34.6415 51.3931 34.167 51.8829 34.167 52.4952C34.167 53.1228 34.6415 53.6127 35.269 53.6127ZM34.3354 62.7209H36.2026V55.1588H34.3354V62.7209Z" fill="black"/>
<path d="M37.8389 66.2265H39.6601V61.68C40.1346 62.4607 41.16 62.92 42.2926 62.92C44.5272 62.92 45.8587 61.2055 45.828 58.848C45.7822 56.4753 44.42 54.9292 42.2773 54.9292C41.1294 54.9292 40.0887 55.4344 39.6295 56.3069L39.5224 55.1589H37.8389V66.2265ZM39.7366 58.9399C39.7366 57.5775 40.5632 56.6284 41.864 56.6284C43.165 56.6284 43.9455 57.5928 43.9455 58.9399C43.9455 60.287 43.165 61.2361 41.864 61.2361C40.5632 61.2361 39.7366 60.3023 39.7366 58.9399Z" fill="black"/>
<path d="M46.3018 60.4554C46.363 61.9555 47.5262 62.92 49.3322 62.92C51.1075 62.92 52.3166 61.9709 52.3166 60.5013C52.3166 59.4144 51.6432 58.6796 50.4035 58.3735L49.072 58.052C48.5057 57.8989 48.1231 57.7 48.1231 57.2101C48.1231 56.6896 48.5363 56.3222 49.2097 56.3222C49.9138 56.3222 50.3729 56.7202 50.3729 57.3785H52.0718C52.0105 55.8783 50.8933 54.9292 49.2556 54.9292C47.6333 54.9292 46.4242 55.8783 46.4242 57.3172C46.4242 58.297 46.9905 59.1083 48.4445 59.491L49.7607 59.8277C50.2505 59.9655 50.5566 60.1951 50.5566 60.6238C50.5566 61.2208 49.9903 61.4963 49.3016 61.4963C48.4751 61.4963 48.0006 61.1136 48.0006 60.4554H46.3018Z" fill="black"/>
<path d="M56.1901 62.9198C57.2156 62.9198 58.1951 62.4452 58.6389 61.7411L58.7614 62.7208H60.5062V55.1587H58.6389V59.1234C58.6389 60.4858 58.1186 61.2512 56.8942 61.2512C55.9453 61.2512 55.2872 60.792 55.2872 59.2306V55.1587H53.4199V59.8889C53.4199 61.6951 54.3994 62.9198 56.1901 62.9198Z" fill="black"/>
<path d="M64.0215 62.721V58.3735C64.0215 57.1489 64.7408 56.5672 65.6285 56.5672C66.5162 56.5672 67.0978 57.1335 67.0978 58.2051V62.721H68.9191V58.3888C68.9191 57.1489 69.6231 56.5672 70.5108 56.5672C71.4138 56.5672 71.9954 57.1335 71.9954 58.2051V62.721H73.8014V57.7765C73.8014 56.0314 72.8372 54.9292 71.0006 54.9292C69.8527 54.9292 68.9497 55.4803 68.5824 56.3682C68.1692 55.4803 67.3427 54.9292 66.0877 54.9292C65.2 54.9292 64.4041 55.3425 63.9603 56.0161L63.8684 55.1589H62.1543V62.721H64.0215Z" fill="black"/>
<path d="M34.8854 41.0217C32.4255 45.4485 27.4169 47.5546 22.3526 47.5546H2.0332C23.1857 44.9105 37.917 34.3343 39.8056 19.603C41.6942 34.3343 56.4255 44.9105 77.578 47.5546H57.2586C52.1943 47.5546 47.1857 45.4485 44.7258 41.0217C42.0633 36.2304 40.3671 30.8089 39.8056 24.8912C39.2442 30.8089 37.5479 36.2304 34.8854 41.0217Z" fill="#113322"/>
<path d="M23.2654 39.4571C22.0788 40.1251 20.8307 40.7526 19.5237 41.3371C18.7814 38.7726 18.5082 36.0821 18.7261 33.4019C19.0143 29.8562 20.153 26.4379 22.0413 23.4499C23.9297 20.4619 26.5093 17.9962 29.5518 16.2714C32.5943 14.5467 36.0057 13.616 39.4839 13.5618C42.962 13.5077 46.3996 14.3317 49.492 15.9609C52.5844 17.5902 55.2363 19.9743 57.2126 22.9022C59.189 25.8301 60.4289 29.2113 60.8226 32.7463C61.1445 35.6378 60.8922 38.5593 60.088 41.3371C58.7811 40.7526 57.5329 40.125 56.3463 39.457C56.8466 37.4262 56.9868 35.3135 56.7537 33.2203C56.4363 30.3696 55.4364 27.643 53.8427 25.282C52.2489 22.921 50.1105 20.9984 47.6167 19.6846C45.123 18.3708 42.351 17.7063 39.5462 17.7499C36.7414 17.7936 33.9904 18.5441 31.537 19.9349C29.0836 21.3258 27.0033 23.314 25.4805 25.7236C23.9578 28.1332 23.0395 30.8897 22.8071 33.749C22.6509 35.6708 22.8077 37.5993 23.2654 39.4571Z" fill="#494582"/>
</svg>
