<svg width="85" height="80" viewBox="0 0 85 80" fill="none" xmlns="http://www.w3.org/2000/svg">
<path d="M78.753 20.0596C78.753 20.1213 78.753 20.1983 78.7372 20.2446C78.6584 20.8458 78.6584 21.4469 78.7056 22.0635C78.7372 22.2177 78.7687 22.3718 78.8949 22.4952C79.0998 22.7264 79.4151 22.6801 79.5413 22.4027C79.6044 22.2639 79.6044 22.1252 79.5728 21.9865C79.4151 21.4007 79.3836 20.7841 79.3678 20.1829C79.3678 20.1521 79.3678 20.1058 79.3678 20.0596C79.5413 20.0442 79.6989 20.0288 79.8408 20.0288C79.9512 20.0134 80.0458 19.9979 80.1246 19.9517C80.361 19.8284 80.361 19.5663 80.1088 19.443C80.0142 19.3968 79.8881 19.3813 79.7778 19.3813C79.3836 19.3968 78.9895 19.3968 78.5953 19.3968C78.4535 19.3968 78.3115 19.4122 78.1696 19.4276C78.0908 19.443 77.9962 19.443 77.9332 19.4893C77.8227 19.5355 77.7598 19.6126 77.7598 19.7205C77.7755 19.8284 77.8227 19.89 77.9332 19.9363C77.9962 19.9825 78.075 19.9979 78.1538 19.9979C78.343 20.0134 78.5481 20.0442 78.753 20.0596ZM83.0885 20.7687C83.0885 20.7841 83.1043 20.7995 83.1043 20.7995C83.1674 21.2157 83.2305 21.6165 83.2777 22.0173C83.2936 22.156 83.3093 22.2793 83.4039 22.3872C83.6088 22.6493 83.9242 22.6185 84.066 22.341C84.1291 22.2023 84.1448 22.0635 84.1133 21.9094C84.0188 21.4469 83.9714 20.9845 83.8768 20.5375C83.8137 20.26 83.735 19.9979 83.6562 19.7513C83.6088 19.5972 83.4985 19.4892 83.3093 19.4738C83.1201 19.443 82.9782 19.5355 82.8994 19.6742C82.8048 19.7975 82.7259 19.9209 82.6628 20.0596C82.5525 20.3062 82.4579 20.5529 82.3318 20.7841C82.316 20.8458 82.3002 20.892 82.2687 20.9382C82.253 20.9074 82.2373 20.892 82.2373 20.892C82.0322 20.5066 81.843 20.1213 81.6381 19.7513C81.6065 19.7205 81.5908 19.6896 81.575 19.6588C81.4805 19.5201 81.3701 19.443 81.1967 19.443C81.039 19.4584 80.9128 19.5509 80.8341 19.6896C80.8025 19.7513 80.8025 19.7975 80.7867 19.8592C80.7236 20.3525 80.6448 20.8458 80.5818 21.339C80.5502 21.6165 80.5345 21.894 80.5345 22.1714C80.5187 22.2331 80.5345 22.3102 80.566 22.3718C80.5976 22.4951 80.6922 22.5722 80.8182 22.5876C80.9759 22.6031 81.0862 22.5568 81.1336 22.4335C81.1808 22.341 81.1967 22.2639 81.2124 22.1869C81.2755 21.9094 81.3228 21.6473 81.3701 21.3853C81.4016 21.2311 81.4173 21.1078 81.4647 20.9382C81.4962 20.9999 81.5277 21.0462 81.5593 21.0924C81.7011 21.2774 81.8431 21.4624 82.0165 21.6165C82.1899 21.7398 82.3318 21.7244 82.4737 21.5857C82.5053 21.5548 82.521 21.5394 82.5525 21.5086C82.6944 21.2928 82.8679 21.077 83.0097 20.8612C83.0413 20.8303 83.057 20.7995 83.0885 20.7687Z" fill="black"/>
<path d="M46.7623 20.3624C46.6527 20.6554 46.6318 20.8664 46.6824 21.0419C46.7383 21.2804 46.8833 21.3585 47.0802 21.2978C48.932 20.8501 52.9927 22.1209 54.4961 22.4751C54.8506 22.5495 55.1391 22.102 54.8971 21.7008C54.544 21.3122 50.4852 19.6487 48.9365 19.5579C48.3294 19.5244 47.2441 19.3722 46.7623 20.3624Z" fill="black"/>
<path d="M62.6326 14.9772C62.8299 15.0886 62.9402 15.1949 62.9947 15.3136C63.0758 15.4693 63.033 15.577 62.8967 15.632C61.6726 16.2161 60.0438 18.7309 59.3862 19.5982C59.2269 19.7977 58.8592 19.6818 58.8037 19.3537C58.8151 18.9827 60.259 16.2536 61.0649 15.5103C61.3816 15.2201 61.9047 14.6507 62.6326 14.9772Z" fill="black"/>
<path d="M52.8845 13.7394C53.1216 13.5646 53.368 13.5034 53.4938 13.617C55.3407 15.1613 56.3201 17.6068 56.9265 19.8457C56.9494 19.8978 56.9508 19.9727 56.9325 20.0508C56.925 20.1175 56.8751 20.188 56.7959 20.2426C56.7113 20.3028 56.6384 20.3211 56.6042 20.2692C55.7947 19.1928 51.1716 15.0045 52.8845 13.7394Z" fill="black"/>
<path d="M13.7744 40.514C14.217 40.1918 14.6983 39.9236 15.2075 39.7154C15.7403 39.5665 16.3081 39.5911 16.8253 39.7858C17.3423 39.9805 17.7806 40.3345 18.0737 40.7943C18.3358 41.2529 18.4383 41.7825 18.3659 42.3031C18.2936 42.8236 18.0502 43.3071 17.6724 43.6808C17.3795 43.9836 17.0469 44.2475 16.6836 44.4655C15.0642 45.4884 13.4304 46.4551 11.7967 47.478C11.4624 47.734 11.1078 47.9637 10.7362 48.1646C10.171 48.4402 9.5251 48.514 8.91013 48.3733C8.29517 48.2327 7.74984 47.8862 7.36844 47.394C7.08333 47.0455 6.84271 46.6644 6.65189 46.259C5.10415 43.0783 3.49909 39.9115 2.00866 36.6747C1.32077 35.2736 0.761868 33.6622 0.217292 32.1068C-0.0183169 31.655 -0.064326 31.1311 0.0890615 30.6465C0.242449 30.1619 0.583131 29.7549 1.03864 29.5122C1.49415 29.2694 2.02854 29.21 2.52817 29.3466C3.02781 29.4831 3.45326 29.8048 3.71404 30.2433C4.51561 31.2848 5.22517 32.3911 5.83503 33.5502C7.38277 36.3525 8.85887 39.1549 10.3493 41.8732C10.4361 42.0234 10.5318 42.1684 10.6359 42.3075C11.7577 41.8464 12.8128 41.2434 13.7744 40.514Z" fill="black"/>
<path d="M29.7769 39.5364C26.2372 43.5858 20.3041 42.5629 17.3233 37.3505C15.2023 33.6513 14.8297 27.5421 19.4443 23.6888C20.4297 22.8821 21.608 22.3325 22.8693 22.0914C24.4159 21.8746 25.993 22.1414 27.3751 22.8536C28.7572 23.5658 29.8737 24.6869 30.5651 26.0568C33.0874 30.5407 32.7291 36.2575 29.7769 39.5364ZM28.3438 30.0923C27.9677 28.9904 27.2133 28.0497 26.2084 27.4299C25.6398 27.0337 24.9489 26.841 24.2521 26.8844C23.5551 26.9278 22.8948 27.2046 22.3821 27.6681C20.3328 29.4477 19.9028 33.6654 21.3932 36.1735C21.5832 36.5825 21.8622 36.9459 22.2109 37.2385C22.5595 37.531 22.9693 37.7455 23.4116 37.8669C23.8539 37.9884 24.3179 38.0139 24.7714 37.9417C25.2248 37.8693 25.6566 37.7011 26.0366 37.4485C27.1474 36.6064 27.9624 35.4469 28.3682 34.1311C28.774 32.8152 28.7505 31.4084 28.3009 30.1063L28.3438 30.0923Z" fill="black"/>
<path d="M44.2223 31.8577C43.86 31.9339 43.4856 31.9385 43.1213 31.871C42.7571 31.8036 42.4103 31.6658 42.1014 31.4654C41.8311 31.3142 41.5984 31.1064 41.4201 30.8568C41.2418 30.6072 41.1224 30.3221 41.0703 30.0219C41.0182 29.7218 41.0349 29.4141 41.1189 29.121C41.203 28.8278 41.3527 28.5566 41.5569 28.3267C41.9126 27.8647 42.4176 27.5339 42.9899 27.3879C44.4842 26.9639 46.0224 26.7054 47.5758 26.6173C47.9172 26.5785 48.2629 26.6067 48.5928 26.7003C48.9229 26.7941 49.2303 26.9512 49.4974 27.1627C49.7643 27.3741 49.9854 27.6356 50.1477 27.9317C50.3098 28.2279 50.4099 28.5527 50.442 28.8872C50.8898 30.5301 50.9389 32.2528 50.5853 33.9176C49.2956 39.2981 44.8529 41.1476 39.8657 39.4242C38.4658 38.9634 37.2384 38.1048 36.3403 36.9581C35.1426 35.5772 34.2934 33.9406 33.861 32.18C33.5108 30.6122 33.5492 28.9854 33.9731 27.4351C34.3968 25.8849 35.1938 24.4562 36.2973 23.2684C37.3446 21.9774 38.7039 20.9614 40.2527 20.3119C41.2314 19.7844 42.3766 19.6345 43.4629 19.8915C43.7092 19.9582 43.9329 20.0881 44.1107 20.2678C44.2884 20.4475 44.4138 20.6704 44.4737 20.9134C44.5337 21.1564 44.526 21.4107 44.4516 21.6499C44.3771 21.889 44.2387 22.1044 44.0504 22.2735C43.6925 22.5903 43.3037 22.8719 42.8896 23.1143C41.6155 23.9076 40.5068 24.9298 39.6221 26.1268C39.0422 26.9014 38.6428 27.7909 38.4522 28.7325C38.2615 29.6742 38.2842 30.6453 38.5187 31.5776C38.8437 32.8486 39.5649 33.9895 40.5823 34.8423C43.7351 37.6447 47.8338 34.9403 47.1172 31.1151C46.0711 31.3674 45.1539 31.6336 44.2223 31.8577Z" fill="black"/>
<path d="M63.4836 39.7605C58.826 42.5629 53.5236 39.7605 52.3627 33.8755C51.5172 29.6719 53.1223 23.7868 58.7401 21.5449C59.9353 21.0782 61.2318 20.9143 62.5091 21.0685C64.0437 21.3432 65.4516 22.0819 66.534 23.1804C67.6164 24.279 68.319 25.682 68.5424 27.1918C69.4882 32.194 67.3386 37.5326 63.4836 39.7605ZM65.1031 30.3304C65.1016 29.1664 64.6805 28.04 63.9136 27.1497C63.5036 26.599 62.911 26.2044 62.2368 26.0332C61.5624 25.862 60.8484 25.9248 60.2161 26.2109C57.6939 27.2758 55.9168 31.1431 56.5618 33.9876C56.611 34.434 56.7593 34.8645 56.9965 35.249C57.2336 35.6334 57.5538 35.9626 57.9346 36.2136C58.3154 36.4644 58.7477 36.631 59.2011 36.7015C59.6547 36.7719 60.1185 36.7448 60.5601 36.6218C61.8933 36.1665 63.0477 35.3154 63.862 34.1875C64.6765 33.0596 65.1104 31.7111 65.1031 30.3304Z" fill="black"/>
<path d="M73.2523 40.9375C73.182 41.4503 72.9063 41.9149 72.4856 42.2289C72.065 42.5428 71.534 42.6807 71.0095 42.6119C70.485 42.5432 70.0099 42.2735 69.6888 41.8622C69.3675 41.4511 69.2267 40.9319 69.297 40.419C69.3673 39.9062 69.6431 39.4417 70.0637 39.1276C70.4843 38.8136 71.0153 38.6759 71.5398 38.7446C72.0643 38.8134 72.5393 39.0829 72.8606 39.4942C73.1817 39.9055 73.3227 40.4247 73.2523 40.9375ZM72.0055 22.0353C72.2781 21.6282 72.6779 21.3183 73.1454 21.1516C73.6128 20.985 74.1229 20.9705 74.5994 21.1105C75.0839 21.229 75.5119 21.5066 75.812 21.8969C76.112 22.2872 76.2657 22.7664 76.2475 23.2543C76.1843 24.0369 76.0646 24.8142 75.8893 25.5803C75.4163 28.1725 74.9577 30.7647 74.4562 33.329C74.2269 34.3518 73.9259 35.3327 73.5963 36.3695C73.4816 36.6937 73.29 36.9865 73.0374 37.2243C72.8803 37.4031 72.6797 37.5402 72.454 37.623C72.2283 37.706 71.9849 37.7318 71.7464 37.6983C71.5078 37.6647 71.2816 37.5729 71.089 37.4313C70.8963 37.2896 70.7433 37.1028 70.6442 36.888C70.4737 36.5027 70.3812 36.0886 70.3718 35.669C70.3718 33.9314 70.3718 32.18 70.4865 30.4284C70.6813 27.9288 71.0644 25.4466 71.6329 23.0021C71.6999 22.6746 71.8259 22.3614 72.0055 22.0773V22.0353Z" fill="black"/>
<path fill-rule="evenodd" clip-rule="evenodd" d="M7.71973 52.1973C7.55052 52.5666 7.50412 52.9784 7.58681 53.3746C7.64182 53.8969 7.76264 54.4107 7.94652 54.9042C8.1761 55.5085 8.43299 56.1061 8.74975 56.8426C8.8226 57.012 8.89872 57.1889 8.97838 57.3751C9.40554 58.3729 9.94152 59.648 10.6564 61.4935C10.8588 62.0177 11.0385 62.5463 11.2194 63.0785C11.2925 63.2935 11.3659 63.5092 11.441 63.7254C11.7101 64.4941 12.1733 65.1847 12.7872 65.732C13.0479 66.0329 13.3937 66.2521 13.7814 66.3617C14.1767 66.4735 14.5971 66.4664 14.9881 66.3414C15.3792 66.2163 15.7227 65.979 15.974 65.6604C16.2204 65.348 16.3669 64.9716 16.3954 64.5784C16.5552 63.8123 16.5007 63.018 16.2372 62.2795C15.8191 61.0532 15.3428 59.8252 14.7936 58.6241L14.791 58.6188C13.8875 56.7395 12.969 54.8733 12.0071 53.0064L11.9999 52.9933C11.7183 52.5069 11.3524 52.072 10.9185 51.7084C10.6368 51.3837 10.2483 51.1648 9.81927 51.0893C9.38106 51.0123 8.92912 51.0899 8.54412 51.3085C8.17991 51.5119 7.8912 51.823 7.71973 52.1973Z" fill="black"/>
<path fill-rule="evenodd" clip-rule="evenodd" d="M21.5204 47.5701C20.1037 47.2113 18.6241 47.159 17.1847 47.417C16.0699 47.5243 14.9735 47.7757 14.2121 48.2738C13.8249 48.5272 13.5118 48.8527 13.3376 49.2664C13.1625 49.6823 13.1402 50.158 13.2837 50.688C13.5457 51.6589 13.8859 52.6028 14.2249 53.5438L14.2799 53.6962L14.2812 53.6995C15.302 56.433 16.3326 59.1572 17.3726 61.8721C17.4939 62.3 17.6654 62.7127 17.8836 63.1019L17.8877 63.1092C18.176 63.5928 18.5458 64.0253 18.9815 64.3886C19.1994 64.5884 19.4689 64.7266 19.761 64.7884C20.0561 64.8506 20.3629 64.8326 20.6481 64.736C20.9334 64.6395 21.1861 64.4682 21.3786 64.2408C21.568 64.0172 21.692 63.7477 21.7376 63.4609C21.9256 62.6819 21.8653 61.8652 21.5649 61.1206C21.4711 60.87 21.3976 60.6139 21.3201 60.3443C21.2942 60.2544 21.268 60.1629 21.2404 60.0698C23.6209 59.16 26.1538 57.9366 27.0445 55.0907C27.3933 54.1072 27.4223 53.0422 27.1276 52.0418C26.8327 51.0403 26.2276 50.1526 25.3957 49.501C24.2634 48.5888 22.9408 47.9297 21.5204 47.5701ZM17.5934 51.0609C17.6402 51.0476 17.6875 51.0354 17.7348 51.024C19.2846 50.7857 20.8702 51.1032 22.1997 51.9175C22.7856 52.3159 23.0256 52.7586 23.0668 53.1845C23.1094 53.6231 22.9463 54.0983 22.6187 54.5551C21.9996 55.418 20.8699 56.1087 19.8494 56.2375C19.1054 54.5623 18.3499 52.8194 17.5934 51.0609Z" fill="black"/>
<path d="M30.9647 44.5038C32.6518 43.7419 34.7417 43.6103 36.3771 44.146C36.789 44.2633 37.1463 44.517 37.388 44.8637C37.6281 45.2083 37.7389 45.6235 37.7019 46.0387C37.6995 46.3081 37.6318 46.5732 37.5046 46.8124C37.375 47.0559 37.1874 47.2653 36.9576 47.423C36.7278 47.5805 36.4626 47.6818 36.1843 47.718C35.906 47.7543 35.6229 47.7245 35.3589 47.6311L35.3388 47.624L35.32 47.6143C35.1849 47.5452 35.0414 47.4931 34.8929 47.4593L34.8836 47.4572C33.7332 47.1584 32.648 47.6535 32.2516 48.2617C32.0626 48.5517 32.0391 48.8445 32.1966 49.1108C32.3652 49.396 32.7788 49.7161 33.6156 49.9442C33.8458 50.006 34.0817 50.0656 34.321 50.1262C34.9827 50.2937 35.6704 50.4677 36.3354 50.7089L36.3379 50.7099C39.4058 51.8512 40.5481 54.2148 40.157 56.438C39.7702 58.6366 37.8923 60.6374 35.0683 61.1094C34.0407 61.3321 32.9713 61.2887 31.966 60.9835C30.9581 60.6774 30.0496 60.1189 29.3308 59.3632L29.312 59.3435C29.0851 59.0588 28.9325 58.7243 28.8648 58.3694C28.8026 58.0491 28.8354 57.7181 28.9592 57.4154C29.0822 57.1144 29.2904 56.854 29.559 56.6642C29.8428 56.4491 30.1848 56.32 30.5428 56.2931C30.8997 56.2663 31.2567 56.3421 31.5701 56.5111C31.883 56.6589 32.1741 56.8475 32.4354 57.0718L32.4403 57.0759C32.9026 57.4892 33.4618 57.5969 33.998 57.4971C34.5421 57.3959 35.0537 57.0811 35.3828 56.6635C35.7097 56.2485 35.841 55.7555 35.6852 55.2769C35.5285 54.7949 35.0572 54.2548 34.0218 53.8032C33.7512 53.6908 33.4705 53.6002 33.1786 53.512C33.0999 53.4882 33.0199 53.4645 32.9388 53.4405C32.723 53.3764 32.5009 53.3105 32.2831 53.2377C32.1331 53.1877 31.9843 53.1404 31.837 53.0934C31.4343 52.9652 31.0416 52.8402 30.6637 52.6725C29.8413 52.3987 29.1308 51.873 28.6379 51.1732C28.143 50.4706 27.894 49.6304 27.9279 48.778C27.9305 46.7009 29.2685 45.2698 30.9647 44.5038Z" fill="black"/>
<path d="M52.3544 44.2823C52.0273 44.1261 51.6655 44.0519 51.3018 44.0665C50.938 44.0812 50.5837 44.184 50.2709 44.3661C49.96 44.5469 49.6996 44.8 49.5131 45.103C49.3421 45.3581 49.2237 45.6434 49.1647 45.9431C49.1057 46.2424 49.1071 46.5501 49.1688 46.8488C49.2297 47.2326 49.2973 47.6059 49.364 47.9741C49.4744 48.5833 49.5819 49.1788 49.6528 49.786L49.6554 49.8014C49.8168 50.7536 49.9013 51.7166 49.9089 52.6817L49.9096 52.6954C49.9648 53.7377 49.6016 54.7596 48.8979 55.5444L48.8867 55.5583C48.6578 55.8452 48.3516 56.0642 48.0025 56.1907C47.6535 56.3173 47.2754 56.3464 46.9104 56.2748C46.5454 56.2031 46.208 56.0337 45.9359 55.7852C45.6638 55.5368 45.4676 55.2183 45.3696 54.8673C45.1605 54.1273 45.0395 53.3662 45.0087 52.5991L45.3659 47.039C45.3712 46.9664 45.3772 46.8919 45.3833 46.8167C45.3969 46.6478 45.4108 46.4758 45.4166 46.3154C45.425 46.0793 45.4178 45.8366 45.3616 45.6068C45.304 45.3719 45.1945 45.1485 45.0003 44.9583C44.808 44.7699 44.5484 44.631 44.2217 44.5364C43.631 44.3692 43.1315 44.3745 42.7153 44.5472C42.2989 44.7199 42.0136 45.0406 41.8117 45.411C41.6113 45.7783 41.4826 46.2131 41.3852 46.6487C41.313 46.9718 41.255 47.3111 41.1998 47.6341C41.1807 47.7454 41.1621 47.8546 41.1432 47.9607L41.1427 47.9638C40.8475 49.7349 40.7597 51.5331 40.8808 53.3236C40.9034 54.2912 41.1098 55.2463 41.4896 56.1402C41.918 57.2934 42.6941 58.2927 43.7153 59.006C44.7386 59.7207 45.9598 60.1145 47.2172 60.1353C48.4746 60.1561 49.7088 59.8029 50.7563 59.1225C51.8022 58.4431 52.6127 57.4694 53.0807 56.3302C53.7353 54.8789 54.0428 53.3007 53.9793 51.7157C53.9409 50.5585 53.8764 49.3925 53.8124 48.2323C53.7809 47.6633 53.7495 47.0954 53.7214 46.531C53.7072 45.9651 53.5164 45.4169 53.1743 44.9601C52.9627 44.6713 52.681 44.4383 52.3544 44.2823Z" fill="black"/>
<path d="M63.9333 53.0008C63.9001 53.042 63.8652 53.0846 63.8286 53.129C63.5625 51.6281 63.3159 50.1277 63.0689 48.6251C62.9804 48.0859 62.8913 47.5445 62.8018 47.0046L62.7917 46.9444L62.759 46.8924C62.6973 46.7944 62.6912 46.6984 62.6912 46.4936V46.4699L62.6875 46.4465C62.6206 46.0235 62.425 45.6299 62.1261 45.3172C61.828 45.0053 61.4409 44.7883 61.0151 44.6941C60.59 44.5915 60.1433 44.6141 59.7312 44.7591C59.3201 44.9037 58.9619 45.1635 58.7011 45.506C58.4842 45.7689 58.3065 46.0604 58.1733 46.372C57.8711 47.0431 57.5661 47.7159 57.2604 48.3905L57.2551 48.4021C56.4918 50.0863 55.7233 51.7817 54.9772 53.4905L54.975 53.496C54.5169 54.604 54.1388 55.7715 53.7621 56.9354C53.6868 57.1677 53.6116 57.3999 53.5357 57.6315C53.3997 57.9988 53.3402 58.3889 53.3606 58.7789C53.3359 59.128 53.4213 59.4763 53.6057 59.7767C53.7937 60.0831 54.0753 60.3242 54.4107 60.4662C54.7662 60.6186 55.1636 60.6509 55.5402 60.5581C55.9159 60.4654 56.2495 60.2534 56.4886 59.9554C56.7938 59.5882 57.0564 59.1878 57.2706 58.7635C57.9027 57.4994 58.5067 56.2199 59.108 54.946C59.3407 54.4532 59.5667 54.0119 59.8239 53.5313C59.8416 53.5905 59.8596 53.6483 59.8783 53.7062C60.1478 54.8666 60.6029 55.9781 61.2265 56.9999C61.3445 57.2164 61.5089 57.4055 61.7084 57.5544C61.9103 57.7052 62.1434 57.8109 62.3913 57.8646C62.6393 57.9184 62.8962 57.9186 63.1443 57.8654C63.392 57.8122 63.6257 57.7064 63.8278 57.5564L64.2276 57.2637L67.3312 54.7077L67.1477 55.8513C66.8957 57.4232 66.6458 58.982 66.3801 60.5412C66.2064 61.2322 66.2066 61.9541 66.3809 62.6449C66.4563 63.0337 66.6486 63.3916 66.9332 63.6731C67.2202 63.9568 67.5878 64.1496 67.9882 64.2265C68.3887 64.3033 68.8036 64.2608 69.1789 64.1042C69.5488 63.95 69.8635 63.6921 70.0834 63.3633C70.5952 62.7426 70.9136 61.9911 71.0011 61.1982C71.1329 60.0786 71.2817 58.9437 71.4306 57.8091C71.6021 56.5014 71.7736 55.194 71.9184 53.9118L71.9189 53.9078C72.0583 52.5042 72.1257 51.0947 72.121 49.6845C72.1516 49.2388 72.0381 48.7949 71.7963 48.4155C71.5536 48.0347 71.1943 47.7387 70.7695 47.5694C70.3277 47.373 69.8332 47.3205 69.3586 47.4197C68.8871 47.5183 68.4603 47.7613 68.1401 48.1133C67.5677 48.631 67.0307 49.1849 66.5325 49.7715L66.5292 49.7755C65.9853 50.4381 65.4452 51.1136 64.9086 51.7848C64.5823 52.1929 64.257 52.5999 63.9333 53.0008Z" fill="black"/>
</svg>
