<svg width="80" height="80" viewBox="0 0 80 80" fill="none" xmlns="http://www.w3.org/2000/svg">
<path fill-rule="evenodd" clip-rule="evenodd" d="M47.6276 58.8985C49.6308 58.8985 51.6145 58.5039 53.4651 57.7374C55.3159 56.9707 56.9975 55.8472 58.414 54.4307C59.8305 53.0142 60.954 51.3326 61.7207 49.4818C62.4872 47.6311 62.8819 45.6475 62.8819 43.6443C62.8819 37.5759 60.4711 31.7558 56.1801 27.4647C51.889 23.1736 46.0689 20.7629 40.0005 20.7629C33.9321 20.7629 28.112 23.1736 23.8209 27.4647C19.5298 31.7558 17.1191 37.5759 17.1191 43.6443C17.1191 45.6475 17.5137 47.6311 18.2803 49.4818C19.0469 51.3326 20.1705 53.0142 21.587 54.4307C23.0035 55.8472 24.6851 56.9707 26.5359 57.7374C28.3865 58.5039 30.3702 58.8985 32.3734 58.8985H47.6276ZM40.0005 26.8646C35.5502 26.8646 31.2822 28.6324 28.1354 31.7792C24.9886 34.926 23.2208 39.194 23.2208 43.6443C23.2208 44.8462 23.4576 46.0363 23.9175 47.1468C24.3775 48.2573 25.0516 49.2662 25.9016 50.1161C26.7514 50.966 27.7603 51.6401 28.8709 52.1002C29.9814 52.5601 31.1715 52.7968 32.3734 52.7968H47.6276C48.8295 52.7968 50.0196 52.5601 51.1301 52.1002C52.2406 51.6401 53.2496 50.966 54.0994 50.1161C54.9493 49.2662 55.6234 48.2573 56.0835 47.1468C56.5434 46.0363 56.7802 44.8462 56.7802 43.6443C56.7802 39.194 55.0123 34.926 51.8655 31.7792C48.7188 28.6324 44.4508 26.8646 40.0005 26.8646Z" fill="#3064E8"/>
<path fill-rule="evenodd" clip-rule="evenodd" d="M29.3227 66.5256C26.7185 66.5256 24.1399 65.9337 21.7339 64.7838C19.328 63.634 17.1419 61.9485 15.3004 59.8238C13.459 57.699 11.9983 55.1767 11.0017 52.4006C10.0051 49.6245 9.49219 46.649 9.49219 43.6442C9.49219 35.5529 12.7065 27.7929 18.4279 22.0715C24.1494 16.35 31.9094 13.1357 40.0007 13.1357C48.092 13.1357 55.852 16.35 61.5734 22.0715C67.2949 27.7929 70.5091 35.5529 70.5091 43.6442C70.5091 46.649 69.9961 49.6245 68.9996 52.4006C68.003 55.1767 66.5423 57.699 64.7009 59.8238C62.8594 61.9485 60.6734 63.634 58.2675 64.7838C55.8614 65.9337 53.2828 66.5256 50.6786 66.5256H29.3227ZM22.7425 26.386C27.3197 21.8089 33.5275 19.2374 40.0007 19.2374C46.4738 19.2374 52.6817 21.8089 57.2589 26.386C61.836 30.9632 64.4074 37.1711 64.4074 43.6442C64.4074 45.9597 64.0114 48.2368 63.2568 50.339C62.5022 52.441 61.414 54.2999 60.0899 55.8276C58.7673 57.3537 57.2448 58.5098 55.6363 59.2786C54.0317 60.0456 52.35 60.4239 50.6786 60.4239H29.3227C27.6513 60.4239 25.9697 60.0456 24.3651 59.2786C22.7565 58.5098 21.234 57.3537 19.9114 55.8276C18.5874 54.2999 17.4992 52.441 16.7446 50.339C15.9899 48.2368 15.5939 45.9597 15.5939 43.6442C15.5939 37.1711 18.1653 30.9632 22.7425 26.386Z" fill="#3064E8"/>
<path d="M47.6275 51.2712H39.9936C39.4811 51.2708 38.9723 51.2186 38.4749 51.1172C37.5108 50.9204 36.589 50.5378 35.763 49.9858C34.5087 49.1477 33.531 47.9567 32.9538 46.5629C32.7666 46.1109 32.6241 45.6443 32.5273 45.1696C32.3253 44.1803 32.3209 43.1558 32.5198 42.1561C32.8141 40.6766 33.5405 39.3176 34.6072 38.251C35.6738 37.1843 37.0328 36.4579 38.5123 36.1636C38.5587 36.1543 38.6049 36.1456 38.6512 36.1372C39.0983 36.057 39.5499 36.017 40.0003 36.017C40.9972 36.017 41.9892 36.2124 42.9191 36.5976C44.3127 37.1748 45.5039 38.1525 46.342 39.4067C47.1802 40.661 47.6275 42.1356 47.6275 43.6441H41.5258C41.5258 43.3424 41.4364 43.0475 41.2687 42.7966C41.1011 42.5458 40.8628 42.3503 40.5841 42.2348C40.3054 42.1193 39.9987 42.0891 39.7027 42.148C39.4068 42.2069 39.135 42.3521 38.9217 42.5655C38.7083 42.7788 38.5631 43.0506 38.5042 43.3465C38.4453 43.6425 38.4755 43.9492 38.591 44.2279C38.7065 44.5066 38.902 44.7449 39.1528 44.9125C39.4037 45.0802 39.6986 45.1696 40.0003 45.1696H47.6275C47.8277 45.1696 48.0262 45.13 48.2112 45.0535C48.3963 44.9767 48.5644 44.8645 48.7061 44.7228C48.8478 44.581 48.9601 44.4129 49.0368 44.2279C49.1134 44.0429 49.1529 43.8444 49.1529 43.6441C49.1529 41.2167 48.1887 38.8888 46.4721 37.1724C44.7557 35.4558 42.4277 34.4916 40.0003 34.4916C39.737 34.4916 39.475 34.5029 39.2147 34.5253C38.5751 34.5804 37.9463 34.7024 37.3385 34.8873C36.7403 35.069 36.1624 35.3117 35.6137 35.6112C34.9852 35.9545 34.3952 36.3724 33.8574 36.8594C33.7455 36.9606 33.6358 37.065 33.5286 37.1724C32.7776 37.9232 32.1706 38.7913 31.7254 39.7334C31.5028 40.2045 31.3205 40.694 31.1811 41.1967C31.0215 41.7715 30.9178 42.3634 30.8731 42.9644C30.8563 43.1899 30.8478 43.4165 30.8478 43.6441C30.8478 44.8402 31.0822 46.0308 31.5445 47.1467C32.2373 48.8191 33.4103 50.2485 34.9155 51.2542C34.924 51.26 34.9326 51.2656 34.9411 51.2712H32.3732C31.3716 51.2712 30.3798 51.074 29.4545 50.6907C28.5291 50.3073 27.6883 49.7455 26.9801 49.0373C26.2718 48.329 25.71 47.4882 25.3267 46.5629C24.9433 45.6376 24.7461 44.6457 24.7461 43.6441C24.7461 39.5984 26.3533 35.7185 29.2139 32.8577C32.0747 29.9971 35.9546 28.3899 40.0003 28.3899C44.0461 28.3899 47.926 29.9971 50.7868 32.8577C53.6474 35.7185 55.2546 39.5984 55.2546 43.6441C55.2546 44.6457 55.0573 45.6376 54.674 46.5629C54.2907 47.4882 53.7288 48.329 53.0206 49.0373C52.3123 49.7455 51.4715 50.3073 50.5462 50.6907C49.6209 51.074 48.629 51.2712 47.6275 51.2712Z" fill="#3064E8"/>
</svg>
