<svg width="81" height="80" viewBox="0 0 81 80" fill="none" xmlns="http://www.w3.org/2000/svg">
<path d="M2.71191 48.5007H20.0678V31.1448H2.71191V48.5007ZM16.8136 38.1278H13.1526V34.4668H16.8136V38.1278ZM6.10174 34.4668H9.76276V41.5177H16.8136V45.1787H6.10174V34.4668ZM31.4577 31.1448C29.7628 31.1448 28.0678 31.6871 26.6441 32.6363C25.2204 33.5855 24.0678 34.9414 23.4577 36.5685C22.7797 38.1278 22.6441 39.8905 22.9831 41.5855C23.3221 43.2804 24.1356 44.8397 25.356 46.06C26.5763 47.2804 28.1356 48.0939 29.8306 48.4329C31.5255 48.7719 33.2882 48.5685 34.8475 47.9583C36.4068 47.2804 37.7628 46.1956 38.7797 44.7719C39.7289 43.3482 40.2712 41.6532 40.2712 39.9583C40.2712 37.6532 39.3221 35.416 37.695 33.7888C36 32.0261 33.7628 31.1448 31.4577 31.1448ZM31.4577 45.1787C30.3729 45.1787 29.356 44.8397 28.4746 44.2973C27.5933 43.6871 26.9153 42.8736 26.5085 41.9244C26.1017 40.9753 25.9662 39.8905 26.2373 38.8058C26.4407 37.7888 26.9831 36.8397 27.7289 36.0939C28.4746 35.3482 29.4238 34.8058 30.4407 34.6024C31.4577 34.399 32.5424 34.5346 33.5594 34.8736C34.5085 35.2804 35.3899 35.9583 35.9323 36.8397C36.5424 37.721 36.8136 38.738 36.8136 39.8227C36.8136 41.2465 36.2712 42.6024 35.2543 43.6194C34.2373 44.6363 32.8814 45.1787 31.4577 45.1787ZM71.2543 31.1448C69.5594 31.1448 67.8645 31.6871 66.4407 32.6363C65.017 33.5855 63.8645 34.9414 63.2543 36.5685C62.5763 38.1278 62.4407 39.8905 62.7797 41.5855C63.1187 43.2804 63.9323 44.8397 65.1526 46.06C66.3729 47.2804 67.9323 48.0939 69.6272 48.4329C71.3221 48.7719 73.0848 48.5685 74.6441 47.9583C76.2034 47.2804 77.5594 46.1956 78.5763 44.7719C79.5255 43.3482 80.0678 41.6532 80.0678 39.9583C80.0678 37.6532 79.1187 35.416 77.4916 33.7888C75.7967 32.0261 73.5594 31.1448 71.2543 31.1448ZM71.2543 45.1787C70.1695 45.1787 69.1526 44.8397 68.2712 44.2973C67.3899 43.6871 66.7119 42.8736 66.3051 41.9244C65.8984 40.9753 65.7628 39.8905 66.034 38.8058C66.2373 37.7888 66.7797 36.8397 67.5255 36.0939C68.2712 35.3482 69.2204 34.8058 70.2373 34.6024C71.2543 34.399 72.339 34.5346 73.356 34.8736C74.3051 35.2804 75.1865 35.9583 75.7289 36.8397C76.339 37.721 76.6102 38.738 76.6102 39.8227C76.6102 41.2465 76.0678 42.6024 75.0509 43.6194C74.034 44.6363 72.678 45.1787 71.2543 45.1787ZM51.3899 31.1448C49.695 31.1448 48 31.6871 46.5763 32.6363C45.1526 33.5855 44 34.9414 43.3899 36.5685C42.7119 38.1278 42.5763 39.8905 42.9153 41.5855C43.2543 43.2804 44.0678 44.8397 45.2882 46.06C46.5085 47.2804 48.0678 48.0939 49.7628 48.4329C51.4577 48.7719 53.2204 48.5685 54.7797 47.9583C56.339 47.2804 57.695 46.1956 58.7119 44.7719C59.6611 43.3482 60.2034 41.6532 60.2034 39.9583C60.2034 37.6532 59.2543 35.416 57.6272 33.7888C55.8645 32.0261 53.695 31.1448 51.3899 31.1448ZM51.3899 45.1787C50.3729 45.1787 49.4238 44.9075 48.6102 44.3651C47.7967 43.8227 47.1187 43.1448 46.6441 42.2634C46.1695 41.3821 45.9662 40.4329 46.1017 39.416C46.1695 38.4668 46.5085 37.5177 47.1187 36.7041C47.7289 35.8905 48.4746 35.2804 49.4238 34.8736C50.3051 34.4668 51.3221 34.399 52.2712 34.5346C53.2204 34.6702 54.1695 35.077 54.9153 35.7549C55.6611 36.3651 56.2034 37.2465 56.5424 38.1278H51.4577V41.5177H56.5424C56.2034 42.6024 55.5255 43.4838 54.5763 44.1617C53.5594 44.8397 52.4746 45.1787 51.3899 45.1787Z" fill="#1B1B1D"/>
</svg>
