<svg width="1040" height="588" viewBox="0 0 1040 588" fill="none" xmlns="http://www.w3.org/2000/svg">
<path d="M7.06749 101.813C7.06749 103.75 5.48897 105.314 3.5338 105.314C1.57864 105.314 0 103.742 0 101.813C0 99.876 1.58665 98.3122 3.5338 98.3122C5.48096 98.3042 7.06749 99.876 7.06749 101.813Z" fill="#0066CC"/>
<path d="M34.4873 146.42C34.4873 148.357 32.9008 149.921 30.9536 149.921C28.9984 149.921 27.4199 148.349 27.4199 146.42C27.4199 144.483 28.9984 142.919 30.9536 142.919C32.9088 142.919 34.4873 144.483 34.4873 146.42Z" fill="#0066CC"/>
<path d="M61.2335 96.2319C61.2335 98.1689 59.6549 99.7328 57.6997 99.7328C55.7445 99.7328 54.166 98.1689 54.166 96.2319C54.166 94.2949 55.7525 92.723 57.6997 92.723C59.6469 92.723 61.2335 94.2949 61.2335 96.2319Z" fill="#0066CC"/>
<path d="M69.9537 149.921C71.9054 149.921 73.4874 148.353 73.4874 146.42C73.4874 144.486 71.9054 142.919 69.9537 142.919C68.0021 142.919 66.4199 144.486 66.4199 146.42C66.4199 148.353 68.0021 149.921 69.9537 149.921Z" fill="#0066CC"/>
<path d="M92.5267 116.571C92.5267 118.508 90.9401 120.072 88.985 120.072C87.0298 120.072 85.4512 118.5 85.4512 116.571C85.4512 114.634 87.0298 113.07 88.985 113.07C90.9401 113.07 92.5267 114.634 92.5267 116.571Z" fill="#0066CC"/>
<path d="M54.1611 121.453C54.1611 123.39 52.5746 124.954 50.6274 124.954C48.6723 124.954 47.0938 123.382 47.0938 121.453C47.0938 119.516 48.6803 117.952 50.6274 117.952C52.5746 117.944 54.1611 119.516 54.1611 121.453Z" fill="#0066CC"/>
<path d="M104.827 177.889C106.778 177.889 108.36 176.321 108.36 174.388C108.36 172.454 106.778 170.887 104.827 170.887C102.875 170.887 101.293 172.454 101.293 174.388C101.293 176.321 102.875 177.889 104.827 177.889Z" fill="#0066CC"/>
<path d="M104.827 200.3C106.778 200.3 108.36 198.732 108.36 196.799C108.36 194.865 106.778 193.298 104.827 193.298C102.875 193.298 101.293 194.865 101.293 196.799C101.293 198.732 102.875 200.3 104.827 200.3Z" fill="#0066CC"/>
<path d="M130.434 123.581C132.386 123.581 133.968 122.013 133.968 120.08C133.968 118.146 132.386 116.579 130.434 116.579C128.482 116.579 126.9 118.146 126.9 120.08C126.9 122.013 128.482 123.581 130.434 123.581Z" fill="#0066CC"/>
<path d="M121.007 96.2319C121.007 98.1689 119.428 99.7328 117.473 99.7328C115.518 99.7328 113.939 98.1689 113.939 96.2319C113.939 94.2949 115.526 92.723 117.473 92.723C119.42 92.723 121.007 94.2949 121.007 96.2319Z" fill="#0066CC"/>
<path d="M142.624 142.165C142.624 144.102 141.037 145.666 139.09 145.666C137.135 145.666 135.557 144.094 135.557 142.165C135.557 140.228 137.143 138.656 139.09 138.656C141.037 138.656 142.624 140.228 142.624 142.165Z" fill="#0066CC"/>
<path d="M142.991 195.012C142.991 196.95 141.405 198.513 139.45 198.513C137.495 198.513 135.916 196.942 135.916 195.012C135.916 193.075 137.503 191.512 139.45 191.512C141.405 191.512 142.991 193.083 142.991 195.012Z" fill="#0066CC"/>
<path d="M195.936 181.398C197.888 181.398 199.47 179.83 199.47 177.897C199.47 175.963 197.888 174.396 195.936 174.396C193.985 174.396 192.402 175.963 192.402 177.897C192.402 179.83 193.985 181.398 195.936 181.398Z" fill="#0066CC"/>
<path d="M198.499 126.803C198.499 128.741 196.921 130.304 194.965 130.304C193.01 130.304 191.432 128.741 191.432 126.803C191.432 124.866 193.018 123.302 194.965 123.302C196.913 123.302 198.499 124.874 198.499 126.803Z" fill="#0066CC"/>
<path d="M164.549 114.348C166.501 114.348 168.083 112.78 168.083 110.847C168.083 108.913 166.501 107.346 164.549 107.346C162.598 107.346 161.016 108.913 161.016 110.847C161.016 112.78 162.598 114.348 164.549 114.348Z" fill="#0066CC"/>
<path d="M135.547 76.3853C137.499 76.3853 139.081 74.8178 139.081 72.8843C139.081 70.9508 137.499 69.3834 135.547 69.3834C133.596 69.3834 132.014 70.9508 132.014 72.8843C132.014 74.8178 133.596 76.3853 135.547 76.3853Z" fill="#0066CC"/>
<path d="M165.851 71.0985C165.851 73.0356 164.272 74.5994 162.317 74.5994C160.362 74.5994 158.783 73.0276 158.783 71.0985C158.783 69.1615 160.37 67.5975 162.317 67.5975C164.272 67.5975 165.851 69.1615 165.851 71.0985Z" fill="#0066CC"/>
<path d="M171.656 94.3186C171.656 96.2556 170.069 97.8196 168.114 97.8196C166.159 97.8196 164.58 96.2556 164.58 94.3186C164.58 92.3816 166.167 90.8097 168.114 90.8097C170.069 90.8097 171.656 92.3736 171.656 94.3186Z" fill="#0066CC"/>
<path d="M148.394 95.3827C148.394 97.3197 146.807 98.8837 144.86 98.8837C142.905 98.8837 141.318 97.3197 141.318 95.3827C141.318 93.4456 142.897 91.8738 144.86 91.8738C146.807 91.8738 148.394 93.4456 148.394 95.3827Z" fill="#0066CC"/>
<path d="M210.214 110.204C210.214 112.141 208.628 113.705 206.672 113.705C204.717 113.705 203.139 112.133 203.139 110.204C203.139 108.267 204.717 106.703 206.672 106.703C208.628 106.703 210.214 108.267 210.214 110.204Z" fill="#0066CC"/>
<path d="M233.634 107.338C233.634 109.275 232.055 110.839 230.1 110.839C228.145 110.839 226.566 109.275 226.566 107.338C226.566 105.401 228.153 103.829 230.1 103.829C232.055 103.829 233.634 105.401 233.634 107.338Z" fill="#0066CC"/>
<path d="M233.633 66.4545C235.585 66.4545 237.167 64.8872 237.167 62.9536C237.167 61.0201 235.585 59.4526 233.633 59.4526C231.682 59.4526 230.1 61.0201 230.1 62.9536C230.1 64.8872 231.682 66.4545 233.633 66.4545Z" fill="#0066CC"/>
<path d="M290.962 7.63706C290.962 9.57408 289.384 11.1379 287.428 11.1379C285.473 11.1379 283.895 9.57408 283.895 7.63706C283.895 5.70003 285.481 4.12817 287.428 4.12817C289.384 4.12817 290.962 5.69209 290.962 7.63706Z" fill="#0066CC"/>
<path d="M304.252 30.9684C306.204 30.9684 307.786 29.4011 307.786 27.4676C307.786 25.534 306.204 23.9666 304.252 23.9666C302.301 23.9666 300.719 25.534 300.719 27.4676C300.719 29.4011 302.301 30.9684 304.252 30.9684Z" fill="#0066CC"/>
<path d="M326.808 65.2157C326.808 67.1528 325.221 68.7167 323.274 68.7167C321.319 68.7167 319.74 67.1448 319.74 65.2157C319.74 63.2787 321.319 61.7148 323.274 61.7148C325.221 61.7148 326.808 63.2787 326.808 65.2157Z" fill="#0066CC"/>
<path d="M330.344 120.072C332.296 120.072 333.878 118.504 333.878 116.571C333.878 114.637 332.296 113.07 330.344 113.07C328.393 113.07 326.811 114.637 326.811 116.571C326.811 118.504 328.393 120.072 330.344 120.072Z" fill="#0066CC"/>
<path d="M335.752 153.207C337.704 153.207 339.286 151.64 339.286 149.706C339.286 147.773 337.704 146.206 335.752 146.206C333.801 146.206 332.219 147.773 332.219 149.706C332.219 151.64 333.801 153.207 335.752 153.207Z" fill="#0066CC"/>
<path d="M358.974 120.08C358.974 122.017 357.387 123.581 355.432 123.581C353.477 123.581 351.898 122.009 351.898 120.08C351.898 118.143 353.477 116.579 355.432 116.579C357.387 116.571 358.974 118.143 358.974 120.08Z" fill="#0066CC"/>
<path d="M377.674 107.092C379.626 107.092 381.208 105.525 381.208 103.591C381.208 101.658 379.626 100.09 377.674 100.09C375.723 100.09 374.141 101.658 374.141 103.591C374.141 105.525 375.723 107.092 377.674 107.092Z" fill="#0066CC"/>
<path d="M402.5 99.0582C404.452 99.0582 406.034 97.4908 406.034 95.5573C406.034 93.6238 404.452 92.0564 402.5 92.0564C400.549 92.0564 398.967 93.6238 398.967 95.5573C398.967 97.4908 400.549 99.0582 402.5 99.0582Z" fill="#0066CC"/>
<path d="M433.478 128.344C433.478 130.281 431.891 131.845 429.944 131.845C427.989 131.845 426.41 130.281 426.41 128.344C426.41 126.407 427.989 124.843 429.944 124.843C431.899 124.843 433.478 126.415 433.478 128.344Z" fill="#0066CC"/>
<path d="M415.706 155.097C417.657 155.097 419.239 153.53 419.239 151.596C419.239 149.663 417.657 148.095 415.706 148.095C413.754 148.095 412.172 149.663 412.172 151.596C412.172 153.53 413.754 155.097 415.706 155.097Z" fill="#0066CC"/>
<path d="M418.015 134.6C418.015 136.537 416.428 138.101 414.473 138.101C412.518 138.101 410.939 136.529 410.939 134.6C410.939 132.663 412.518 131.099 414.473 131.099C416.428 131.099 418.015 132.663 418.015 134.6Z" fill="#0066CC"/>
<path d="M498.079 168.092C500.03 168.092 501.612 166.525 501.612 164.591C501.612 162.658 500.03 161.09 498.079 161.09C496.127 161.09 494.545 162.658 494.545 164.591C494.545 166.525 496.127 168.092 498.079 168.092Z" fill="#0066CC"/>
<path d="M514.241 142.165C514.241 144.102 512.655 145.666 510.708 145.666C508.752 145.666 507.174 144.094 507.174 142.165C507.174 140.228 508.752 138.656 510.708 138.656C512.655 138.656 514.241 140.228 514.241 142.165Z" fill="#0066CC"/>
<path d="M532.255 114.777C532.255 116.714 530.676 118.277 528.721 118.277C526.766 118.277 525.188 116.706 525.188 114.777C525.188 112.84 526.766 111.268 528.721 111.268C530.676 111.268 532.255 112.84 532.255 114.777Z" fill="#0066CC"/>
<path d="M556.026 98.5582C556.026 100.495 554.448 102.059 552.493 102.059C550.538 102.059 548.959 100.487 548.959 98.5582C548.959 96.6212 550.538 95.0493 552.493 95.0493C554.448 95.0493 556.026 96.6212 556.026 98.5582Z" fill="#0066CC"/>
<path d="M579.53 110.847C581.481 110.847 583.063 109.28 583.063 107.346C583.063 105.413 581.481 103.845 579.53 103.845C577.578 103.845 575.996 105.413 575.996 107.346C575.996 109.28 577.578 110.847 579.53 110.847Z" fill="#0066CC"/>
<path d="M571.975 142.157C573.927 142.157 575.509 140.59 575.509 138.656C575.509 136.723 573.927 135.155 571.975 135.155C570.024 135.155 568.441 136.723 568.441 138.656C568.441 140.59 570.024 142.157 571.975 142.157Z" fill="#0066CC"/>
<path d="M544.878 135.155C544.878 137.092 543.292 138.656 541.344 138.656C539.389 138.656 537.803 137.084 537.803 135.155C537.803 133.218 539.389 131.654 541.344 131.654C543.292 131.646 544.878 133.218 544.878 135.155Z" fill="#0066CC"/>
<path d="M532.68 187.153C534.632 187.153 536.214 185.586 536.214 183.652C536.214 181.719 534.632 180.151 532.68 180.151C530.729 180.151 529.146 181.719 529.146 183.652C529.146 185.586 530.729 187.153 532.68 187.153Z" fill="#0066CC"/>
<path d="M516.106 175.984C518.058 175.984 519.64 174.416 519.64 172.483C519.64 170.549 518.058 168.982 516.106 168.982C514.154 168.982 512.572 170.549 512.572 172.483C512.572 174.416 514.154 175.984 516.106 175.984Z" fill="#0066CC"/>
<path d="M574.722 168.981C574.722 170.918 573.143 172.482 571.188 172.482C569.233 172.482 567.654 170.91 567.654 168.981C567.654 167.044 569.233 165.48 571.188 165.48C573.143 165.472 574.722 167.044 574.722 168.981Z" fill="#0066CC"/>
<path d="M535.036 230.617C536.987 230.617 538.569 229.049 538.569 227.116C538.569 225.182 536.987 223.615 535.036 223.615C533.084 223.615 531.502 225.182 531.502 227.116C531.502 229.049 533.084 230.617 535.036 230.617Z" fill="#0066CC"/>
<path d="M500.9 208.222C500.9 210.159 499.313 211.723 497.366 211.723C495.411 211.723 493.824 210.151 493.824 208.222C493.824 206.285 495.411 204.721 497.366 204.721C499.313 204.721 500.9 206.285 500.9 208.222Z" fill="#0066CC"/>
<path d="M482.87 223.607C482.87 225.544 481.292 227.108 479.336 227.108C477.381 227.108 475.803 225.536 475.803 223.607C475.803 221.67 477.389 220.106 479.336 220.106C481.292 220.106 482.87 221.67 482.87 223.607Z" fill="#0066CC"/>
<path d="M460.009 252.456C460.009 254.393 458.422 255.957 456.467 255.957C454.512 255.957 452.934 254.393 452.934 252.456C452.934 250.527 454.52 248.955 456.467 248.955C458.43 248.955 460.009 250.527 460.009 252.456Z" fill="#0066CC"/>
<path d="M459.273 289.22C459.273 291.149 457.686 292.721 455.739 292.721C453.784 292.721 452.197 291.149 452.197 289.22C452.197 287.283 453.784 285.719 455.739 285.719C457.686 285.711 459.273 287.283 459.273 289.22Z" fill="#0066CC"/>
<path d="M489.73 263.911C489.73 265.84 488.143 267.412 486.196 267.412C484.241 267.412 482.654 265.84 482.654 263.911C482.654 261.974 484.241 260.41 486.196 260.41C488.143 260.41 489.73 261.974 489.73 263.911Z" fill="#0066CC"/>
<path d="M536.935 300.667C536.935 302.597 535.356 304.168 533.401 304.168C531.454 304.168 529.867 302.597 529.867 300.667C529.867 298.73 531.454 297.159 533.401 297.159C535.356 297.159 536.935 298.73 536.935 300.667Z" fill="#0066CC"/>
<path d="M572.688 230.617C574.64 230.617 576.222 229.049 576.222 227.116C576.222 225.182 574.64 223.615 572.688 223.615C570.736 223.615 569.154 225.182 569.154 227.116C569.154 229.049 570.736 230.617 572.688 230.617Z" fill="#F53523"/>
<path d="M586.449 188.233C586.449 190.17 584.862 191.734 582.915 191.734C580.96 191.734 579.373 190.17 579.373 188.233C579.373 186.296 580.96 184.724 582.915 184.724C584.862 184.724 586.449 186.296 586.449 188.233Z" fill="#0066CC"/>
<path d="M602.536 234.102C602.536 236.039 600.958 237.603 599.003 237.603C597.055 237.603 595.469 236.039 595.469 234.102C595.469 232.165 597.055 230.593 599.003 230.593C600.958 230.593 602.536 232.157 602.536 234.102Z" fill="#F53523"/>
<path d="M617.138 252.912C617.138 254.849 615.559 256.413 613.604 256.413C611.657 256.413 610.07 254.849 610.07 252.912C610.07 250.975 611.657 249.403 613.604 249.403C615.559 249.403 617.138 250.967 617.138 252.912Z" fill="#F53523"/>
<path d="M578.042 245.354C578.042 247.291 576.464 248.855 574.508 248.855C572.561 248.855 570.975 247.291 570.975 245.354C570.975 243.417 572.561 241.845 574.508 241.845C576.464 241.845 578.042 243.409 578.042 245.354Z" fill="#F53523"/>
<path d="M603.788 217.013C603.788 218.95 602.21 220.514 600.255 220.514C598.307 220.514 596.721 218.95 596.721 217.013C596.721 215.076 598.307 213.504 600.255 213.504C602.21 213.504 603.788 215.068 603.788 217.013Z" fill="#F53523"/>
<path d="M579.95 208.511C579.95 210.448 578.372 212.012 576.417 212.012C574.469 212.012 572.883 210.448 572.883 208.511C572.883 206.574 574.469 205.002 576.417 205.002C578.372 205.002 579.95 206.566 579.95 208.511Z" fill="#F53523"/>
<path d="M635.124 259.228C635.124 261.157 633.545 262.729 631.59 262.729C629.635 262.729 628.057 261.157 628.057 259.228C628.057 257.291 629.635 255.727 631.59 255.727C633.545 255.727 635.124 257.291 635.124 259.228Z" fill="#0066CC"/>
<path d="M640.413 289.927C642.364 289.927 643.946 288.359 643.946 286.426C643.946 284.492 642.364 282.925 640.413 282.925C638.461 282.925 636.879 284.492 636.879 286.426C636.879 288.359 638.461 289.927 640.413 289.927Z" fill="#0066CC"/>
<path d="M669.911 305.391C669.911 307.32 668.333 308.884 666.377 308.884C664.422 308.884 662.844 307.32 662.844 305.391C662.844 303.446 664.422 301.882 666.377 301.882C668.333 301.882 669.911 303.446 669.911 305.391Z" fill="#0066CC"/>
<path d="M693.661 314.282C693.661 316.211 692.083 317.783 690.127 317.783C688.172 317.783 686.594 316.211 686.594 314.282C686.594 312.345 688.172 310.773 690.127 310.773C692.083 310.773 693.661 312.345 693.661 314.282Z" fill="#0066CC"/>
<path d="M700.735 341.782C700.735 343.711 699.157 345.283 697.202 345.283C695.246 345.283 693.668 343.719 693.668 341.782C693.668 339.837 695.246 338.273 697.202 338.273C699.157 338.273 700.735 339.837 700.735 341.782Z" fill="#0066CC"/>
<path d="M717.171 333.565C717.171 335.503 715.585 337.066 713.629 337.066C711.682 337.066 710.096 335.503 710.096 333.565C710.096 331.628 711.682 330.064 713.629 330.064C715.577 330.057 717.171 331.628 717.171 333.565Z" fill="#0066CC"/>
<path d="M729.896 319.275C729.896 321.212 728.309 322.776 726.354 322.776C724.407 322.776 722.82 321.212 722.82 319.275C722.82 317.338 724.407 315.774 726.354 315.774C728.301 315.774 729.896 317.338 729.896 319.275Z" fill="#0066CC"/>
<path d="M748.534 294.88C748.534 296.817 746.956 298.381 745 298.381C743.045 298.381 741.467 296.817 741.467 294.88C741.467 292.943 743.045 291.379 745 291.379C746.948 291.371 748.534 292.943 748.534 294.88Z" fill="#0066CC"/>
<path d="M760.05 324.999C760.05 326.928 758.471 328.5 756.516 328.5C754.561 328.5 752.982 326.928 752.982 324.999C752.982 323.062 754.561 321.491 756.516 321.491C758.471 321.483 760.05 323.062 760.05 324.999Z" fill="#0066CC"/>
<path d="M783.157 348.561C783.157 350.49 781.579 352.062 779.624 352.062C777.676 352.062 776.09 350.49 776.09 348.561C776.09 346.624 777.676 345.052 779.624 345.052C781.579 345.052 783.157 346.624 783.157 348.561Z" fill="#0066CC"/>
<path d="M767.468 379.061C767.468 380.998 765.881 382.562 763.934 382.562C761.979 382.562 760.393 380.998 760.393 379.061C760.393 377.124 761.979 375.56 763.934 375.56C765.881 375.56 767.468 377.124 767.468 379.061Z" fill="#0066CC"/>
<path d="M767.506 395.987C769.458 395.987 771.04 394.419 771.04 392.486C771.04 390.552 769.458 388.985 767.506 388.985C765.555 388.985 763.973 390.552 763.973 392.486C763.973 394.419 765.555 395.987 767.506 395.987Z" fill="#0066CC"/>
<path d="M785.344 403.838C787.296 403.838 788.878 402.271 788.878 400.337C788.878 398.404 787.296 396.836 785.344 396.836C783.393 396.836 781.811 398.404 781.811 400.337C781.811 402.271 783.393 403.838 785.344 403.838Z" fill="#0066CC"/>
<path d="M798.487 395.208C800.439 395.208 802.02 393.641 802.02 391.707C802.02 389.774 800.439 388.207 798.487 388.207C796.535 388.207 794.953 389.774 794.953 391.707C794.953 393.641 796.535 395.208 798.487 395.208Z" fill="#0066CC"/>
<path d="M820.44 397.836C820.44 399.773 818.862 401.337 816.907 401.337C814.951 401.337 813.373 399.773 813.373 397.836C813.373 395.899 814.951 394.335 816.907 394.335C818.862 394.335 820.44 395.899 820.44 397.836Z" fill="#0066CC"/>
<path d="M822.831 374.592C822.831 376.521 821.253 378.093 819.297 378.093C817.342 378.093 815.764 376.521 815.764 374.592C815.764 372.655 817.342 371.083 819.297 371.083C821.253 371.075 822.831 372.655 822.831 374.592Z" fill="#0066CC"/>
<path d="M870.412 401.337C872.364 401.337 873.946 399.769 873.946 397.836C873.946 395.902 872.364 394.335 870.412 394.335C868.461 394.335 866.879 395.902 866.879 397.836C866.879 399.769 868.461 401.337 870.412 401.337Z" fill="#0066CC"/>
<path d="M894.138 397.836C894.138 399.765 892.559 401.337 890.604 401.337C888.649 401.337 887.07 399.765 887.07 397.836C887.07 395.899 888.649 394.327 890.604 394.327C892.551 394.327 894.138 395.899 894.138 397.836Z" fill="#0066CC"/>
<path d="M892.655 418.127C894.607 418.127 896.189 416.56 896.189 414.626C896.189 412.693 894.607 411.126 892.655 411.126C890.703 411.126 889.121 412.693 889.121 414.626C889.121 416.56 890.703 418.127 892.655 418.127Z" fill="#0066CC"/>
<path d="M909.997 413.84C909.997 415.777 908.411 417.341 906.456 417.341C904.509 417.341 902.922 415.777 902.922 413.84C902.922 411.903 904.509 410.339 906.456 410.339C908.411 410.339 909.997 411.903 909.997 413.84Z" fill="#0066CC"/>
<path d="M895.635 447.842C897.587 447.842 899.169 446.274 899.169 444.341C899.169 442.407 897.587 440.84 895.635 440.84C893.684 440.84 892.102 442.407 892.102 444.341C892.102 446.274 893.684 447.842 895.635 447.842Z" fill="#0066CC"/>
<path d="M871.421 436.005C871.421 437.934 869.834 439.506 867.887 439.506C865.932 439.506 864.346 437.934 864.346 436.005C864.346 434.068 865.932 432.496 867.887 432.496C869.826 432.496 871.421 434.068 871.421 436.005Z" fill="#0066CC"/>
<path d="M839.417 444.341C839.417 446.27 837.839 447.842 835.883 447.842C833.936 447.842 832.35 446.27 832.35 444.341C832.35 442.404 833.936 440.832 835.883 440.832C837.831 440.824 839.417 442.404 839.417 444.341Z" fill="#0066CC"/>
<path d="M816.907 462.798C816.907 464.727 815.329 466.299 813.374 466.299C811.418 466.299 809.84 464.727 809.84 462.798C809.84 460.861 811.418 459.289 813.374 459.289C815.329 459.289 816.907 460.861 816.907 462.798Z" fill="#0066CC"/>
<path d="M815.264 491.305C817.216 491.305 818.798 489.738 818.798 487.804C818.798 485.871 817.216 484.303 815.264 484.303C813.313 484.303 811.73 485.871 811.73 487.804C811.73 489.738 813.313 491.305 815.264 491.305Z" fill="#0066CC"/>
<path d="M847.452 489.591C847.452 491.52 845.873 493.092 843.918 493.092C841.963 493.092 840.385 491.52 840.385 489.591C840.385 487.654 841.963 486.082 843.918 486.082C845.873 486.082 847.452 487.654 847.452 489.591Z" fill="#0066CC"/>
<path d="M877.188 491.306C877.188 493.243 875.61 494.807 873.655 494.807C871.699 494.807 870.121 493.243 870.121 491.306C870.121 489.369 871.699 487.805 873.655 487.805C875.61 487.805 877.188 489.369 877.188 491.306Z" fill="#0066CC"/>
<path d="M889.121 505.889C891.073 505.889 892.655 504.321 892.655 502.388C892.655 500.454 891.073 498.887 889.121 498.887C887.17 498.887 885.588 500.454 885.588 502.388C885.588 504.321 887.17 505.889 889.121 505.889Z" fill="#0066CC"/>
<path d="M905.669 509.397C905.669 511.335 904.083 512.899 902.136 512.899C900.18 512.899 898.594 511.335 898.594 509.397C898.594 507.46 900.18 505.897 902.136 505.897C904.083 505.897 905.669 507.46 905.669 509.397Z" fill="#0066CC"/>
<path d="M917.985 498.307C919.937 498.307 921.519 496.74 921.519 494.807C921.519 492.873 919.937 491.306 917.985 491.306C916.033 491.306 914.451 492.873 914.451 494.807C914.451 496.74 916.033 498.307 917.985 498.307Z" fill="#0066CC"/>
<path d="M923.513 471.427C923.513 473.356 921.926 474.92 919.979 474.92C918.024 474.92 916.438 473.356 916.438 471.427C916.438 469.482 918.024 467.918 919.979 467.918C921.918 467.918 923.513 469.482 923.513 471.427Z" fill="#0066CC"/>
<path d="M902.71 459.297C902.71 461.226 901.131 462.798 899.176 462.798C897.229 462.798 895.643 461.226 895.643 459.297C895.643 457.36 897.229 455.788 899.176 455.788C901.131 455.78 902.71 457.352 902.71 459.297Z" fill="#0066CC"/>
<path d="M870.412 467.911C872.364 467.911 873.946 466.343 873.946 464.41C873.946 462.476 872.364 460.909 870.412 460.909C868.461 460.909 866.879 462.476 866.879 464.41C866.879 466.343 868.461 467.911 870.412 467.911Z" fill="#0066CC"/>
<path d="M846.491 467.918C846.491 469.847 844.905 471.419 842.95 471.419C841.002 471.419 839.416 469.847 839.416 467.918C839.416 465.981 841.002 464.409 842.95 464.409C844.905 464.402 846.491 465.981 846.491 467.918Z" fill="#0066CC"/>
<path d="M857.195 447.842C857.195 449.771 855.616 451.343 853.661 451.343C851.706 451.343 850.127 449.771 850.127 447.842C850.127 445.905 851.706 444.333 853.661 444.333C855.616 444.333 857.195 445.905 857.195 447.842Z" fill="#0066CC"/>
<path d="M894.139 487.796C896.091 487.796 897.673 486.229 897.673 484.295C897.673 482.362 896.091 480.794 894.139 480.794C892.187 480.794 890.605 482.362 890.605 484.295C890.605 486.229 892.187 487.796 894.139 487.796Z" fill="#0066CC"/>
<path d="M827.166 478.421C829.118 478.421 830.7 476.854 830.7 474.92C830.7 472.987 829.118 471.419 827.166 471.419C825.215 471.419 823.633 472.987 823.633 474.92C823.633 476.854 825.215 478.421 827.166 478.421Z" fill="#0066CC"/>
<path d="M799.88 317.783C799.88 319.712 798.301 321.284 796.346 321.284C794.391 321.284 792.812 319.712 792.812 317.783C792.812 315.846 794.391 314.274 796.346 314.274C798.301 314.274 799.88 315.846 799.88 317.783Z" fill="#0066CC"/>
<path d="M825.651 308.892C825.651 310.821 824.073 312.385 822.118 312.385C820.162 312.385 818.584 310.821 818.584 308.892C818.584 306.947 820.162 305.383 822.118 305.383C824.065 305.383 825.651 306.947 825.651 308.892Z" fill="#0066CC"/>
<path d="M826.372 281.083C826.372 283.012 824.794 284.584 822.838 284.584C820.883 284.584 819.305 283.012 819.305 281.083C819.305 279.146 820.883 277.574 822.838 277.574C824.786 277.574 826.372 279.146 826.372 281.083Z" fill="#0066CC"/>
<path d="M842.95 251.154C842.95 253.083 841.372 254.655 839.417 254.655C837.469 254.655 835.883 253.091 835.883 251.154C835.883 249.209 837.469 247.646 839.417 247.646C841.372 247.646 842.95 249.209 842.95 251.154Z" fill="#0066CC"/>
<path d="M879.642 237.603C879.642 239.54 878.063 241.104 876.108 241.104C874.161 241.104 872.574 239.532 872.574 237.603C872.574 235.666 874.161 234.094 876.108 234.094C878.063 234.094 879.642 235.666 879.642 237.603Z" fill="#0066CC"/>
<path d="M889.091 209.746C889.091 211.683 887.512 213.247 885.557 213.247C883.61 213.247 882.023 211.676 882.023 209.746C882.023 207.809 883.61 206.238 885.557 206.238C887.512 206.238 889.091 207.801 889.091 209.746Z" fill="#0066CC"/>
<path d="M885.546 179.945C885.546 181.882 883.967 183.446 882.012 183.446C880.065 183.446 878.479 181.882 878.479 179.945C878.479 178.008 880.065 176.444 882.012 176.444C883.967 176.436 885.546 178.008 885.546 179.945Z" fill="#0066CC"/>
<path d="M921.429 161.543C921.429 163.48 919.85 165.044 917.895 165.044C915.94 165.044 914.361 163.48 914.361 161.543C914.361 159.598 915.94 158.034 917.895 158.034C919.85 158.034 921.429 159.598 921.429 161.543Z" fill="#0066CC"/>
<path d="M944.38 149.309C944.38 151.246 942.801 152.81 940.846 152.81C938.891 152.81 937.312 151.246 937.312 149.309C937.312 147.364 938.891 145.801 940.846 145.801C942.801 145.801 944.38 147.364 944.38 149.309Z" fill="#0066CC"/>
<path d="M989.667 151.628C989.667 153.565 988.089 155.129 986.133 155.129C984.178 155.129 982.6 153.565 982.6 151.628C982.6 149.683 984.178 148.119 986.133 148.119C988.081 148.119 989.667 149.691 989.667 151.628Z" fill="#0066CC"/>
<path d="M946.476 207.825C946.476 209.762 944.897 211.326 942.942 211.326C940.987 211.326 939.408 209.762 939.408 207.825C939.408 205.88 940.987 204.316 942.942 204.316C944.897 204.324 946.476 205.888 946.476 207.825Z" fill="#0066CC"/>
<path d="M991.257 118.421C991.257 120.358 989.678 121.922 987.723 121.922C985.768 121.922 984.189 120.358 984.189 118.421C984.189 116.484 985.768 114.92 987.723 114.92C989.678 114.92 991.257 116.484 991.257 118.421Z" fill="#0066CC"/>
<path d="M1040 121.929C1040 123.866 1038.42 125.43 1036.47 125.43C1034.51 125.43 1032.93 123.858 1032.93 121.929C1032.93 119.992 1034.51 118.42 1036.47 118.42C1038.41 118.42 1040 119.984 1040 121.929Z" fill="#0066CC"/>
<path d="M993.202 97.812C993.202 99.749 991.623 101.313 989.668 101.313C987.713 101.313 986.135 99.7411 986.135 97.812C986.135 95.875 987.713 94.3031 989.668 94.3031C991.623 94.3031 993.202 95.875 993.202 97.812Z" fill="#0066CC"/>
<path d="M958.833 101.313C958.833 103.25 957.254 104.814 955.299 104.814C953.344 104.814 951.766 103.25 951.766 101.313C951.766 99.3679 953.344 97.804 955.299 97.804C957.254 97.804 958.833 99.3758 958.833 101.313Z" fill="#0066CC"/>
<path d="M922.951 85.0305C922.951 86.9675 921.364 88.5315 919.409 88.5315C917.462 88.5315 915.867 86.9596 915.867 85.0305C915.867 83.0935 917.454 81.5216 919.409 81.5216C921.364 81.5216 922.951 83.0935 922.951 85.0305Z" fill="#0066CC"/>
<path d="M873.657 85.9198C873.657 87.8569 872.079 89.4208 870.124 89.4208C868.168 89.4208 866.59 87.8569 866.59 85.9198C866.59 83.9828 868.168 82.4189 870.124 82.4189C872.079 82.4189 873.657 83.9828 873.657 85.9198Z" fill="#0066CC"/>
<path d="M848.806 64.255C848.806 66.192 847.227 67.7559 845.272 67.7559C843.317 67.7559 841.738 66.1841 841.738 64.255C841.738 62.318 843.317 60.7461 845.272 60.7461C847.227 60.7461 848.806 62.318 848.806 64.255Z" fill="#0066CC"/>
<path d="M823.567 64.255C823.567 66.192 821.989 67.7559 820.034 67.7559C818.087 67.7559 816.5 66.192 816.5 64.255C816.5 62.31 818.087 60.7461 820.034 60.7461C821.989 60.7461 823.567 62.31 823.567 64.255Z" fill="#0066CC"/>
<path d="M790.787 61.8181C790.787 63.7551 789.2 65.3189 787.245 65.3189C785.298 65.3189 783.711 63.7551 783.711 61.8181C783.711 59.881 785.298 58.3172 787.245 58.3172C789.2 58.3092 790.787 59.881 790.787 61.8181Z" fill="#0066CC"/>
<path d="M809.447 36.891C809.447 38.828 807.86 40.3918 805.905 40.3918C803.958 40.3918 802.371 38.828 802.371 36.891C802.371 34.946 803.958 33.3821 805.905 33.3821C807.86 33.3821 809.447 34.9539 809.447 36.891Z" fill="#0066CC"/>
<path d="M787.245 20.0451C787.245 21.9822 785.666 23.546 783.711 23.546C781.764 23.546 780.178 21.9822 780.178 20.0451C780.178 18.1002 781.764 16.5363 783.711 16.5363C785.658 16.5363 787.245 18.1002 787.245 20.0451Z" fill="#0066CC"/>
<path d="M746.642 44.575C746.642 46.5121 745.063 48.0759 743.108 48.0759C741.153 48.0759 739.574 46.5121 739.574 44.575C739.574 42.6301 741.153 41.0662 743.108 41.0662C745.063 41.0741 746.642 42.638 746.642 44.575Z" fill="#0066CC"/>
<path d="M732.364 71.7257C732.364 73.6627 730.786 75.2266 728.831 75.2266C726.884 75.2266 725.297 73.6627 725.297 71.7257C725.297 69.7807 726.884 68.2168 728.831 68.2168C730.786 68.2247 732.364 69.7887 732.364 71.7257Z" fill="#0066CC"/>
<path d="M715.696 82.4188C715.696 84.3558 714.118 85.9197 712.163 85.9197C710.207 85.9197 708.629 84.3558 708.629 82.4188C708.629 80.4738 710.207 78.9099 712.163 78.9099C714.118 78.9099 715.696 80.4738 715.696 82.4188Z" fill="#0066CC"/>
<path d="M704.839 93.4696C704.839 95.4066 703.26 96.9705 701.305 96.9705C699.35 96.9705 697.771 95.4066 697.771 93.4696C697.771 91.5246 699.35 89.9607 701.305 89.9607C703.252 89.9607 704.839 91.5246 704.839 93.4696Z" fill="#0066CC"/>
<path d="M712.165 118.285C712.165 120.223 710.579 121.786 708.632 121.786C706.676 121.786 705.09 120.215 705.09 118.285C705.09 116.348 706.676 114.777 708.632 114.777C710.571 114.777 712.165 116.341 712.165 118.285Z" fill="#0066CC"/>
<path d="M673.179 109.672C673.179 111.609 671.6 113.173 669.645 113.173C667.69 113.173 666.111 111.601 666.111 109.672C666.111 107.735 667.69 106.163 669.645 106.163C671.6 106.163 673.179 107.727 673.179 109.672Z" fill="#0066CC"/>
<path d="M635.124 111.276C635.124 113.213 633.545 114.777 631.59 114.777C629.635 114.777 628.057 113.205 628.057 111.276C628.057 109.339 629.635 107.767 631.59 107.767C633.545 107.767 635.124 109.339 635.124 111.276Z" fill="#0066CC"/>
<path d="M606.626 132.853C606.626 134.79 605.047 136.354 603.092 136.354C601.137 136.354 599.559 134.782 599.559 132.853C599.559 130.916 601.137 129.344 603.092 129.344C605.047 129.344 606.626 130.908 606.626 132.853Z" fill="#0066CC"/>
<path d="M643.946 77.2906C643.946 79.2276 642.368 80.7915 640.413 80.7915C638.458 80.7915 636.879 79.2197 636.879 77.2906C636.879 75.3536 638.458 73.7817 640.413 73.7817C642.368 73.7817 643.946 75.3536 643.946 77.2906Z" fill="#0066CC"/>
<path d="M647.479 49.2906C647.479 51.2276 645.901 52.7916 643.946 52.7916C641.991 52.7916 640.412 51.2197 640.412 49.2906C640.412 47.3536 641.991 45.7817 643.946 45.7817C645.901 45.7817 647.479 47.3536 647.479 49.2906Z" fill="#0066CC"/>
<path d="M680.257 25.6895C680.257 27.6266 678.678 29.1904 676.723 29.1904C674.776 29.1904 673.189 27.6266 673.189 25.6895C673.189 23.7446 674.776 22.1807 676.723 22.1807C678.678 22.1807 680.257 23.7446 680.257 25.6895Z" fill="#0066CC"/>
<path d="M619.837 165.481C619.837 167.418 618.259 168.982 616.303 168.982C614.348 168.982 612.77 167.418 612.77 165.481C612.77 163.536 614.348 161.972 616.303 161.972C618.259 161.972 619.837 163.536 619.837 165.481Z" fill="#0066CC"/>
<path d="M625.975 216.995C627.927 216.995 629.509 215.427 629.509 213.494C629.509 211.56 627.927 209.993 625.975 209.993C624.024 209.993 622.441 211.56 622.441 213.494C622.441 215.427 624.024 216.995 625.975 216.995Z" fill="#F53523"/>
<path d="M655.561 231.843C657.513 231.843 659.095 230.275 659.095 228.342C659.095 226.408 657.513 224.841 655.561 224.841C653.61 224.841 652.027 226.408 652.027 228.342C652.027 230.275 653.61 231.843 655.561 231.843Z" fill="#F53523"/>
<path d="M628.862 241.29C630.814 241.29 632.396 239.722 632.396 237.789C632.396 235.855 630.814 234.288 628.862 234.288C626.91 234.288 625.328 235.855 625.328 237.789C625.328 239.722 626.91 241.29 628.862 241.29Z" fill="#F53523"/>
<path d="M651.024 161.09C651.024 163.027 649.446 164.591 647.491 164.591C645.536 164.591 643.957 163.027 643.957 161.09C643.957 159.145 645.536 157.582 647.491 157.582C649.446 157.582 651.024 159.153 651.024 161.09Z" fill="#0066CC"/>
<path d="M641.462 189.661C641.462 191.598 639.883 193.162 637.928 193.162C635.973 193.162 634.395 191.598 634.395 189.661C634.395 187.717 635.973 186.153 637.928 186.153C639.883 186.153 641.462 187.717 641.462 189.661Z" fill="#0066CC"/>
<path d="M614.075 192.639C614.075 194.576 612.489 196.14 610.542 196.14C608.586 196.14 607 194.576 607 192.639C607 190.702 608.586 189.138 610.542 189.138C612.489 189.13 614.075 190.702 614.075 192.639Z" fill="#0066CC"/>
<path d="M638.075 135.155C638.075 137.092 636.497 138.656 634.542 138.656C632.594 138.656 631.008 137.092 631.008 135.155C631.008 133.21 632.594 131.646 634.542 131.646C636.489 131.646 638.075 133.21 638.075 135.155Z" fill="#0066CC"/>
<path d="M680.257 144.618C680.257 146.555 678.678 148.119 676.723 148.119C674.776 148.119 673.189 146.555 673.189 144.618C673.189 142.673 674.776 141.109 676.723 141.109C678.678 141.109 680.257 142.673 680.257 144.618Z" fill="#0066CC"/>
<path d="M665.854 206.237C665.854 208.174 664.276 209.738 662.321 209.738C660.374 209.738 658.787 208.174 658.787 206.237C658.787 204.292 660.374 202.729 662.321 202.729C664.276 202.729 665.854 204.3 665.854 206.237Z" fill="#0066CC"/>
<path d="M727.61 142.165C727.61 144.102 726.032 145.666 724.077 145.666C722.121 145.666 720.543 144.094 720.543 142.165C720.543 140.228 722.121 138.656 724.077 138.656C726.032 138.656 727.61 140.228 727.61 142.165Z" fill="#0066CC"/>
<path d="M739.447 180.151C739.447 182.088 737.86 183.652 735.905 183.652C733.958 183.652 732.371 182.088 732.371 180.151C732.371 178.214 733.958 176.65 735.905 176.65C737.86 176.642 739.447 178.206 739.447 180.151Z" fill="#0066CC"/>
<path d="M715.363 162.212C715.363 164.149 713.776 165.713 711.821 165.713C709.874 165.713 708.287 164.149 708.287 162.212C708.287 160.275 709.874 158.711 711.821 158.711C713.776 158.703 715.363 160.267 715.363 162.212Z" fill="#0066CC"/>
<path d="M740.156 217.005C740.156 218.942 738.569 220.506 736.614 220.506C734.667 220.506 733.08 218.942 733.08 217.005C733.08 215.068 734.667 213.504 736.614 213.504C738.569 213.496 740.156 215.06 740.156 217.005Z" fill="#0066CC"/>
<path d="M740.156 121.59C740.156 123.527 738.569 125.091 736.614 125.091C734.667 125.091 733.08 123.527 733.08 121.59C733.08 119.653 734.667 118.089 736.614 118.089C738.569 118.081 740.156 119.645 740.156 121.59Z" fill="#0066CC"/>
<path d="M777.708 136.354C777.708 138.291 776.13 139.855 774.175 139.855C772.22 139.855 770.633 138.291 770.633 136.354C770.633 134.409 772.212 132.845 774.175 132.845C776.13 132.845 777.708 134.409 777.708 136.354Z" fill="#0066CC"/>
<path d="M761.665 100.408C761.665 102.345 760.087 103.909 758.131 103.909C756.176 103.909 754.598 102.337 754.598 100.408C754.598 98.4708 756.176 96.8989 758.131 96.8989C760.087 96.8989 761.665 98.4708 761.665 100.408Z" fill="#0066CC"/>
<path d="M763.47 58.3093C763.47 60.2463 761.891 61.8102 759.936 61.8102C757.989 61.8102 756.402 60.2463 756.402 58.3093C756.402 56.3643 757.989 54.8004 759.936 54.8004C761.891 54.8084 763.47 56.3723 763.47 58.3093Z" fill="#0066CC"/>
<path d="M743.109 145.666C743.109 147.603 741.53 149.167 739.575 149.167C737.62 149.167 736.041 147.595 736.041 145.666C736.041 143.729 737.62 142.157 739.575 142.157C741.53 142.157 743.109 143.729 743.109 145.666Z" fill="#0066CC"/>
<path d="M688.411 172.491C688.411 174.428 686.833 175.992 684.877 175.992C682.922 175.992 681.344 174.42 681.344 172.491C681.344 170.554 682.922 168.982 684.877 168.982C686.833 168.982 688.411 170.554 688.411 172.491Z" fill="#0066CC"/>
<path d="M694.333 148.111C696.284 148.111 697.866 146.544 697.866 144.61C697.866 142.677 696.284 141.109 694.333 141.109C692.381 141.109 690.799 142.677 690.799 144.61C690.799 146.544 692.381 148.111 694.333 148.111Z" fill="#0066CC"/>
<path d="M708.618 208.428C708.618 210.365 707.032 211.929 705.077 211.929C703.129 211.929 701.543 210.365 701.543 208.428C701.543 206.491 703.129 204.927 705.077 204.927C707.032 204.927 708.618 206.491 708.618 208.428Z" fill="#0066CC"/>
<path d="M686.161 225.211C686.161 227.148 684.583 228.712 682.627 228.712C680.68 228.712 679.094 227.14 679.094 225.211C679.094 223.274 680.68 221.702 682.627 221.702C684.575 221.71 686.161 223.274 686.161 225.211Z" fill="#0066CC"/>
<path d="M682.618 202.728C682.618 204.665 681.04 206.229 679.084 206.229C677.137 206.229 675.551 204.657 675.551 202.728C675.551 200.791 677.137 199.219 679.084 199.219C681.04 199.219 682.618 200.791 682.618 202.728Z" fill="#0066CC"/>
<path d="M651.024 249.225C651.024 251.154 649.446 252.718 647.491 252.718C645.536 252.718 643.957 251.154 643.957 249.225C643.957 247.28 645.536 245.716 647.491 245.716C649.446 245.709 651.024 247.28 651.024 249.225Z" fill="#0066CC"/>
<path d="M708.372 248.225C708.372 250.154 706.794 251.726 704.838 251.726C702.883 251.726 701.305 250.154 701.305 248.225C701.305 246.288 702.883 244.716 704.838 244.716C706.794 244.708 708.372 246.288 708.372 248.225Z" fill="#0066CC"/>
<path d="M777.708 193.583C777.708 195.52 776.13 197.084 774.175 197.084C772.22 197.084 770.633 195.512 770.633 193.583C770.633 191.646 772.212 190.074 774.175 190.074C776.13 190.082 777.708 191.646 777.708 193.583Z" fill="#0066CC"/>
<path d="M816.524 118.285C816.524 120.223 814.946 121.786 812.991 121.786C811.036 121.786 809.457 120.215 809.457 118.285C809.457 116.348 811.036 114.777 812.991 114.777C814.946 114.777 816.524 116.341 816.524 118.285Z" fill="#0066CC"/>
<path d="M794.329 92.9138C794.329 94.8508 792.743 96.4147 790.796 96.4147C788.84 96.4147 787.254 94.8429 787.254 92.9138C787.254 90.9768 788.84 89.4049 790.796 89.4049C792.735 89.4049 794.329 90.9768 794.329 92.9138Z" fill="#0066CC"/>
<path d="M802.364 177.134C802.364 179.071 800.778 180.635 798.823 180.635C796.876 180.635 795.289 179.063 795.289 177.134C795.289 175.197 796.876 173.625 798.823 173.625C800.77 173.625 802.364 175.197 802.364 177.134Z" fill="#0066CC"/>
<path d="M777.421 281.893C779.372 281.893 780.954 280.325 780.954 278.392C780.954 276.458 779.372 274.891 777.421 274.891C775.469 274.891 773.887 276.458 773.887 278.392C773.887 280.325 775.469 281.893 777.421 281.893Z" fill="#0066CC"/>
<path d="M772.549 244.573C774.501 244.573 776.083 243.006 776.083 241.072C776.083 239.139 774.501 237.571 772.549 237.571C770.598 237.571 769.016 239.139 769.016 241.072C769.016 243.006 770.598 244.573 772.549 244.573Z" fill="#0066CC"/>
<path d="M736.978 263.848C736.978 265.777 735.399 267.349 733.444 267.349C731.497 267.349 729.91 265.785 729.91 263.848C729.91 261.903 731.497 260.339 733.444 260.339C735.399 260.339 736.978 261.903 736.978 263.848Z" fill="#0066CC"/>
<path d="M818.575 225.211C818.575 227.148 816.989 228.712 815.042 228.712C813.086 228.712 811.5 227.148 811.5 225.211C811.5 223.266 813.086 221.702 815.042 221.702C816.989 221.71 818.575 223.274 818.575 225.211Z" fill="#0066CC"/>
<path d="M832.342 193.583C834.294 193.583 835.876 192.016 835.876 190.082C835.876 188.149 834.294 186.581 832.342 186.581C830.391 186.581 828.809 188.149 828.809 190.082C828.809 192.016 830.391 193.583 832.342 193.583Z" fill="#0066CC"/>
<path d="M860.443 136.354C860.443 138.291 858.864 139.855 856.909 139.855C854.962 139.855 853.375 138.283 853.375 136.354C853.375 134.417 854.962 132.845 856.909 132.845C858.856 132.845 860.443 134.409 860.443 136.354Z" fill="#0066CC"/>
<path d="M827.099 153.946C827.099 155.883 825.52 157.447 823.565 157.447C821.618 157.447 820.031 155.883 820.031 153.946C820.031 152.009 821.618 150.445 823.565 150.445C825.52 150.445 827.099 152.009 827.099 153.946Z" fill="#0066CC"/>
<path d="M839.417 104.814C839.417 106.751 837.839 108.315 835.883 108.315C833.936 108.315 832.35 106.751 832.35 104.814C832.35 102.877 833.936 101.313 835.883 101.313C837.831 101.313 839.417 102.877 839.417 104.814Z" fill="#0066CC"/>
<path d="M922.951 122.977C922.951 124.914 921.364 126.478 919.409 126.478C917.462 126.478 915.867 124.906 915.867 122.977C915.867 121.04 917.454 119.469 919.409 119.469C921.364 119.469 922.951 121.04 922.951 122.977Z" fill="#0066CC"/>
<path d="M889.091 139.855C889.091 141.792 887.512 143.355 885.557 143.355C883.61 143.355 882.023 141.792 882.023 139.855C882.023 137.91 883.61 136.346 885.557 136.346C887.512 136.346 889.091 137.91 889.091 139.855Z" fill="#0066CC"/>
<path d="M889.091 108.323C889.091 110.26 887.512 111.823 885.557 111.823C883.61 111.823 882.023 110.252 882.023 108.323C882.023 106.386 883.61 104.814 885.557 104.814C887.512 104.814 889.091 106.386 889.091 108.323Z" fill="#0066CC"/>
<path d="M902.784 71.7257C902.784 73.6627 901.206 75.2266 899.25 75.2266C897.303 75.2266 895.717 73.6548 895.717 71.7257C895.717 69.7887 897.303 68.2168 899.25 68.2168C901.198 68.2247 902.784 69.7887 902.784 71.7257Z" fill="#0066CC"/>
<path d="M580.571 306.661C580.571 308.59 578.993 310.154 577.038 310.154C575.082 310.154 573.504 308.59 573.504 306.661C573.504 304.724 575.082 303.16 577.038 303.16C578.993 303.16 580.571 304.724 580.571 306.661Z" fill="#0066CC"/>
<path d="M550.885 263.245C552.837 263.245 554.419 261.677 554.419 259.744C554.419 257.81 552.837 256.243 550.885 256.243C548.934 256.243 547.352 257.81 547.352 259.744C547.352 261.677 548.934 263.245 550.885 263.245Z" fill="#0066CC"/>
<path d="M501.614 326.349C503.565 326.349 505.147 324.781 505.147 322.848C505.147 320.914 503.565 319.347 501.614 319.347C499.662 319.347 498.08 320.914 498.08 322.848C498.08 324.781 499.662 326.349 501.614 326.349Z" fill="#0066CC"/>
<path d="M486.126 295.19C486.126 297.127 484.54 298.691 482.584 298.691C480.629 298.691 479.051 297.127 479.051 295.19C479.051 293.253 480.637 291.689 482.584 291.689C484.54 291.681 486.126 293.253 486.126 295.19Z" fill="#0066CC"/>
<path d="M459.739 318.14C461.69 318.14 463.272 316.573 463.272 314.639C463.272 312.706 461.69 311.138 459.739 311.138C457.787 311.138 456.205 312.706 456.205 314.639C456.205 316.573 457.787 318.14 459.739 318.14Z" fill="#0066CC"/>
<path d="M439.624 315.354C439.624 317.291 438.038 318.855 436.083 318.855C434.127 318.855 432.549 317.291 432.549 315.354C432.549 313.425 434.135 311.853 436.083 311.853C438.038 311.845 439.624 313.425 439.624 315.354Z" fill="#0066CC"/>
<path d="M432.997 341.782C432.997 343.711 431.419 345.283 429.463 345.283C427.508 345.283 425.93 343.719 425.93 341.782C425.93 339.845 427.516 338.273 429.463 338.273C431.419 338.273 432.997 339.845 432.997 341.782Z" fill="#0066CC"/>
<path d="M441.854 368.852C443.806 368.852 445.388 367.285 445.388 365.351C445.388 363.418 443.806 361.85 441.854 361.85C439.902 361.85 438.32 363.418 438.32 365.351C438.32 367.285 439.902 368.852 441.854 368.852Z" fill="#0066CC"/>
<path d="M482.327 363.922C482.327 365.859 480.749 367.415 478.794 367.415C476.838 367.415 475.26 365.859 475.26 363.922C475.26 361.985 476.846 360.421 478.794 360.421C480.741 360.421 482.327 361.985 482.327 363.922Z" fill="#0066CC"/>
<path d="M511.005 390.699C511.005 392.636 509.419 394.2 507.471 394.2C505.516 394.2 503.93 392.636 503.93 390.699C503.93 388.77 505.516 387.198 507.471 387.198C509.419 387.198 511.005 388.77 511.005 390.699Z" fill="#0066CC"/>
<path d="M515.138 435.33C515.138 437.26 513.551 438.831 511.596 438.831C509.641 438.831 508.062 437.267 508.062 435.33C508.062 433.393 509.649 431.822 511.596 431.822C513.551 431.822 515.138 433.393 515.138 435.33Z" fill="#0066CC"/>
<path d="M525.052 470.872C525.052 472.801 523.473 474.365 521.518 474.365C519.563 474.365 517.984 472.801 517.984 470.872C517.984 468.935 519.571 467.363 521.518 467.363C523.473 467.355 525.052 468.935 525.052 470.872Z" fill="#0066CC"/>
<path d="M555.675 487.503C555.675 489.432 554.096 490.996 552.141 490.996C550.194 490.996 548.607 489.432 548.607 487.503C548.607 485.566 550.194 483.994 552.141 483.994C554.096 483.994 555.675 485.566 555.675 487.503Z" fill="#0066CC"/>
<path d="M572.687 459.599C572.687 461.536 571.108 463.1 569.153 463.1C567.206 463.1 565.619 461.536 565.619 459.599C565.619 457.67 567.206 456.098 569.153 456.098C571.108 456.09 572.687 457.67 572.687 459.599Z" fill="#0066CC"/>
<path d="M586.71 426.138C586.71 428.075 585.124 429.638 583.168 429.638C581.221 429.638 579.635 428.075 579.635 426.138C579.635 424.209 581.221 422.637 583.168 422.637C585.124 422.637 586.71 424.209 586.71 426.138Z" fill="#0066CC"/>
<path d="M600.021 379.069C600.021 380.998 598.442 382.562 596.487 382.562C594.54 382.562 592.953 380.998 592.953 379.069C592.953 377.132 594.54 375.56 596.487 375.56C598.434 375.56 600.021 377.132 600.021 379.069Z" fill="#0066CC"/>
<path d="M620.183 358.913C620.183 360.85 618.604 362.414 616.649 362.414C614.702 362.414 613.115 360.85 613.115 358.913C613.115 356.984 614.702 355.412 616.649 355.412C618.604 355.412 620.183 356.984 620.183 358.913Z" fill="#0066CC"/>
<path d="M607.944 341.782C607.944 343.711 606.366 345.283 604.411 345.283C602.455 345.283 600.877 343.719 600.877 341.782C600.877 339.845 602.455 338.273 604.411 338.273C606.366 338.273 607.944 339.845 607.944 341.782Z" fill="#0066CC"/>
<path d="M636.415 327.92C636.415 329.857 634.837 331.421 632.881 331.421C630.926 331.421 629.348 329.857 629.348 327.92C629.348 325.991 630.926 324.419 632.881 324.419C634.829 324.412 636.415 325.991 636.415 327.92Z" fill="#0066CC"/>
<path d="M634.956 311.853C634.956 313.782 633.378 315.346 631.422 315.346C629.475 315.346 627.889 313.782 627.889 311.853C627.889 309.916 629.475 308.344 631.422 308.344C633.378 308.344 634.956 309.916 634.956 311.853Z" fill="#0066CC"/>
<path d="M614.075 291.371C614.075 293.309 612.489 294.872 610.542 294.872C608.586 294.872 607 293.309 607 291.371C607 289.434 608.586 287.871 610.542 287.871C612.489 287.871 614.075 289.434 614.075 291.371Z" fill="#0066CC"/>
<path d="M597.138 259.172C597.138 261.102 595.551 262.666 593.596 262.666C591.649 262.666 590.062 261.102 590.062 259.172C590.062 257.235 591.649 255.664 593.596 255.664C595.551 255.656 597.138 257.235 597.138 259.172Z" fill="#F53523"/>
<path d="M559.228 333.565C559.228 335.503 557.641 337.066 555.686 337.066C553.739 337.066 552.152 335.503 552.152 333.565C552.152 331.628 553.739 330.064 555.686 330.064C557.641 330.057 559.228 331.628 559.228 333.565Z" fill="#0066CC"/>
<path d="M520.855 343.211C520.855 345.14 519.276 346.711 517.321 346.711C515.366 346.711 513.787 345.14 513.787 343.211C513.787 341.274 515.374 339.702 517.321 339.702C519.268 339.694 520.855 341.274 520.855 343.211Z" fill="#0066CC"/>
<path d="M471.997 337.852C471.997 339.789 470.411 341.353 468.456 341.353C466.5 341.353 464.922 339.789 464.922 337.852C464.922 335.923 466.508 334.351 468.456 334.351C470.419 334.343 471.997 335.923 471.997 337.852Z" fill="#0066CC"/>
<path d="M552.079 393.573C552.079 395.51 550.501 397.074 548.545 397.074C546.59 397.074 545.012 395.51 545.012 393.573C545.012 391.644 546.59 390.072 548.545 390.072C550.501 390.072 552.079 391.644 552.079 393.573Z" fill="#0066CC"/>
<path d="M547.384 440.522C547.384 442.451 545.798 444.023 543.85 444.023C541.895 444.023 540.309 442.451 540.309 440.522C540.309 438.585 541.895 437.013 543.85 437.013C545.798 437.013 547.384 438.585 547.384 440.522Z" fill="#0066CC"/>
<path d="M571.247 359.278C571.247 361.207 569.669 362.779 567.713 362.779C565.758 362.779 564.18 361.207 564.18 359.278C564.18 357.341 565.758 355.769 567.713 355.769C569.661 355.769 571.247 357.341 571.247 359.278Z" fill="#0066CC"/>
<path d="M604.403 313.211C604.403 315.14 602.825 316.711 600.87 316.711C598.914 316.711 597.336 315.14 597.336 313.211C597.336 311.274 598.914 309.702 600.87 309.702C602.825 309.702 604.403 311.274 604.403 313.211Z" fill="#0066CC"/>
<path d="M396.338 74.1789C398.29 74.1789 399.872 72.6114 399.872 70.6779C399.872 68.7444 398.29 67.177 396.338 67.177C394.387 67.177 392.805 68.7444 392.805 70.6779C392.805 72.6114 394.387 74.1789 396.338 74.1789Z" fill="#0066CC"/>
<path d="M408.334 50.363C410.286 50.363 411.868 48.7955 411.868 46.862C411.868 44.9285 410.286 43.3611 408.334 43.3611C406.383 43.3611 404.801 44.9285 404.801 46.862C404.801 48.7955 406.383 50.363 408.334 50.363Z" fill="#0066CC"/>
<path d="M415.409 13.2258C415.409 15.1628 413.831 16.7268 411.875 16.7268C409.92 16.7268 408.342 15.1549 408.342 13.2258C408.342 11.2888 409.928 9.71692 411.875 9.71692C413.831 9.71692 415.409 11.2888 415.409 13.2258Z" fill="#0066CC"/>
<path d="M365.145 7.0019C367.097 7.0019 368.679 5.43452 368.679 3.50101C368.679 1.5675 367.097 0 365.145 0C363.193 0 361.611 1.5675 361.611 3.50101C361.611 5.43452 363.193 7.0019 365.145 7.0019Z" fill="#0066CC"/>
<path d="M326.167 7.00998C326.167 8.94701 324.581 10.511 322.625 10.511C320.67 10.511 319.092 8.94701 319.092 7.00998C319.092 5.07296 320.67 3.50122 322.625 3.50122C324.581 3.50122 326.167 5.06502 326.167 7.00998Z" fill="#0066CC"/>
<path d="M357.866 31.7149C357.866 33.6519 356.28 35.2159 354.333 35.2159C352.377 35.2159 350.799 33.644 350.799 31.7149C350.799 29.7779 352.385 28.214 354.333 28.214C356.28 28.2061 357.866 29.7779 357.866 31.7149Z" fill="#0066CC"/>
<path d="M332.474 41.2411C332.474 43.1781 330.895 44.7419 328.94 44.7419C326.985 44.7419 325.406 43.1781 325.406 41.2411C325.406 39.304 326.993 37.7322 328.94 37.7322C330.895 37.7322 332.474 39.304 332.474 41.2411Z" fill="#0066CC"/>
<path d="M358.974 70.6779C358.974 72.6149 357.387 74.1789 355.432 74.1789C353.477 74.1789 351.898 72.607 351.898 70.6779C351.898 68.7409 353.477 67.177 355.432 67.177C357.387 67.177 358.974 68.7409 358.974 70.6779Z" fill="#0066CC"/>
<path d="M386.314 35.2159C386.314 37.1529 384.735 38.7167 382.78 38.7167C380.825 38.7167 379.246 37.1449 379.246 35.2159C379.246 33.2788 380.833 31.7148 382.78 31.7148C384.735 31.7148 386.314 33.2788 386.314 35.2159Z" fill="#0066CC"/>
<path d="M354.325 92.7233C354.325 94.6603 352.739 96.2242 350.791 96.2242C348.836 96.2242 347.258 94.6603 347.258 92.7233C347.258 90.7863 348.836 89.2223 350.791 89.2223C352.747 89.2223 354.325 90.7942 354.325 92.7233Z" fill="#0066CC"/>
<path d="M374.983 66.6845C376.935 66.6845 378.517 65.117 378.517 63.1835C378.517 61.25 376.935 59.6826 374.983 59.6826C373.031 59.6826 371.449 61.25 371.449 63.1835C371.449 65.117 373.031 66.6845 374.983 66.6845Z" fill="#0066CC"/>
<path d="M231.053 90.7382C233.005 90.7382 234.587 89.1707 234.587 87.2372C234.587 85.3037 233.005 83.7363 231.053 83.7363C229.102 83.7363 227.52 85.3037 227.52 87.2372C227.52 89.1707 229.102 90.7382 231.053 90.7382Z" fill="#0066CC"/>
<path d="M258.71 94.2396C260.661 94.2396 262.243 92.6722 262.243 90.7387C262.243 88.8052 260.661 87.2377 258.71 87.2377C256.758 87.2377 255.176 88.8052 255.176 90.7387C255.176 92.6722 256.758 94.2396 258.71 94.2396Z" fill="#0066CC"/>
<path d="M266.656 128.955C266.656 130.892 265.069 132.456 263.114 132.456C261.159 132.456 259.58 130.884 259.58 128.955C259.58 127.018 261.159 125.446 263.114 125.446C265.069 125.446 266.656 127.018 266.656 128.955Z" fill="#0066CC"/>
<path d="M286.755 124.517C288.706 124.517 290.288 122.95 290.288 121.016C290.288 119.083 288.706 117.515 286.755 117.515C284.803 117.515 283.221 119.083 283.221 121.016C283.221 122.95 284.803 124.517 286.755 124.517Z" fill="#0066CC"/>
<path d="M276.938 143.371C278.89 143.371 280.472 141.804 280.472 139.87C280.472 137.937 278.89 136.369 276.938 136.369C274.986 136.369 273.404 137.937 273.404 139.87C273.404 141.804 274.986 143.371 276.938 143.371Z" fill="#0066CC"/>
<path d="M191.424 153.422C193.376 153.422 194.958 151.854 194.958 149.921C194.958 147.987 193.376 146.42 191.424 146.42C189.473 146.42 187.891 147.987 187.891 149.921C187.891 151.854 189.473 153.422 191.424 153.422Z" fill="#0066CC"/>
<path d="M157.471 169.95C159.423 169.95 161.005 168.383 161.005 166.449C161.005 164.515 159.423 162.948 157.471 162.948C155.52 162.948 153.938 164.515 153.938 166.449C153.938 168.383 155.52 169.95 157.471 169.95Z" fill="#0066CC"/>
<path d="M117.462 234.848C117.462 236.785 115.875 238.349 113.928 238.349C111.973 238.349 110.395 236.777 110.395 234.848C110.395 232.911 111.981 231.339 113.928 231.339C115.883 231.339 117.462 232.911 117.462 234.848Z" fill="#0066CC"/>
<path d="M124.54 265.714C124.54 267.651 122.962 269.223 121.006 269.223C119.051 269.223 117.473 267.651 117.473 265.714C117.473 263.785 119.059 262.221 121.006 262.221C122.962 262.213 124.54 263.785 124.54 265.714Z" fill="#0066CC"/>
<path d="M149.514 234.936C151.466 234.936 153.048 233.368 153.048 231.435C153.048 229.501 151.466 227.934 149.514 227.934C147.563 227.934 145.98 229.501 145.98 231.435C145.98 233.368 147.563 234.936 149.514 234.936Z" fill="#0066CC"/>
<path d="M154.964 285.711C154.964 287.64 153.377 289.212 151.43 289.212C149.475 289.212 147.896 287.64 147.896 285.711C147.896 283.774 149.483 282.202 151.43 282.202C153.377 282.202 154.964 283.774 154.964 285.711Z" fill="#0066CC"/>
<path d="M172.794 251.297C174.745 251.297 176.327 249.73 176.327 247.796C176.327 245.863 174.745 244.295 172.794 244.295C170.842 244.295 169.26 245.863 169.26 247.796C169.26 249.73 170.842 251.297 172.794 251.297Z" fill="#0066CC"/>
<path d="M176.327 193.719C176.327 195.656 174.741 197.219 172.794 197.219C170.838 197.219 169.26 195.656 169.26 193.719C169.26 191.782 170.846 190.21 172.794 190.21C174.741 190.21 176.327 191.782 176.327 193.719Z" fill="#0066CC"/>
<path d="M218.685 195.012C218.685 196.95 217.098 198.513 215.151 198.513C213.196 198.513 211.617 196.942 211.617 195.012C211.617 193.075 213.196 191.512 215.151 191.512C217.098 191.512 218.685 193.075 218.685 195.012Z" fill="#0066CC"/>
<path d="M242.466 217.439C242.466 219.376 240.879 220.94 238.932 220.94C236.977 220.94 235.398 219.368 235.398 217.439C235.398 215.502 236.985 213.938 238.932 213.938C240.887 213.938 242.466 215.51 242.466 217.439Z" fill="#0066CC"/>
<path d="M251.905 189.749C253.857 189.749 255.439 188.182 255.439 186.248C255.439 184.315 253.857 182.747 251.905 182.747C249.953 182.747 248.371 184.315 248.371 186.248C248.371 188.182 249.953 189.749 251.905 189.749Z" fill="#0066CC"/>
<path d="M251.905 156.93C253.857 156.93 255.439 155.363 255.439 153.429C255.439 151.496 253.857 149.929 251.905 149.929C249.953 149.929 248.371 151.496 248.371 153.429C248.371 155.363 249.953 156.93 251.905 156.93Z" fill="#0066CC"/>
<path d="M272.025 174.388C272.025 176.325 270.438 177.889 268.491 177.889C266.536 177.889 264.957 176.317 264.957 174.388C264.957 172.451 266.544 170.887 268.491 170.887C270.438 170.887 272.025 172.459 272.025 174.388Z" fill="#0066CC"/>
<path d="M291.434 187.447C293.386 187.447 294.968 185.879 294.968 183.946C294.968 182.012 293.386 180.445 291.434 180.445C289.483 180.445 287.9 182.012 287.9 183.946C287.9 185.879 289.483 187.447 291.434 187.447Z" fill="#0066CC"/>
<path d="M303.805 207.309C305.757 207.309 307.339 205.742 307.339 203.808C307.339 201.875 305.757 200.307 303.805 200.307C301.854 200.307 300.271 201.875 300.271 203.808C300.271 205.742 301.854 207.309 303.805 207.309Z" fill="#0066CC"/>
<path d="M272.025 222.869C272.025 224.806 270.438 226.37 268.491 226.37C266.536 226.37 264.957 224.798 264.957 222.869C264.957 220.932 266.536 219.36 268.491 219.36C270.438 219.36 272.025 220.932 272.025 222.869Z" fill="#0066CC"/>
<path d="M251.905 238.349C251.905 240.286 250.327 241.85 248.372 241.85C246.416 241.85 244.838 240.286 244.838 238.349C244.838 236.412 246.424 234.848 248.372 234.848C250.319 234.848 251.905 236.412 251.905 238.349Z" fill="#0066CC"/>
<path d="M231.727 234.841C233.679 234.841 235.261 233.273 235.261 231.34C235.261 229.406 233.679 227.839 231.727 227.839C229.775 227.839 228.193 229.406 228.193 231.34C228.193 233.273 229.775 234.841 231.727 234.841Z" fill="#0066CC"/>
<path d="M257.127 249.264C259.079 249.264 260.661 247.697 260.661 245.764C260.661 243.83 259.079 242.263 257.127 242.263C255.176 242.263 253.594 243.83 253.594 245.764C253.594 247.697 255.176 249.264 257.127 249.264Z" fill="#0066CC"/>
<path d="M254.476 255.012C254.476 256.941 252.889 258.513 250.934 258.513C248.979 258.513 247.4 256.941 247.4 255.012C247.4 253.075 248.987 251.511 250.934 251.511C252.889 251.511 254.476 253.075 254.476 255.012Z" fill="#0066CC"/>
<path d="M241.094 279.575C243.046 279.575 244.628 278.007 244.628 276.074C244.628 274.14 243.046 272.573 241.094 272.573C239.143 272.573 237.561 274.14 237.561 276.074C237.561 278.007 239.143 279.575 241.094 279.575Z" fill="#0066CC"/>
<path d="M213.267 286.672C213.267 288.601 211.688 290.172 209.733 290.172C207.778 290.172 206.199 288.601 206.199 286.672C206.199 284.735 207.786 283.171 209.733 283.171C211.688 283.163 213.267 284.727 213.267 286.672Z" fill="#0066CC"/>
<path d="M188.441 298.921C188.441 300.85 186.854 302.422 184.907 302.422C182.952 302.422 181.373 300.85 181.373 298.921C181.373 296.984 182.952 295.412 184.907 295.412C186.854 295.412 188.441 296.984 188.441 298.921Z" fill="#0066CC"/>
<path d="M183.266 330.651C185.218 330.651 186.8 329.084 186.8 327.151C186.8 325.217 185.218 323.65 183.266 323.65C181.314 323.65 179.732 325.217 179.732 327.151C179.732 329.084 181.314 330.651 183.266 330.651Z" fill="#0066CC"/>
<path d="M210.214 341.194C210.214 343.123 208.628 344.695 206.672 344.695C204.717 344.695 203.139 343.123 203.139 341.194C203.139 339.257 204.717 337.693 206.672 337.693C208.628 337.685 210.214 339.257 210.214 341.194Z" fill="#0066CC"/>
<path d="M228.411 357.151C228.411 359.08 226.825 360.644 224.878 360.644C222.922 360.644 221.344 359.08 221.344 357.151C221.344 355.214 222.93 353.65 224.878 353.65C226.825 353.65 228.411 355.214 228.411 357.151Z" fill="#0066CC"/>
<path d="M254.476 367.423C254.476 369.36 252.889 370.924 250.934 370.924C248.979 370.924 247.4 369.36 247.4 367.423C247.4 365.486 248.987 363.922 250.934 363.922C252.889 363.922 254.476 365.486 254.476 367.423Z" fill="#0066CC"/>
<path d="M270.286 364.153C272.237 364.153 273.819 362.585 273.819 360.652C273.819 358.718 272.237 357.151 270.286 357.151C268.334 357.151 266.752 358.718 266.752 360.652C266.752 362.585 268.334 364.153 270.286 364.153Z" fill="#0066CC"/>
<path d="M287.114 368.026C287.114 369.956 285.528 371.527 283.573 371.527C281.618 371.527 280.039 369.956 280.039 368.026C280.039 366.089 281.618 364.525 283.573 364.525C285.528 364.517 287.114 366.081 287.114 368.026Z" fill="#0066CC"/>
<path d="M297.26 375.243C299.212 375.243 300.794 373.675 300.794 371.742C300.794 369.808 299.212 368.241 297.26 368.241C295.309 368.241 293.727 369.808 293.727 371.742C293.727 373.675 295.309 375.243 297.26 375.243Z" fill="#0066CC"/>
<path d="M320.032 388.143C321.983 388.143 323.566 386.576 323.566 384.642C323.566 382.708 321.983 381.141 320.032 381.141C318.08 381.141 316.498 382.708 316.498 384.642C316.498 386.576 318.08 388.143 320.032 388.143Z" fill="#0066CC"/>
<path d="M245.767 395.336C245.767 397.273 244.18 398.837 242.225 398.837C240.27 398.837 238.691 397.273 238.691 395.336C238.691 393.399 240.278 391.835 242.225 391.835C244.18 391.835 245.767 393.399 245.767 395.336Z" fill="#0066CC"/>
<path d="M256.191 428.654C256.191 430.591 254.604 432.155 252.649 432.155C250.694 432.155 249.115 430.591 249.115 428.654C249.115 426.717 250.702 425.153 252.649 425.153C254.604 425.153 256.191 426.717 256.191 428.654Z" fill="#0066CC"/>
<path d="M281.575 456.034C281.575 457.971 279.997 459.535 278.034 459.535C276.079 459.535 274.5 457.971 274.5 456.034C274.5 454.097 276.087 452.533 278.034 452.533C279.997 452.533 281.575 454.097 281.575 456.034Z" fill="#0066CC"/>
<path d="M269.142 487.32C269.142 489.249 267.555 490.821 265.608 490.821C263.653 490.821 262.074 489.249 262.074 487.32C262.074 485.383 263.653 483.811 265.608 483.811C267.555 483.811 269.142 485.383 269.142 487.32Z" fill="#0066CC"/>
<path d="M258.059 529.173C260.011 529.173 261.593 527.605 261.593 525.672C261.593 523.738 260.011 522.171 258.059 522.171C256.107 522.171 254.525 523.738 254.525 525.672C254.525 527.605 256.107 529.173 258.059 529.173Z" fill="#0066CC"/>
<path d="M255.51 562.221C257.462 562.221 259.044 560.654 259.044 558.72C259.044 556.787 257.462 555.219 255.51 555.219C253.559 555.219 251.977 556.787 251.977 558.72C251.977 560.654 253.559 562.221 255.51 562.221Z" fill="#0066CC"/>
<path d="M265.608 587.609C267.56 587.609 269.142 586.042 269.142 584.108C269.142 582.175 267.56 580.607 265.608 580.607C263.656 580.607 262.074 582.175 262.074 584.108C262.074 586.042 263.656 587.609 265.608 587.609Z" fill="#0066CC"/>
<path d="M272.819 554.997C274.771 554.997 276.353 553.43 276.353 551.496C276.353 549.563 274.771 547.995 272.819 547.995C270.867 547.995 269.285 549.563 269.285 551.496C269.285 553.43 270.867 554.997 272.819 554.997Z" fill="#0066CC"/>
<path d="M276.352 522.163C278.304 522.163 279.886 520.596 279.886 518.662C279.886 516.729 278.304 515.161 276.352 515.161C274.4 515.161 272.818 516.729 272.818 518.662C272.818 520.596 274.4 522.163 276.352 522.163Z" fill="#0066CC"/>
<path d="M293.715 506.262C295.667 506.262 297.249 504.694 297.249 502.761C297.249 500.827 295.667 499.26 293.715 499.26C291.764 499.26 290.182 500.827 290.182 502.761C290.182 504.694 291.764 506.262 293.715 506.262Z" fill="#0066CC"/>
<path d="M307.349 490.821C307.349 492.75 305.762 494.314 303.815 494.314C301.86 494.314 300.281 492.75 300.281 490.821C300.281 488.884 301.868 487.312 303.815 487.312C305.762 487.312 307.349 488.884 307.349 490.821Z" fill="#0066CC"/>
<path d="M320.032 483.811C320.032 485.741 318.446 487.312 316.499 487.312C314.543 487.312 312.965 485.748 312.965 483.811C312.965 481.874 314.551 480.31 316.499 480.31C318.446 480.31 320.032 481.874 320.032 483.811Z" fill="#0066CC"/>
<path d="M324.71 463.489C326.661 463.489 328.243 461.921 328.243 459.988C328.243 458.054 326.661 456.487 324.71 456.487C322.758 456.487 321.176 458.054 321.176 459.988C321.176 461.921 322.758 463.489 324.71 463.489Z" fill="#0066CC"/>
<path d="M338.958 456.034C340.909 456.034 342.491 454.467 342.491 452.533C342.491 450.6 340.909 449.032 338.958 449.032C337.006 449.032 335.424 450.6 335.424 452.533C335.424 454.467 337.006 456.034 338.958 456.034Z" fill="#0066CC"/>
<path d="M354.808 432.163C354.808 434.1 353.221 435.664 351.266 435.664C349.311 435.664 347.732 434.1 347.732 432.163C347.732 430.226 349.319 428.662 351.266 428.662C353.229 428.654 354.808 430.226 354.808 432.163Z" fill="#0066CC"/>
<path d="M347.731 405.624C349.683 405.624 351.265 404.057 351.265 402.123C351.265 400.19 349.683 398.622 347.731 398.622C345.779 398.622 344.197 400.19 344.197 402.123C344.197 404.057 345.779 405.624 347.731 405.624Z" fill="#0066CC"/>
<path d="M288.676 397.463C290.628 397.463 292.21 395.896 292.21 393.962C292.21 392.029 290.628 390.461 288.676 390.461C286.725 390.461 285.143 392.029 285.143 393.962C285.143 395.896 286.725 397.463 288.676 397.463Z" fill="#0066CC"/>
<path d="M256.954 386.698C258.905 386.698 260.487 385.131 260.487 383.197C260.487 381.264 258.905 379.696 256.954 379.696C255.002 379.696 253.42 381.264 253.42 383.197C253.42 385.131 255.002 386.698 256.954 386.698Z" fill="#0066CC"/>
<path d="M298.766 428.654C300.718 428.654 302.3 427.087 302.3 425.153C302.3 423.22 300.718 421.652 298.766 421.652C296.814 421.652 295.232 423.22 295.232 425.153C295.232 427.087 296.814 428.654 298.766 428.654Z" fill="#0066CC"/>
<path d="M326.874 417.175C328.825 417.175 330.407 415.607 330.407 413.674C330.407 411.74 328.825 410.173 326.874 410.173C324.922 410.173 323.34 411.74 323.34 413.674C323.34 415.607 324.922 417.175 326.874 417.175Z" fill="#0066CC"/>
<path d="M283.437 417.175C283.437 419.112 281.85 420.676 279.895 420.676C277.94 420.676 276.361 419.112 276.361 417.175C276.361 415.238 277.948 413.674 279.895 413.674C281.85 413.674 283.437 415.238 283.437 417.175Z" fill="#0066CC"/>
<path d="M317.065 439.863C319.017 439.863 320.599 438.296 320.599 436.362C320.599 434.429 319.017 432.861 317.065 432.861C315.113 432.861 313.531 434.429 313.531 436.362C313.531 438.296 315.113 439.863 317.065 439.863Z" fill="#0066CC"/>
<path d="M284.27 485.645C286.222 485.645 287.804 484.078 287.804 482.144C287.804 480.211 286.222 478.643 284.27 478.643C282.319 478.643 280.736 480.211 280.736 482.144C280.736 484.078 282.319 485.645 284.27 485.645Z" fill="#0066CC"/>
<path d="M199.469 264.396C201.421 264.396 203.003 262.828 203.003 260.895C203.003 258.961 201.421 257.394 199.469 257.394C197.518 257.394 195.936 258.961 195.936 260.895C195.936 262.828 197.518 264.396 199.469 264.396Z" fill="#0066CC"/>
<path d="M154.963 267.437C156.915 267.437 158.497 265.869 158.497 263.936C158.497 262.002 156.915 260.435 154.963 260.435C153.012 260.435 151.43 262.002 151.43 263.936C151.43 265.869 153.012 267.437 154.963 267.437Z" fill="#0066CC"/>
<path d="M192.794 217.439C194.745 217.439 196.327 215.872 196.327 213.938C196.327 212.005 194.745 210.437 192.794 210.437C190.842 210.437 189.26 212.005 189.26 213.938C189.26 215.872 190.842 217.439 192.794 217.439Z" fill="#0066CC"/>
<path d="M3.50089 131.956C5.4344 131.956 7.00177 130.388 7.00177 128.455C7.00177 126.521 5.4344 124.954 3.50089 124.954C1.56738 124.954 0 126.521 0 128.455C0 130.388 1.56738 131.956 3.50089 131.956Z" fill="#0066CC"/>
<path d="M11.4403 164.512C13.3739 164.512 14.9412 162.945 14.9412 161.011C14.9412 159.078 13.3739 157.51 11.4403 157.51C9.50683 157.51 7.93945 159.078 7.93945 161.011C7.93945 162.945 9.50683 164.512 11.4403 164.512Z" fill="#0066CC"/>
</svg>
