<svg width="30" height="30" viewBox="0 0 30 30" fill="none" xmlns="http://www.w3.org/2000/svg">
<path d="M1 16.75C1 15.784 1.784 15 2.75 15H6.25C7.216 15 8 15.784 8 16.75V27.25C8 28.216 7.216 29 6.25 29H2.75C2.28587 29 1.84075 28.8156 1.51256 28.4874C1.18437 28.1593 1 27.7141 1 27.25V16.75ZM11.5 9.75C11.5 8.784 12.284 8 13.25 8H16.75C17.716 8 18.5 8.784 18.5 9.75V27.25C18.5 28.216 17.716 29 16.75 29H13.25C12.7859 29 12.3408 28.8156 12.0126 28.4874C11.6844 28.1593 11.5 27.7141 11.5 27.25V9.75ZM22 2.75C22 1.784 22.784 1 23.75 1H27.25C28.216 1 29 1.784 29 2.75V27.25C29 28.216 28.216 29 27.25 29H23.75C23.2859 29 22.8408 28.8156 22.5126 28.4874C22.1844 28.1593 22 27.7141 22 27.25V2.75Z" stroke="#107495" stroke-width="2" stroke-linecap="round" stroke-linejoin="round"/>
</svg>
