<svg width="30" height="30" viewBox="0 0 30 30" fill="none" xmlns="http://www.w3.org/2000/svg">
<path d="M16.1668 1.04893V1.93235C16.1668 2.45183 16.397 2.94331 16.7967 3.27615L18.4576 4.6604C19.145 5.23431 19.2896 6.23127 18.7935 6.97783L18.0004 8.16921C17.5685 8.81656 16.9331 9.30145 16.1948 9.54723L15.9724 9.62189C15.7215 9.7058 15.4933 9.84643 15.3055 10.0329C15.1177 10.2193 14.9754 10.4465 14.8897 10.6968C14.804 10.9472 14.7771 11.2139 14.8111 11.4763C14.8451 11.7387 14.9392 11.9898 15.086 12.21C15.6599 13.0732 15.3488 14.2428 14.422 14.7063L10.335 16.75L10.9928 18.397C11.1255 18.7316 11.1324 19.1029 11.0121 19.4421C10.8919 19.7813 10.6527 20.0653 10.339 20.2416C10.0252 20.4179 9.65823 20.4743 9.30603 20.4006C8.95383 20.3268 8.64034 20.1277 8.4237 19.8404L7.36775 18.4313C7.18879 18.1927 6.95184 18.0039 6.67941 17.8827C6.40697 17.7615 6.10809 17.712 5.81113 17.7388C5.51417 17.7656 5.22898 17.8679 4.98264 18.0359C4.73631 18.2039 4.53699 18.4321 4.40361 18.6988L3.33677 20.8327L2.38502 21.0706M16.1668 1.04893C13.7082 0.842589 11.2387 1.29145 9.00866 2.34708C6.77858 3.4027 4.86714 5.02913 3.46802 7.06156C2.0689 9.09398 1.23184 11.4602 1.04165 13.9204C0.851461 16.3805 1.3149 18.8473 2.38502 21.0706M16.1668 1.04893C18.6049 1.25228 20.947 2.09275 22.9597 3.48358C24.9725 4.87441 26.5856 6.76858 27.6382 8.97726C28.6908 11.1859 29.1462 13.632 28.9589 16.0715C28.7716 18.5111 27.9483 20.859 26.5709 22.881L26.2956 22.0583C26.0632 21.3615 25.6175 20.7556 25.0216 20.3262C24.4256 19.8969 23.7098 19.666 22.9753 19.6662H21.9987L21.4948 19.1623C21.2417 18.9087 20.932 18.719 20.5911 18.6087C20.2503 18.4984 19.8881 18.4708 19.5345 18.5281C19.1808 18.5854 18.8459 18.7259 18.5572 18.9381C18.2686 19.1503 18.0346 19.4281 17.8744 19.7486L17.8184 19.8622C17.6657 20.168 17.4511 20.4387 17.1882 20.6572C16.9253 20.8757 16.6198 21.0371 16.2913 21.1313L14.7516 21.5699C13.8963 21.8141 13.3613 22.6617 13.5075 23.5405L13.621 24.2217C13.7455 24.959 14.3831 25.4987 15.1296 25.4987C16.4452 25.4987 17.6147 26.3416 18.0299 27.5906L18.3643 28.5907M2.38502 21.0706C3.77907 23.9695 6.12885 26.2997 9.03907 27.6692C11.9493 29.0388 15.2424 29.3642 18.3643 28.5907M18.3643 28.5907C21.7078 27.7611 24.6287 25.7291 26.5693 22.8826M20.8323 10.3342C20.8323 11.7278 20.2211 12.9783 19.2523 13.8337" stroke="#107495" stroke-width="2" stroke-linecap="round" stroke-linejoin="round"/>
</svg>
