<svg width="30" height="30" viewBox="0 0 30 30" fill="none" xmlns="http://www.w3.org/2000/svg">
<path d="M2.708 27.291C3.2497 27.8328 3.89283 28.2626 4.60066 28.5558C5.30849 28.8491 6.06716 29 6.83333 29M2.708 27.291C3.80196 28.3849 5.28624 29 6.83333 29M2.708 27.291C1.61404 26.1971 1 24.7128 1 23.1658V2.74993C1 1.78397 1.784 1 2.75 1H10.9167C11.8827 1 12.6667 1.78397 12.6667 2.74993V9.08391M6.83333 29C7.59951 29 8.35818 28.8491 9.06601 28.5558C9.77384 28.2626 10.417 27.8328 10.9587 27.291M6.83333 29C8.38043 29 9.86471 28.3849 10.9587 27.291M6.83333 29L27.25 28.9989C28.216 28.9989 29 28.2149 29 27.249V19.0826C29 18.1167 28.216 17.3327 27.25 17.3327H20.9158M10.9587 27.291L20.9158 17.3327M10.9587 27.291C12.0526 26.1971 12.6667 24.7128 12.6667 23.1658V9.08391M20.9158 17.3327L25.3942 12.8529C26.0787 12.1716 26.0787 11.0641 25.3942 10.3796L19.62 4.60408C18.9356 3.92122 17.828 3.92122 17.1467 4.60408L12.6667 9.08391M6.83333 23.1658H6.84578V23.1782H6.83333V23.1658Z" stroke="#107495" stroke-width="2" stroke-linecap="round" stroke-linejoin="round"/>
</svg>
