<svg width="32" height="23" viewBox="0 0 32 23" fill="none" xmlns="http://www.w3.org/2000/svg">
<path d="M1 2.75C1 1.784 1.77538 1 2.73077 1H11.9615C12.9169 1 13.6923 1.784 13.6923 2.75V8.58333C13.6923 9.54933 12.9169 10.3333 11.9615 10.3333H2.73077C2.27174 10.3333 1.83151 10.149 1.50693 9.82077C1.18235 9.49258 1 9.04746 1 8.58333V2.75ZM19.4615 5.08333C19.4615 4.11733 20.2369 3.33333 21.1923 3.33333H29.2692C30.2246 3.33333 31 4.11733 31 5.08333V17.9167C31 18.8827 30.2246 19.6667 29.2692 19.6667H21.1923C20.7333 19.6667 20.2931 19.4823 19.9685 19.1541C19.6439 18.8259 19.4615 18.3808 19.4615 17.9167V5.08333ZM3.30769 16.75C3.30769 15.784 4.08308 15 5.03846 15H13.1154C14.0708 15 14.8462 15.784 14.8462 16.75V20.25C14.8462 21.216 14.0708 22 13.1154 22H5.03846C4.57943 22 4.13921 21.8156 3.81462 21.4874C3.49004 21.1592 3.30769 20.7141 3.30769 20.25V16.75Z" stroke="#107495" stroke-width="2" stroke-linecap="round" stroke-linejoin="round"/>
</svg>
