<svg width="30" height="30" viewBox="0 0 30 30" fill="none" xmlns="http://www.w3.org/2000/svg">
<path d="M27.8333 18.3444V24.9556C27.8333 26.6573 26.609 28.1227 24.9213 28.3467C21.6748 28.7776 18.3631 29 15 29C11.6369 29 8.32515 28.7776 5.07873 28.3467C3.39096 28.1227 2.16675 26.6573 2.16675 24.9556V18.3444M27.8333 18.3444C28.2026 18.0235 28.4982 17.6263 28.6995 17.1803C28.9009 16.7343 29.0034 16.25 28.9999 15.7607V9.876C28.9999 8.19445 27.8053 6.74156 26.1424 6.49267C24.3804 6.22887 22.6096 6.02808 20.8333 5.89067M27.8333 18.3444C27.5315 18.6011 27.1799 18.8033 26.7864 18.9356C22.985 20.1969 19.0052 20.8377 15 20.8333C10.8809 20.8333 6.91894 20.166 3.21363 18.9356C2.82981 18.8079 2.47432 18.6072 2.16675 18.3444M2.16675 18.3444C1.79737 18.0235 1.50184 17.6263 1.30046 17.1803C1.09908 16.7343 0.996606 16.25 1.00009 15.7607V9.876C1.00009 8.19445 2.19475 6.74156 3.85762 6.49267C5.61959 6.22887 7.39041 6.02808 9.1667 5.89067M20.8333 5.89067V4.5C20.8333 3.57174 20.4646 2.6815 19.8082 2.02513C19.1518 1.36875 18.2616 1 17.3333 1H12.6667C11.7384 1 10.8482 1.36875 10.1918 2.02513C9.53545 2.6815 9.1667 3.57174 9.1667 4.5V5.89067M20.8333 5.89067C16.9502 5.59057 13.0498 5.59057 9.1667 5.89067M15 16.1667H15.0124V16.1791H15V16.1667Z" stroke="#107495" stroke-width="2" stroke-linecap="round" stroke-linejoin="round"/>
</svg>
