<svg width="58" height="58" viewBox="0 0 58 58" fill="none" xmlns="http://www.w3.org/2000/svg">
<path d="M29 1V57M29 1C20.4398 1 13.4997 13.5362 13.4997 29C13.4997 44.4638 20.4398 57 29 57M29 1C37.5602 1 44.5003 13.5362 44.5003 29C44.5003 44.4638 37.5602 57 29 57M57 29H1M53.2493 15H4.7507M53.2493 43H4.7507" stroke="#107495" stroke-width="2" stroke-linecap="round" stroke-linejoin="round"/>
<path d="M1 29C1 44.4638 13.5362 57 29 57C44.4638 57 57 44.4638 57 29C57 13.5362 44.4638 1 29 1C13.5362 1 1 13.5362 1 29Z" stroke="#107495" stroke-width="2" stroke-linecap="round" stroke-linejoin="round"/>
</svg>
