<svg width="63" height="48" viewBox="0 0 63 48" fill="none" xmlns="http://www.w3.org/2000/svg">
<path d="M19.0225 22.4967C23.0066 22.4967 24.5625 19.0952 24.5625 15.3015M30.0129 27.6754C30.0129 25.0551 31.4126 21.5495 35.9322 21.5495" stroke="#107495" stroke-width="2" stroke-linecap="round" stroke-linejoin="round"/>
<path d="M35.9315 34.7487C35.9315 34.7487 36.1219 47.0005 26.6499 47.0005H7.50564C-0.898757 47.0005 -1.4342 34.7487 7.50564 34.7487C-0.898757 34.7487 -1.4342 22.4969 7.50564 22.4969C-2.01685 14.0372 9.69299 6.67112 15.0865 12.3608C9.48956 4.63023 21.354 0.327133 25.4358 6.52627C24.9557 0.327133 31.0881 -0.790956 36.7762 3.85717L36.2716 4.26405C39.04 1.49405 48.1394 3.00111 48.1394 10.4648L45.5516 12.3608C53.5573 4.35031 62.1196 17.2466 55.4631 21.9631H57.019C62.5573 21.9631 63.1888 34.7487 55.4631 34.7487H23.0059" stroke="#107495" stroke-width="2" stroke-linecap="round" stroke-linejoin="round"/>
<path d="M36.2706 4.26587C33.455 7.08469 35.9418 7.97331 31.2904 12.6279M7.50781 22.4971H19.0224M7.50781 34.7489H11.8793M30.0128 34.7489V27.6758M57.0195 21.9633H47.0104" stroke="#107495" stroke-width="2" stroke-linecap="round" stroke-linejoin="round"/>
</svg>
