<svg width="55" height="59" viewBox="0 0 55 59" fill="none" xmlns="http://www.w3.org/2000/svg">
<path d="M10.0875 30.4808H4.65115C2.9102 30.4808 1.5 31.9035 1.5 33.6531V54.3277C1.5 56.0773 2.91321 57.5 4.65115 57.5H10.0905C11.8345 57.5 13.2447 56.0773 13.2447 54.3247V33.6531C13.2439 32.8112 12.9113 32.004 12.3199 31.4087C11.7286 30.8133 10.9268 30.4785 10.0905 30.4777M30.2182 1.5H24.7818C23.0379 1.5 21.6277 2.9227 21.6277 4.67535V54.3216C21.6277 56.0773 23.0409 57.497 24.7848 57.497H30.2182C31.9621 57.497 33.3723 56.0743 33.3723 54.3216V4.67838C33.3723 2.9227 31.9591 1.50303 30.2152 1.50303M50.3489 17.1709H44.9095C43.1656 17.1709 41.7553 18.5936 41.7553 20.3493V54.3216C41.7553 56.0773 43.1686 57.497 44.9095 57.497H50.3458C51.1821 57.4962 51.9839 57.1614 52.5753 56.5661C53.1666 55.9707 53.4992 55.1635 53.5 54.3216V20.3463C53.5 18.5906 52.0868 17.1709 50.3428 17.1709" stroke="#107495" stroke-width="3" stroke-linecap="round" stroke-linejoin="round"/>
</svg>
