<svg width="352" height="352" viewBox="0 0 352 352" fill="none" xmlns="http://www.w3.org/2000/svg">
<mask id="mask0_3_11687" style="mask-type:luminance" maskUnits="userSpaceOnUse" x="0" y="0" width="352" height="352">
<path d="M0 0H352V352H0V0Z" fill="white"/>
</mask>
<g mask="url(#mask0_3_11687)">
<path d="M198.44 45.3198H161.92L98.9995 52.7998L32.4685 87.4915L22.4395 116.6L14.5195 157.52L39.5995 214.28H64.2395L102.08 205.48L93.2795 237.6L106.04 259.16L201.08 238.92L253.44 311.08L241.45 237.93L299.2 251.68L324.72 239.36L335.28 221.76L338.36 196.68L332.2 156.2L310.78 115.62L282.48 80.5198L264.44 67.3198L239.36 56.3198L220 48.8398L198.44 45.3198Z" stroke="#107495" stroke-width="3.52"/>
<path d="M23.4133 120.22L40.2199 141.22L15.8945 156.75L63.9924 214.28L40.2747 141.164L37.9059 210.101" stroke="#107495" stroke-width="3.51901"/>
<path d="M97.0195 114.4L159.72 47.2998L215.82 88.8798L183.04 88.6598L160.27 50.4898L153.12 104.83L110.99 100.98" stroke="#107495" stroke-width="3.52"/>
<path d="M181.5 91.0798L153.9 105.823L112.42 128.37L168.85 142.01L154.66 106.81L214.94 116.6L181.5 91.0798Z" stroke="#107495" stroke-width="3.52"/>
<path d="M33.0234 88.8525L40.4811 142.34L66.4411 89.54L57.666 73.9524L69.9611 88.66L93.5011 87.12L161.261 47.52L99.2211 53.46L93.7756 84.81L103.181 203.5L66.2211 213.18L100.321 184.58L42.9011 144.98L151.801 168.52L69.0811 91.52L74.8011 122.98L43.3411 141.46" stroke="#107495" stroke-width="3.52"/>
<g opacity="0.999999">
<path d="M98.2909 219.307C95.9079 228.007 93.2793 237.6 93.2793 237.6C93.2793 237.6 102.388 252.991 105.214 257.765" stroke="white" stroke-width="3.52"/>
<path d="M45.7656 192.479C48.2902 195.499 50.7236 198.409 52.9456 201.067" stroke="white" stroke-width="3.51901"/>
<path d="M185.551 66.4443C189.219 69.1635 192.938 71.9206 196.457 74.5271" stroke="white" stroke-width="3.52"/>
<path d="M135.697 133.997C139.303 134.868 143.019 135.766 146.6 136.632" stroke="white" stroke-width="3.52"/>
</g>
<path d="M155.1 170.5L103.84 206.58L107.25 255.86L163.264 213.465L155.1 170.5Z" stroke="#107495" stroke-width="3.52"/>
<path d="M158.84 247.5L194.26 210.54" stroke="#107495" stroke-width="3.52"/>
<path d="M162.136 209.221C164.565 209.221 166.536 211.192 166.536 213.621C166.536 216.049 164.565 218.021 162.136 218.021C159.708 218.021 157.736 216.049 157.736 213.621C157.736 211.192 159.708 209.221 162.136 209.221Z" fill="black"/>
<path d="M198.221 46.2L220.001 90.2L264.551 69.74L239.031 57.09L219.561 95.7L207.021 149.82L192.721 179.3L169.621 142.78L211.641 117.7L246.401 142.835L209.001 150.15L173.581 143.33L155.541 168.19L193.601 210.1L192.776 180.125L246.456 143.385L289.191 136.51L267.851 179.63" stroke="#107495" stroke-width="3.52"/>
<path d="M263.608 68.3433L266.028 105.083L309.193 117.843L299.307 126.743L288.908 136.103L266.248 108.383L248.648 141.383L268.888 180.763L307.875 212.636L331.368 157.223L289.018 137.863" stroke="#107495" stroke-width="3.52"/>
<g opacity="0.01">
<path d="M194.92 45.3198L157.051 45.8608L99.0001 53.0198L33.2504 88.1142L21.5601 117.48L14.0801 156.2L38.0601 212.52L64.9001 214.06L102.52 204.49L93.3901 237.16L105.49 256.52L201.96 240.24L253 308.44L240.57 238.37L299.42 251.46L323.84 239.8L335.72 220.55L337.92 196.46L333.08 155.98L310.974 117.518L285.12 83.1598L266.64 68.6398L239.58 56.0998L219.12 48.6198L194.92 45.3198Z" stroke="white" stroke-width="4.4"/>
</g>
<path d="M37.1262 211.53C39.5243 211.53 41.4712 213.477 41.4712 215.875C41.4712 218.273 39.5243 220.22 37.1262 220.22C34.7282 220.22 32.7812 218.273 32.7812 215.875C32.7812 213.477 34.7282 211.53 37.1262 211.53Z" fill="#FF6A34"/>
<path d="M32.7434 85.6682C34.9171 85.6682 36.682 87.4331 36.682 89.6069C36.682 91.7806 34.9171 93.5456 32.7434 93.5456C30.5696 93.5456 28.8047 91.7806 28.8047 89.6069C28.8047 87.4331 30.5696 85.6682 32.7434 85.6682Z" fill="black"/>
<path d="M250.801 303.16L224.621 249.15L201.741 238.04L192.941 211.2L224.841 249.48L238.921 236.06L264.771 182.93L195.361 208.34L250.581 206.58L270.381 242.66L266.751 182.93L298.981 249.04L311.248 210.89L336.821 197.12L323.401 238.7L310.692 210.916L337.261 221.76" stroke="#107495" stroke-width="3.52"/>
<path d="M73.9199 121.44L126.72 190.08" stroke="#107495" stroke-width="3.52"/>
<path d="M219.561 87.5598L249.921 141.24L224.841 197.12" stroke="#107495" stroke-width="3.52"/>
<path d="M219.451 78.8203C224.517 78.8203 228.631 82.9337 228.631 87.9998C228.631 93.066 224.517 97.1794 219.451 97.1794C214.385 97.1794 210.271 93.066 210.271 87.9998C210.271 82.9337 214.385 78.8203 219.451 78.8203Z" fill="#FF6A34"/>
<path d="M199.21 39.3362C202.149 39.3362 204.534 41.7217 204.534 44.6599C204.534 47.5981 202.149 49.9836 199.21 49.9836C196.272 49.9836 193.887 47.5981 193.887 44.6599C193.887 41.7217 196.272 39.3362 199.21 39.3362Z" fill="#FF6A34"/>
<path d="M239.031 50.9961C241.969 50.9961 244.354 53.3817 244.354 56.3198C244.354 59.258 241.969 61.6436 239.031 61.6436C236.093 61.6436 233.707 59.258 233.707 56.3198C233.707 53.3817 236.093 50.9961 239.031 50.9961Z" fill="white"/>
<path d="M263.89 62.729C267.395 62.729 270.241 65.5749 270.241 69.08C270.241 72.5851 267.395 75.431 263.89 75.431C260.385 75.431 257.539 72.5851 257.539 69.08C257.539 65.5749 260.385 62.729 263.89 62.729Z" fill="#FF6A34"/>
<path d="M266.091 100.129C269.596 100.129 272.442 102.975 272.442 106.48C272.442 109.985 269.596 112.831 266.091 112.831C262.586 112.831 259.74 109.985 259.74 106.48C259.74 102.975 262.586 100.129 266.091 100.129Z" fill="#FF6A34"/>
<path d="M289.08 132.02C291.619 132.02 293.68 134.081 293.68 136.62C293.68 139.158 291.619 141.219 289.08 141.219C286.542 141.219 284.48 139.158 284.48 136.62C284.48 134.081 286.542 132.02 289.08 132.02Z" fill="#FF6A34"/>
<path d="M331.651 151.145C334.623 151.145 337.036 153.558 337.036 156.53C337.036 159.502 334.623 161.915 331.651 161.915C328.679 161.915 326.266 159.502 326.266 156.53C326.266 153.558 328.679 151.145 331.651 151.145Z" fill="white"/>
<path d="M337.37 192.339C339.705 192.339 341.601 194.235 341.601 196.57C341.601 198.905 339.705 200.801 337.37 200.801C335.035 200.801 333.139 198.905 333.139 196.57C333.139 194.235 335.035 192.339 337.37 192.339Z" fill="#FF6A34"/>
<path d="M334.511 216.913C337.551 216.913 340.019 219.381 340.019 222.42C340.019 225.46 337.551 227.928 334.511 227.928C331.472 227.928 329.004 225.46 329.004 222.42C329.004 219.381 331.472 216.913 334.511 216.913Z" fill="#FF6A34"/>
<path d="M324.391 236.309C326.56 236.309 328.322 238.07 328.322 240.24C328.322 242.41 326.56 244.172 324.391 244.172C322.221 244.172 320.459 242.41 320.459 240.24C320.459 238.07 322.221 236.309 324.391 236.309Z" fill="#FF6A34"/>
<path d="M269.941 240.599C272.111 240.599 273.873 242.36 273.873 244.53C273.873 246.7 272.111 248.462 269.941 248.462C267.771 248.462 266.01 246.7 266.01 244.53C266.01 242.36 267.771 240.599 269.941 240.599Z" fill="#FF6A34"/>
<path d="M224.621 243.678C226.791 243.678 228.553 245.44 228.553 247.61C228.553 249.78 226.791 251.541 224.621 251.541C222.451 251.541 220.689 249.78 220.689 247.61C220.689 245.44 222.451 243.678 224.621 243.678Z" fill="white"/>
<path d="M201.521 236.254C203.417 236.254 204.957 237.794 204.957 239.69C204.957 241.586 203.417 243.125 201.521 243.125C199.625 243.125 198.086 241.586 198.086 239.69C198.086 237.794 199.625 236.254 201.521 236.254Z" fill="#FF6A34"/>
<path d="M157.961 244.174C159.857 244.174 161.396 245.714 161.396 247.61C161.396 249.506 159.857 251.045 157.961 251.045C156.065 251.045 154.525 249.506 154.525 247.61C154.525 245.714 156.065 244.174 157.961 244.174Z" fill="white"/>
<path d="M93.2811 233.615C95.1771 233.615 96.7165 235.154 96.7165 237.05C96.7165 238.946 95.1771 240.486 93.2811 240.486C91.3851 240.486 89.8457 238.946 89.8457 237.05C89.8457 235.154 91.3851 233.615 93.2811 233.615Z" fill="#FF6A34"/>
<path d="M21.9998 115.915C23.8958 115.915 25.4352 117.454 25.4352 119.35C25.4352 121.246 23.8958 122.785 21.9998 122.785C20.1039 122.785 18.5645 121.246 18.5645 119.35C18.5645 117.454 20.1039 115.915 21.9998 115.915Z" fill="#FF6A34"/>
<path d="M110.221 97.4346C112.117 97.4346 113.656 98.974 113.656 100.87C113.656 102.766 112.117 104.305 110.221 104.305C108.325 104.305 106.785 102.766 106.785 100.87C106.785 98.974 108.325 97.4346 110.221 97.4346Z" fill="#FF6A34"/>
<path d="M99.6612 180.61C102.034 180.61 103.961 182.537 103.961 184.91C103.961 187.283 102.034 189.21 99.6612 189.21C97.2881 189.21 95.3613 187.283 95.3613 184.91C95.3613 182.537 97.2881 180.61 99.6612 180.61Z" fill="#FF6A34"/>
<path d="M73.921 118.79C76.2941 118.79 78.2209 120.717 78.2209 123.09C78.2209 125.463 76.2941 127.39 73.921 127.39C71.5479 127.39 69.6211 125.463 69.6211 123.09C69.6211 120.717 71.5479 118.79 73.921 118.79Z" fill="white"/>
<path d="M154.441 100.97C156.814 100.97 158.74 102.897 158.74 105.27C158.74 107.643 156.814 109.57 154.441 109.57C152.067 109.57 150.141 107.643 150.141 105.27C150.141 102.897 152.067 100.97 154.441 100.97Z" fill="white"/>
<path d="M98.7804 49.05C101.153 49.05 103.08 50.9768 103.08 53.35C103.08 55.7231 101.153 57.6499 98.7804 57.6499C96.4073 57.6499 94.4805 55.7231 94.4805 53.35C94.4805 50.9768 96.4073 49.05 98.7804 49.05Z" fill="#FF6A34"/>
<path d="M15.8404 151.465C18.8784 151.465 21.3449 153.932 21.3449 156.97C21.3449 160.008 18.8784 162.474 15.8404 162.474C12.8025 162.474 10.3359 160.008 10.3359 156.97C10.3359 153.932 12.8025 151.465 15.8404 151.465Z" fill="white"/>
<path d="M252.781 204.298C254.951 204.298 256.713 206.06 256.713 208.23C256.713 210.4 254.951 212.161 252.781 212.161C250.611 212.161 248.85 210.4 248.85 208.23C248.85 206.06 250.611 204.298 252.781 204.298Z" fill="white"/>
<path d="M170.721 139.398C172.89 139.398 174.652 141.16 174.652 143.33C174.652 145.5 172.89 147.262 170.721 147.262C168.551 147.262 166.789 145.5 166.789 143.33C166.789 141.16 168.551 139.398 170.721 139.398Z" fill="#FF6A34"/>
<path d="M240.461 232.146C243.41 232.146 245.805 234.541 245.805 237.49C245.805 240.439 243.41 242.834 240.461 242.834C237.512 242.834 235.117 240.439 235.117 237.49C235.117 234.541 237.512 232.146 240.461 232.146Z" fill="#FF6A34"/>
<path d="M193.82 204.646C196.769 204.646 199.164 207.041 199.164 209.99C199.164 212.939 196.769 215.334 193.82 215.334C190.871 215.334 188.477 212.939 188.477 209.99C188.477 207.041 190.871 204.646 193.82 204.646Z" fill="#FF6A34"/>
<path d="M153.67 162.956C156.619 162.956 159.014 165.351 159.014 168.3C159.014 171.249 156.619 173.644 153.67 173.644C150.721 173.644 148.326 171.249 148.326 168.3C148.326 165.351 150.721 162.956 153.67 162.956Z" fill="white"/>
<path d="M102.74 200.246C105.689 200.246 108.084 202.641 108.084 205.59C108.084 208.539 105.689 210.933 102.74 210.933C99.791 210.933 97.3965 208.539 97.3965 205.59C97.3965 202.641 99.791 200.246 102.74 200.246Z" fill="#FF6A34"/>
<path d="M106.48 252.386C109.43 252.386 111.824 254.781 111.824 257.73C111.824 260.679 109.43 263.074 106.48 263.074C103.531 263.074 101.137 260.679 101.137 257.73C101.137 254.781 103.531 252.386 106.48 252.386Z" fill="#FF6A34"/>
<path d="M206.58 143.926C209.529 143.926 211.924 146.321 211.924 149.27C211.924 152.219 209.529 154.614 206.58 154.614C203.631 154.614 201.236 152.219 201.236 149.27C201.236 146.321 203.631 143.926 206.58 143.926Z" fill="#FF6A34"/>
<path d="M181.721 85.1863C184.67 85.1863 187.064 87.5808 187.064 90.5299C187.064 93.4791 184.67 95.8736 181.721 95.8736C178.771 95.8736 176.377 93.4791 176.377 90.5299C176.377 87.5808 178.771 85.1863 181.721 85.1863Z" fill="#FF6A34"/>
<path d="M298.321 246.902C300.958 246.902 303.099 249.043 303.099 251.68C303.099 254.317 300.958 256.458 298.321 256.458C295.684 256.458 293.543 254.317 293.543 251.68C293.543 249.043 295.684 246.902 298.321 246.902Z" fill="#FF6A34"/>
<path d="M266.75 174.721C270.309 174.721 273.199 177.611 273.199 181.17C273.199 184.729 270.309 187.619 266.75 187.619C263.191 187.619 260.301 184.729 260.301 181.17C260.301 177.611 263.191 174.721 266.75 174.721Z" fill="#FF6A34"/>
<path d="M194.591 169.812C199.039 169.812 202.649 173.423 202.649 177.87C202.649 182.317 199.039 185.928 194.591 185.928C190.144 185.928 186.533 182.317 186.533 177.87C186.533 173.423 190.144 169.812 194.591 169.812Z" fill="#FF6A34"/>
<path d="M98.8913 149.4C102.584 149.4 105.581 152.398 105.581 156.09C105.581 159.782 102.584 162.78 98.8913 162.78C95.199 162.78 92.2012 159.782 92.2012 156.09C92.2012 152.398 95.199 149.4 98.8913 149.4Z" fill="#FF6A34"/>
<path d="M110.77 123C114.463 123 117.46 125.998 117.46 129.69C117.46 133.382 114.463 136.38 110.77 136.38C107.078 136.38 104.08 133.382 104.08 129.69C104.08 125.998 107.078 123 110.77 123Z" fill="#FF6A34"/>
<path d="M67.2097 82.7397C70.902 82.7397 73.8998 85.7376 73.8998 89.4299C73.8998 93.1222 70.902 96.1201 67.2097 96.1201C63.5174 96.1201 60.5195 93.1222 60.5195 89.4299C60.5195 85.7376 63.5174 82.7397 67.2097 82.7397Z" fill="#FF6A34"/>
<path d="M247.315 135.494C252.355 135.494 256.447 139.586 256.447 144.625C256.447 149.665 252.355 153.757 247.315 153.757C242.276 153.757 238.184 149.665 238.184 144.625C238.184 139.586 242.276 135.494 247.315 135.494Z" fill="white"/>
<mask id="mask1_3_11687" style="mask-type:alpha" maskUnits="userSpaceOnUse" x="238" y="135" width="19" height="19">
<path d="M247.315 135.494C252.355 135.494 256.447 139.586 256.447 144.625C256.447 149.665 252.355 153.757 247.315 153.757C242.276 153.757 238.184 149.665 238.184 144.625C238.184 139.586 242.276 135.494 247.315 135.494Z" fill="white"/>
</mask>
<g mask="url(#mask1_3_11687)">
<mask id="mask2_3_11687" style="mask-type:luminance" maskUnits="userSpaceOnUse" x="244" y="137" width="11" height="11">
<path d="M249.325 137.197C252.131 137.197 254.409 139.475 254.409 142.281C254.409 145.087 252.131 147.366 249.325 147.366C246.519 147.366 244.24 145.087 244.24 142.281C244.24 139.475 246.519 137.197 249.325 137.197Z" fill="url(#paint0_radial_3_11687)"/>
</mask>
<g mask="url(#mask2_3_11687)">
<path style="mix-blend-mode:lighten" d="M249.325 137.197C252.131 137.197 254.409 139.475 254.409 142.281C254.409 145.087 252.131 147.366 249.325 147.366C246.519 147.366 244.24 145.087 244.24 142.281C244.24 139.475 246.519 137.197 249.325 137.197Z" fill="url(#paint1_radial_3_11687)"/>
</g>
</g>
<path d="M65.1365 208.723C67.6782 208.723 69.7418 210.787 69.7418 213.328C69.7418 215.87 67.6782 217.934 65.1365 217.934C62.5949 217.934 60.5312 215.87 60.5312 213.328C60.5312 210.787 62.5949 208.723 65.1365 208.723Z" fill="white"/>
<mask id="mask3_3_11687" style="mask-type:alpha" maskUnits="userSpaceOnUse" x="60" y="208" width="10" height="10">
<path d="M65.1365 208.723C67.6782 208.723 69.7418 210.787 69.7418 213.328C69.7418 215.87 67.6782 217.934 65.1365 217.934C62.5949 217.934 60.5312 215.87 60.5312 213.328C60.5312 210.787 62.5949 208.723 65.1365 208.723Z" fill="white"/>
</mask>
<g mask="url(#mask3_3_11687)">
<mask id="mask4_3_11687" style="mask-type:luminance" maskUnits="userSpaceOnUse" x="60" y="206" width="11" height="11">
<path d="M65.8314 206.45C68.6618 206.45 70.9598 208.748 70.9598 211.578C70.9598 214.408 68.6618 216.706 65.8314 216.706C63.0011 216.706 60.7031 214.408 60.7031 211.578C60.7031 208.748 63.0011 206.45 65.8314 206.45Z" fill="url(#paint2_radial_3_11687)"/>
</mask>
<g mask="url(#mask4_3_11687)">
<path style="mix-blend-mode:lighten" d="M65.8314 206.45C68.6618 206.45 70.9598 208.748 70.9598 211.578C70.9598 214.408 68.6618 216.706 65.8314 216.706C63.0011 216.706 60.7031 214.408 60.7031 211.578C60.7031 208.748 63.0011 206.45 65.8314 206.45Z" fill="url(#paint3_radial_3_11687)"/>
</g>
</g>
<path d="M252.16 300.61C256.118 300.61 259.332 303.823 259.332 307.781C259.332 311.739 256.118 314.953 252.16 314.953C248.202 314.953 244.988 311.739 244.988 307.781C244.988 303.823 248.202 300.61 252.16 300.61Z" fill="#FF6A34"/>
<mask id="mask5_3_11687" style="mask-type:alpha" maskUnits="userSpaceOnUse" x="244" y="300" width="16" height="15">
<path d="M252.16 300.61C256.118 300.61 259.332 303.823 259.332 307.781C259.332 311.739 256.118 314.953 252.16 314.953C248.202 314.953 244.988 311.739 244.988 307.781C244.988 303.823 248.202 300.61 252.16 300.61Z" fill="#FF6A34"/>
</mask>
<g mask="url(#mask5_3_11687)">
<mask id="mask6_3_11687" style="mask-type:luminance" maskUnits="userSpaceOnUse" x="248" y="301" width="13" height="12">
<path d="M254.468 301.257C257.559 301.257 260.069 303.767 260.069 306.858C260.069 309.949 257.559 312.459 254.468 312.459C251.377 312.459 248.867 309.949 248.867 306.858C248.867 303.767 251.377 301.257 254.468 301.257Z" fill="url(#paint4_radial_3_11687)"/>
</mask>
<g mask="url(#mask6_3_11687)">
<path style="mix-blend-mode:lighten" d="M254.468 301.257C257.559 301.257 260.069 303.767 260.069 306.858C260.069 309.949 257.559 312.459 254.468 312.459C251.377 312.459 248.867 309.949 248.867 306.858C248.867 303.767 251.377 301.257 254.468 301.257Z" fill="url(#paint5_radial_3_11687)"/>
</g>
</g>
<path d="M157.971 36.7791C163.593 36.7791 168.158 41.3441 168.158 46.9666C168.158 52.5891 163.593 57.1542 157.971 57.1542C152.348 57.1542 147.783 52.5891 147.783 46.9666C147.783 41.3441 152.348 36.7791 157.971 36.7791Z" fill="#FF6A34"/>
<mask id="mask7_3_11687" style="mask-type:alpha" maskUnits="userSpaceOnUse" x="147" y="36" width="22" height="22">
<path d="M157.971 36.7791C163.593 36.7791 168.158 41.3441 168.158 46.9666C168.158 52.5891 163.593 57.1542 157.971 57.1542C152.348 57.1542 147.783 52.5891 147.783 46.9666C147.783 41.3441 152.348 36.7791 157.971 36.7791Z" fill="#FF6A34"/>
</mask>
<g mask="url(#mask7_3_11687)">
<mask id="mask8_3_11687" style="mask-type:luminance" maskUnits="userSpaceOnUse" x="154" y="38" width="12" height="11">
<path d="M160.153 38.0872C163.125 38.0872 165.538 40.5004 165.538 43.4726C165.538 46.4448 163.125 48.858 160.153 48.858C157.181 48.858 154.768 46.4448 154.768 43.4726C154.768 40.5004 157.181 38.0872 160.153 38.0872Z" fill="url(#paint6_radial_3_11687)"/>
</mask>
<g mask="url(#mask8_3_11687)">
<path style="mix-blend-mode:lighten" d="M160.153 38.0872C163.125 38.0872 165.538 40.5004 165.538 43.4726C165.538 46.4448 163.125 48.858 160.153 48.858C157.181 48.858 154.768 46.4448 154.768 43.4726C154.768 40.5004 157.181 38.0872 160.153 38.0872Z" fill="url(#paint7_radial_3_11687)"/>
</g>
</g>
<path d="M41.5961 132.47C46.931 132.47 51.2625 136.802 51.2625 142.137C51.2625 147.471 46.931 151.803 41.5961 151.803C36.2612 151.803 31.9297 147.471 31.9297 142.137C31.9297 136.802 36.2612 132.47 41.5961 132.47Z" fill="#FF6A34"/>
<mask id="mask9_3_11687" style="mask-type:alpha" maskUnits="userSpaceOnUse" x="31" y="132" width="21" height="20">
<path d="M41.5961 132.47C46.931 132.47 51.2625 136.802 51.2625 142.137C51.2625 147.471 46.931 151.803 41.5961 151.803C36.2612 151.803 31.9297 147.471 31.9297 142.137C31.9297 136.802 36.2612 132.47 41.5961 132.47Z" fill="#FF6A34"/>
</mask>
<g mask="url(#mask9_3_11687)">
<mask id="mask10_3_11687" style="mask-type:luminance" maskUnits="userSpaceOnUse" x="36" y="131" width="15" height="15">
<path d="M43.5878 131.164C47.5545 131.164 50.7751 134.384 50.7751 138.351C50.7751 142.318 47.5545 145.538 43.5878 145.538C39.6211 145.538 36.4004 142.318 36.4004 138.351C36.4004 134.384 39.6211 131.164 43.5878 131.164Z" fill="url(#paint8_radial_3_11687)"/>
</mask>
<g mask="url(#mask10_3_11687)">
<path style="mix-blend-mode:lighten" d="M43.5878 131.164C47.5545 131.164 50.7751 134.384 50.7751 138.351C50.7751 142.318 47.5545 145.538 43.5878 145.538C39.6211 145.538 36.4004 142.318 36.4004 138.351C36.4004 134.384 39.6211 131.164 43.5878 131.164Z" fill="url(#paint9_radial_3_11687)"/>
</g>
</g>
<path d="M309.562 203.935C314.054 203.935 317.702 207.583 317.702 212.075C317.702 216.568 314.054 220.215 309.562 220.215C305.069 220.215 301.422 216.568 301.422 212.075C301.422 207.583 305.069 203.935 309.562 203.935Z" fill="#FF6A34"/>
<mask id="mask11_3_11687" style="mask-type:alpha" maskUnits="userSpaceOnUse" x="301" y="203" width="17" height="18">
<path d="M309.562 203.935C314.054 203.935 317.702 207.583 317.702 212.075C317.702 216.568 314.054 220.215 309.562 220.215C305.069 220.215 301.422 216.568 301.422 212.075C301.422 207.583 305.069 203.935 309.562 203.935Z" fill="#FF6A34"/>
</mask>
<g mask="url(#mask11_3_11687)">
<mask id="mask12_3_11687" style="mask-type:luminance" maskUnits="userSpaceOnUse" x="306" y="204" width="12" height="12">
<path d="M311.755 204.842C314.727 204.842 317.14 207.255 317.14 210.227C317.14 213.199 314.727 215.613 311.755 215.613C308.782 215.613 306.369 213.199 306.369 210.227C306.369 207.255 308.782 204.842 311.755 204.842Z" fill="url(#paint10_radial_3_11687)"/>
</mask>
<g mask="url(#mask12_3_11687)">
<path style="mix-blend-mode:lighten" d="M311.755 204.842C314.727 204.842 317.14 207.255 317.14 210.227C317.14 213.199 314.727 215.613 311.755 215.613C308.782 215.613 306.369 213.199 306.369 210.227C306.369 207.255 308.782 204.842 311.755 204.842Z" fill="url(#paint11_radial_3_11687)"/>
</g>
</g>
<path d="M310.42 113.848C312.546 113.848 314.272 115.574 314.272 117.7C314.272 119.826 312.546 121.552 310.42 121.552C308.294 121.552 306.568 119.826 306.568 117.7C306.568 115.574 308.294 113.848 310.42 113.848Z" fill="#FF6A34"/>
</g>
<defs>
<radialGradient id="paint0_radial_3_11687" cx="0" cy="0" r="1" gradientUnits="userSpaceOnUse" gradientTransform="translate(249.325 142.281) scale(22.3495)">
<stop stop-color="white"/>
<stop offset="0.08" stop-color="white" stop-opacity="0.5"/>
<stop offset="0.17" stop-color="white" stop-opacity="0"/>
</radialGradient>
<radialGradient id="paint1_radial_3_11687" cx="0" cy="0" r="1" gradientUnits="userSpaceOnUse" gradientTransform="translate(249.325 142.281) scale(22.3495)">
<stop stop-color="#C2B8F3"/>
<stop offset="0.5" stop-color="#6B5EA7"/>
<stop offset="1" stop-color="#14055C"/>
</radialGradient>
<radialGradient id="paint2_radial_3_11687" cx="0" cy="0" r="1" gradientUnits="userSpaceOnUse" gradientTransform="translate(65.8314 211.578) scale(22.5421)">
<stop stop-color="white"/>
<stop offset="0.09" stop-color="white" stop-opacity="0.5"/>
<stop offset="0.19" stop-color="white" stop-opacity="0"/>
</radialGradient>
<radialGradient id="paint3_radial_3_11687" cx="0" cy="0" r="1" gradientUnits="userSpaceOnUse" gradientTransform="translate(65.8314 211.578) scale(22.5421)">
<stop stop-color="#C8BEF7"/>
<stop offset="0.5" stop-color="#6E62A9"/>
<stop offset="1" stop-color="#14055C"/>
</radialGradient>
<radialGradient id="paint4_radial_3_11687" cx="0" cy="0" r="1" gradientUnits="userSpaceOnUse" gradientTransform="translate(254.468 306.858) scale(24.6191)">
<stop stop-color="white"/>
<stop offset="0.09" stop-color="white" stop-opacity="0.5"/>
<stop offset="0.19" stop-color="white" stop-opacity="0"/>
</radialGradient>
<radialGradient id="paint5_radial_3_11687" cx="0" cy="0" r="1" gradientUnits="userSpaceOnUse" gradientTransform="translate(254.468 306.858) scale(24.6191)">
<stop stop-color="#FCFCFC"/>
<stop offset="0.5" stop-color="#A79FCD"/>
<stop offset="1" stop-color="#51419E"/>
</radialGradient>
<radialGradient id="paint6_radial_3_11687" cx="0" cy="0" r="1" gradientUnits="userSpaceOnUse" gradientTransform="translate(160.153 43.4726) scale(23.6722)">
<stop stop-color="white"/>
<stop offset="0.09" stop-color="white" stop-opacity="0.5"/>
<stop offset="0.19" stop-color="white" stop-opacity="0"/>
</radialGradient>
<radialGradient id="paint7_radial_3_11687" cx="0" cy="0" r="1" gradientUnits="userSpaceOnUse" gradientTransform="translate(160.153 43.4726) scale(23.6722)">
<stop stop-color="#FEFEFE"/>
<stop offset="0.5" stop-color="#A79FCE"/>
<stop offset="1" stop-color="#51419E"/>
</radialGradient>
<radialGradient id="paint8_radial_3_11687" cx="0" cy="0" r="1" gradientUnits="userSpaceOnUse" gradientTransform="translate(43.5878 138.351) scale(31.5929)">
<stop stop-color="white"/>
<stop offset="0.09" stop-color="white" stop-opacity="0.5"/>
<stop offset="0.19" stop-color="white" stop-opacity="0"/>
</radialGradient>
<radialGradient id="paint9_radial_3_11687" cx="0" cy="0" r="1" gradientUnits="userSpaceOnUse" gradientTransform="translate(43.5878 138.351) scale(31.5929)">
<stop stop-color="#FEFEFE"/>
<stop offset="0.5" stop-color="#A79FCE"/>
<stop offset="1" stop-color="#51419E"/>
</radialGradient>
<radialGradient id="paint10_radial_3_11687" cx="0" cy="0" r="1" gradientUnits="userSpaceOnUse" gradientTransform="translate(311.755 210.227) scale(23.6722)">
<stop stop-color="white"/>
<stop offset="0.09" stop-color="white" stop-opacity="0.5"/>
<stop offset="0.19" stop-color="white" stop-opacity="0"/>
</radialGradient>
<radialGradient id="paint11_radial_3_11687" cx="0" cy="0" r="1" gradientUnits="userSpaceOnUse" gradientTransform="translate(311.755 210.227) scale(23.6722)">
<stop stop-color="#FEFEFE"/>
<stop offset="0.5" stop-color="#A79FCE"/>
<stop offset="1" stop-color="#51419E"/>
</radialGradient>
</defs>
</svg>
