<svg width="328" height="328" viewBox="0 0 328 328" fill="none" xmlns="http://www.w3.org/2000/svg">
<mask id="mask0_3_12036" style="mask-type:luminance" maskUnits="userSpaceOnUse" x="0" y="0" width="328" height="328">
<path d="M327.5 0.5V327.5H0.5V0.5H327.5Z" fill="white" stroke="white"/>
</mask>
<g mask="url(#mask0_3_12036)">
<path d="M188.791 26.2056L234.974 54.1877" stroke="#107495" stroke-width="2"/>
<path d="M106.074 37.0711L163.947 36.0288" stroke="#107495" stroke-width="2"/>
<path d="M234.963 54.2676L164.152 36.0288" stroke="#107495" stroke-width="2"/>
<path d="M188.551 25.9663L163.998 35.9519" stroke="#107495" stroke-width="2"/>
<path d="M234.941 54.5977L250.659 118.102" stroke="#107495" stroke-width="2"/>
<path d="M164.205 35.4648L184.125 79.9603L234.976 54.9508" stroke="#107495" stroke-width="2"/>
<path d="M60.2344 79.0053L165.435 73.6405L208.004 60.8618" stroke="#107495" stroke-width="2"/>
<path d="M48.3105 95.8042L108.285 70.1333" stroke="#107495" stroke-width="2"/>
<path d="M106.121 36.1714L108.286 69.7233" stroke="#107495" stroke-width="2"/>
<path d="M164.409 36.0801L108.285 69.9282" stroke="#107495" stroke-width="2"/>
<path d="M184.432 80.2689L108.285 70.1333" stroke="#107495" stroke-width="2"/>
<path d="M234.834 54.0278L265.495 71.2159" stroke="#107495" stroke-width="2"/>
<path d="M165.434 73.5952L285.248 105.933" stroke="#107495" stroke-width="2"/>
<path d="M301.963 151.668L285.863 106.079" stroke="#107495" stroke-width="2"/>
<path d="M301.963 151.668L285.863 106.079" stroke="#107495" stroke-width="2"/>
<path d="M265.012 70.6226L285.222 105.114" stroke="#107495" stroke-width="2"/>
<path d="M234.895 54.2393L285.607 105.831" stroke="#107495" stroke-width="2"/>
<path d="M184.09 79.8813L250.556 117.988" stroke="#107495" stroke-width="2"/>
<path d="M285.427 106.69L251.17 117.988" stroke="#107495" stroke-width="2"/>
<path d="M165.434 74.21L196.611 142.149" stroke="#107495" stroke-width="2"/>
<path d="M184.227 79.6768L196.624 142.188" stroke="#107495" stroke-width="2"/>
<path d="M250.953 117.59L196.623 142.162" stroke="#107495" stroke-width="2"/>
<path d="M26.9219 150.539L165.605 138.284" stroke="#107495" stroke-width="2"/>
<path d="M166.685 118.103L165.344 138.42" stroke="#107495" stroke-width="2"/>
<path d="M196.324 141.313L130.564 130.608" stroke="#107495" stroke-width="2"/>
<path d="M108.104 69.1763L130.359 131.018" stroke="#107495" stroke-width="2"/>
<path d="M184.044 79.2437L129.947 130.813" stroke="#107495" stroke-width="2"/>
<path d="M48.7656 96.0552L70.9524 127.625" stroke="#107495" stroke-width="2"/>
<path d="M129.81 130.79L70.3828 127.852" stroke="#107495" stroke-width="2"/>
<path d="M108.443 69.6094L71.1113 127.078" stroke="#107495" stroke-width="2"/>
<path d="M165.433 73.8003L71.7266 127.283" stroke="#107495" stroke-width="2"/>
<path d="M165.434 138.17L301.041 151.699" stroke="#107495" stroke-width="2"/>
<path d="M162.975 217.3L273.745 205.878L273.089 205.632" stroke="#107495" stroke-width="2"/>
<path d="M259.075 242.036L289.46 176.55L250.738 117.556" stroke="#107495" stroke-width="2"/>
<path d="M285.816 106.69L289.257 176.345" stroke="#107495" stroke-width="2"/>
<path d="M301.622 151.358L290.166 176.345" stroke="#107495" stroke-width="2"/>
<path d="M165.229 138.17L236.684 195L197.051 142.042" stroke="#107495" stroke-width="2"/>
<path d="M250.941 117.237L235.863 195L290.165 177.211" stroke="#107495" stroke-width="2"/>
<path d="M258.527 242.037L235.863 195" stroke="#107495" stroke-width="2"/>
<path d="M236.183 194.294L162.953 199.602L196.527 141.723" stroke="#107495" stroke-width="2"/>
<path d="M130.176 130.653L162.953 199.601" stroke="#107495" stroke-width="2"/>
<path d="M71.5449 127.715L88.3553 193.782" stroke="#107495" stroke-width="2"/>
<path d="M130.54 130.106L88.1504 193.987" stroke="#107495" stroke-width="2"/>
<path d="M165.434 137.35L88.1504 193.577L163.295 199.237" stroke="#107495" stroke-width="2"/>
<path d="M36.2031 175.112L38.3342 224.27" stroke="#107495" stroke-width="2"/>
<path d="M88.2329 193.726L36.4082 175.317" stroke="#107495" stroke-width="2"/>
<path d="M48.7892 96.3501L36.2031 175.009" stroke="#107495" stroke-width="2"/>
<path d="M71.431 127.26L36.4668 175.709" stroke="#107495" stroke-width="2"/>
<path d="M283.628 236.186L258.639 241.999" stroke="#107495" stroke-width="2"/>
<path d="M289.95 177.073L283.627 235.776" stroke="#107495" stroke-width="2"/>
<path d="M163.589 218.12L38.2656 223.565" stroke="#107495" stroke-width="2"/>
<path d="M123.658 191.971L163.795 217.915" stroke="#107495" stroke-width="2"/>
<path d="M258.664 241.854L163.588 218.12" stroke="#107495" stroke-width="2"/>
<path d="M88.6523 193.521L126.873 250.716" stroke="#107495" stroke-width="2"/>
<path d="M164.409 217.71L127.42 250.852" stroke="#107495" stroke-width="2"/>
<path d="M163.524 199.078L126.852 251.08" stroke="#107495" stroke-width="2"/>
<path d="M72.1133 250.875L126.644 251.034" stroke="#107495" stroke-width="2"/>
<path d="M37.9805 224.191L70.7701 250.226" stroke="#107495" stroke-width="2"/>
<path d="M88.5155 193.453L71.0898 250.875" stroke="#107495" stroke-width="2"/>
<path d="M36.125 174.615L71.0664 250.625" stroke="#107495" stroke-width="2"/>
<path d="M88.6994 281.263L71.8184 250.847" stroke="#107495" stroke-width="2"/>
<path d="M221.559 289.095L258.482 242.605" stroke="#107495" stroke-width="2"/>
<path d="M164.205 303.131L227.229 272.65" stroke="#107495" stroke-width="2"/>
<path d="M140.368 294.164L70.2012 249.918" stroke="#107495" stroke-width="2"/>
<path d="M126.85 250.51L140.163 294.061" stroke="#107495" stroke-width="2"/>
<path d="M222.197 289.415L140.471 294.369" stroke="#107495" stroke-width="2"/>
<mask id="path-68-inside-1_3_12036" fill="white">
<path d="M222.197 289.415L140.471 294.369L222.197 289.415Z"/>
</mask>
<path d="M222.197 289.415L140.471 294.369L222.197 289.415Z" fill="#008081"/>
<path d="M222.197 289.415L222.137 288.416L140.41 293.371L140.471 294.369L140.531 295.367L222.258 290.413L222.197 289.415Z" fill="#107495" mask="url(#path-68-inside-1_3_12036)"/>
<path d="M258.732 241.809L195.889 258.983L127.316 251.239" stroke="#107495" stroke-width="2"/>
<path d="M163.359 199.633L196.059 259.445" stroke="#107495" stroke-width="2"/>
<path d="M221.791 289.603L195.24 258.933" stroke="#107495" stroke-width="2"/>
<path d="M195.547 259.445L140.16 294.22" stroke="#107495" stroke-width="2"/>
<path d="M236.115 194.83L195.547 259.497" stroke="#107495" stroke-width="2"/>
</g>
<mask id="mask1_3_12036" style="mask-type:luminance" maskUnits="userSpaceOnUse" x="0" y="0" width="328" height="328">
<path d="M327.5 0.5V327.5H0.5V0.5H327.5Z" fill="white" stroke="white"/>
</mask>
<g mask="url(#mask1_3_12036)">
<path d="M165.435 135.39C166.857 135.39 168.01 136.543 168.01 137.965C168.01 139.387 166.856 140.54 165.435 140.54C164.013 140.54 162.859 139.387 162.859 137.965C162.859 136.543 164.012 135.39 165.435 135.39Z" fill="#008081" stroke="#107495"/>
<path d="M163.116 196.988C164.538 196.988 165.691 198.141 165.691 199.563C165.691 200.985 164.538 202.138 163.116 202.138C161.694 202.138 160.541 200.985 160.541 199.563C160.541 198.141 161.694 196.988 163.116 196.988Z" fill="#008081" stroke="#107495"/>
<path d="M164.204 33.5049C165.626 33.505 166.779 34.6581 166.779 36.0801C166.779 37.502 165.626 38.6552 164.204 38.6553C162.782 38.6553 161.629 37.5021 161.629 36.0801C161.629 34.658 162.782 33.5049 164.204 33.5049Z" fill="#008081" stroke="#107495"/>
<path d="M195.54 256.9C196.962 256.9 198.115 258.054 198.115 259.476C198.115 260.898 196.962 262.051 195.54 262.051C194.118 262.051 192.965 260.898 192.965 259.476C192.965 258.054 194.118 256.9 195.54 256.9Z" fill="#008081" stroke="#107495"/>
<path d="M258.733 239.54C260.155 239.54 261.309 240.693 261.309 242.115C261.308 243.537 260.155 244.69 258.733 244.69C257.311 244.69 256.158 243.537 256.158 242.115C256.158 240.693 257.311 239.54 258.733 239.54Z" fill="#008081" stroke="#107495"/>
<path d="M163.415 215.309C164.837 215.309 165.99 216.462 165.99 217.884C165.99 219.306 164.837 220.459 163.415 220.459C161.993 220.459 160.84 219.306 160.84 217.884C160.84 216.462 161.993 215.309 163.415 215.309Z" fill="#008081" stroke="#107495"/>
<path d="M127.12 248.29C128.542 248.29 129.695 249.443 129.695 250.865C129.695 252.287 128.542 253.44 127.12 253.44C125.698 253.44 124.545 252.287 124.545 250.865C124.545 249.443 125.698 248.29 127.12 248.29Z" fill="#008081" stroke="#107495"/>
<path d="M289.827 174.251C291.249 174.251 292.402 175.404 292.402 176.826C292.402 178.248 291.249 179.401 289.827 179.401C288.405 179.401 287.252 178.248 287.252 176.826C287.252 175.404 288.405 174.251 289.827 174.251Z" fill="#008081" stroke="#107495"/>
<path d="M285.44 103.141C286.862 103.141 288.016 104.294 288.016 105.716C288.016 107.138 286.862 108.291 285.44 108.291C284.018 108.291 282.865 107.138 282.865 105.716C282.865 104.294 284.018 103.141 285.44 103.141Z" fill="#008081" stroke="#107495"/>
<path d="M184.063 77.0649C185.485 77.065 186.639 78.2181 186.639 79.6401C186.639 81.0621 185.485 82.2152 184.063 82.2153C182.641 82.2153 181.488 81.0621 181.488 79.6401C181.488 78.2181 182.641 77.0649 184.063 77.0649Z" fill="#008081" stroke="#107495"/>
<g opacity="0.129059">
<path d="M108.578 63.5005C112.005 63.5005 114.793 66.3171 114.793 69.8032C114.793 73.2895 112.005 76.106 108.578 76.106C105.151 76.1059 102.363 73.2894 102.363 69.8032C102.363 66.3171 105.151 63.5005 108.578 63.5005Z" fill="#008081" stroke="#107495" stroke-width="0.883346"/>
<path d="M108.578 63.0591C104.902 63.0591 101.922 66.0787 101.922 69.8034C101.922 73.5281 104.902 76.5477 108.578 76.5477C112.254 76.5477 115.235 73.5281 115.235 69.8034C115.235 66.0787 112.254 63.0591 108.578 63.0591Z" stroke="#107495" stroke-width="0.569872"/>
</g>
<path d="M234.78 51.9893C236.202 51.9894 237.355 53.1424 237.355 54.5645C237.355 55.9864 236.202 57.1395 234.78 57.1396C233.358 57.1396 232.205 55.9864 232.205 54.5645C232.205 53.1424 233.358 51.9893 234.78 51.9893Z" fill="#008081" stroke="#107495"/>
<g opacity="0.24662">
<path d="M250.973 112.06C254.161 112.06 256.736 114.612 256.736 117.749C256.736 120.886 254.161 123.438 250.973 123.438C247.784 123.438 245.208 120.886 245.208 117.749C245.208 114.612 247.784 112.06 250.973 112.06Z" fill="#008081" stroke="#107495" stroke-width="0.848766"/>
<path d="M250.972 111.635C247.554 111.635 244.783 114.372 244.783 117.749C244.783 121.125 247.554 123.863 250.972 123.863C254.39 123.863 257.161 121.125 257.161 117.749C257.161 114.372 254.39 111.635 250.972 111.635Z" stroke="#107495" stroke-width="1.92364"/>
</g>
<path d="M108.483 67.2993C109.905 67.2994 111.059 68.4525 111.059 69.8745C111.058 71.2964 109.905 72.4496 108.483 72.4497C107.061 72.4497 105.908 71.2965 105.908 69.8745C105.908 68.4524 107.061 67.2993 108.483 67.2993Z" fill="#008081" stroke="#107495"/>
<path d="M250.763 115.351C252.185 115.351 253.338 116.504 253.338 117.926C253.338 119.348 252.185 120.501 250.763 120.501C249.341 120.501 248.188 119.348 248.188 117.926C248.188 116.504 249.341 115.351 250.763 115.351Z" fill="#008081" stroke="#107495"/>
<path d="M165.466 71.1938C166.888 71.194 168.041 72.347 168.041 73.769C168.041 75.191 166.888 76.3441 165.466 76.3442C164.044 76.3442 162.891 75.191 162.891 73.769C162.891 72.347 164.044 71.1938 165.466 71.1938Z" fill="#008081" stroke="#107495"/>
<path d="M130.019 127.815C131.441 127.815 132.594 128.968 132.594 130.39C132.594 131.812 131.44 132.965 130.019 132.965C128.597 132.965 127.443 131.812 127.443 130.39C127.443 128.968 128.596 127.815 130.019 127.815Z" fill="#008081" stroke="#107495"/>
<path d="M36.4541 172.82C37.8761 172.82 39.0293 173.973 39.0293 175.396C39.0292 176.817 37.876 177.971 36.4541 177.971C35.0321 177.971 33.879 176.817 33.8789 175.396C33.8789 173.973 35.032 172.82 36.4541 172.82Z" fill="#008081" stroke="#107495"/>
<path d="M196.323 139.451C197.745 139.451 198.898 140.604 198.898 142.026C198.898 143.448 197.745 144.601 196.323 144.601C194.901 144.601 193.748 143.448 193.748 142.026C193.748 140.604 194.901 139.451 196.323 139.451Z" fill="#008081" stroke="#107495"/>
<path d="M88.1826 191.341C89.6046 191.341 90.7578 192.494 90.7578 193.916C90.7577 195.338 89.6045 196.491 88.1826 196.491C86.7606 196.491 85.6075 195.338 85.6074 193.916C85.6074 192.494 86.7605 191.341 88.1826 191.341Z" fill="#008081" stroke="#107495"/>
<path d="M235.962 192.39C237.384 192.39 238.537 193.543 238.537 194.965C238.537 196.387 237.384 197.54 235.962 197.54C234.54 197.54 233.387 196.387 233.387 194.965C233.387 193.543 234.54 192.39 235.962 192.39Z" fill="#008081" stroke="#107495"/>
<path d="M71.1904 248.019C72.6124 248.019 73.7656 249.172 73.7656 250.594C73.7655 252.016 72.6124 253.169 71.1904 253.169C69.7684 253.169 68.6153 252.016 68.6152 250.594C68.6152 249.172 69.7684 248.019 71.1904 248.019Z" fill="#008081" stroke="#107495"/>
<path d="M71.417 124.652C72.839 124.652 73.9922 125.805 73.9922 127.227C73.9921 128.649 72.8389 129.802 71.417 129.802C69.995 129.802 68.8419 128.649 68.8418 127.227C68.8418 125.805 69.9949 124.652 71.417 124.652Z" fill="#008081" stroke="#107495"/>
<path d="M140.655 291.469C142.077 291.469 143.23 292.622 143.23 294.044C143.23 295.466 142.077 296.62 140.655 296.62C139.233 296.62 138.08 295.466 138.08 294.044C138.08 292.622 139.233 291.469 140.655 291.469Z" fill="#008081" stroke="#107495"/>
</g>
<mask id="mask2_3_12036" style="mask-type:luminance" maskUnits="userSpaceOnUse" x="0" y="0" width="328" height="328">
<path d="M327.5 0.5V327.5H0.5V0.5H327.5Z" fill="white" stroke="white"/>
</mask>
<g mask="url(#mask2_3_12036)">
<path d="M60.4043 78.4706L105.756 36.5361" stroke="#107495" stroke-width="2"/>
<path d="M48.8574 95.4629L59.106 79.3135" stroke="#107495" stroke-width="2"/>
<path d="M60.791 78.9261L126.664 51.8428" stroke="#107495" stroke-width="2"/>
<path d="M125.16 51.9566L105.527 38.313" stroke="#107495" stroke-width="2"/>
<path d="M188.62 26.4907L106.529 37.6296" stroke="#107495" stroke-width="2"/>
<path d="M105.552 35.1455C106.974 35.1456 108.127 36.2987 108.127 37.7207C108.127 39.1426 106.974 40.2958 105.552 40.2959C104.13 40.2959 102.977 39.1427 102.977 37.7207C102.977 36.2986 104.13 35.1455 105.552 35.1455Z" fill="#008081" stroke="#107495"/>
<path d="M59.6533 76.6016C61.0753 76.6017 62.2285 77.7547 62.2285 79.1768C62.2284 80.5987 61.0752 81.7518 59.6533 81.752C58.2313 81.752 57.0782 80.5987 57.0781 79.1768C57.0781 77.7547 58.2312 76.6016 59.6533 76.6016Z" fill="#008081" stroke="#107495"/>
<g opacity="0.04995">
<path d="M73.6475 120.562C77.1498 120.562 80.0369 123.587 80.0371 127.378C80.0371 131.169 77.1499 134.194 73.6475 134.194C70.1452 134.194 67.2588 131.169 67.2588 127.378C67.259 123.587 70.1453 120.563 73.6475 120.562Z" fill="#008081" stroke="#107495" stroke-width="0.931449"/>
<path d="M73.6479 120.097C69.8621 120.097 66.793 123.357 66.793 127.378C66.793 131.4 69.8621 134.66 73.6479 134.66C77.4337 134.66 80.5028 131.4 80.5028 127.378C80.5028 123.357 77.4337 120.097 73.6479 120.097Z" stroke="#107495" stroke-width="0.232629"/>
</g>
<path d="M206.057 206.23L227.822 272.969" stroke="#107495" stroke-width="2"/>
<path d="M255.062 127.965L206.488 205.501" stroke="#107495" stroke-width="2"/>
<path d="M207.172 206.253L273.872 205.706" stroke="#107495" stroke-width="2"/>
<path d="M301.531 151.176L284.197 235.568" stroke="#107495" stroke-width="2"/>
<path d="M228.141 270.851L273.872 205.706" stroke="#107495" stroke-width="2"/>
<path d="M283.787 235.568L274.031 205.684" stroke="#107495" stroke-width="2"/>
<path d="M284.096 235.722L228.58 271.21" stroke="#107495" stroke-width="2"/>
<path d="M284.095 235.722L222.236 289.751" stroke="#107495" stroke-width="2"/>
<path d="M227.309 272.303L222.441 289.751" stroke="#107495" stroke-width="2"/>
<path d="M301.622 151.005L273.986 204.75" stroke="#107495" stroke-width="2"/>
<path d="M255.404 127.829L301.736 151.381" stroke="#107495" stroke-width="2"/>
<path d="M255.199 127.829L273.872 205.706" stroke="#107495" stroke-width="2"/>
<path d="M273.946 202.88C275.368 202.88 276.521 204.034 276.521 205.456C276.521 206.877 275.368 208.031 273.946 208.031C272.524 208.031 271.371 206.878 271.371 205.456C271.371 204.033 272.524 202.88 273.946 202.88Z" fill="#008081" stroke="#107495"/>
<path d="M284.358 232.879C285.78 232.879 286.934 234.032 286.934 235.454C286.933 236.876 285.78 238.029 284.358 238.029C282.936 238.029 281.783 236.876 281.783 235.454C281.783 234.032 282.936 232.879 284.358 232.879Z" fill="#008081" stroke="#107495"/>
<path d="M301.634 148.191C303.056 148.191 304.209 149.344 304.209 150.766C304.209 152.188 303.056 153.341 301.634 153.341C300.212 153.341 299.059 152.188 299.059 150.766C299.059 149.344 300.212 148.191 301.634 148.191Z" fill="#008081" stroke="#107495"/>
<path d="M254.762 125.53C256.17 125.344 257.462 126.336 257.647 127.744C257.833 129.151 256.842 130.444 255.434 130.629C254.026 130.815 252.734 129.824 252.548 128.416C252.362 127.008 253.354 125.716 254.762 125.53Z" fill="#008081" stroke="#107495"/>
<path d="M227.161 269.551C228.583 269.551 229.736 270.704 229.736 272.126C229.736 273.548 228.583 274.702 227.161 274.702C225.739 274.702 224.586 273.548 224.586 272.126C224.586 270.704 225.739 269.551 227.161 269.551Z" fill="#008081" stroke="#107495"/>
<path d="M222.54 286.703C223.962 286.703 225.115 287.856 225.115 289.278C225.115 290.7 223.962 291.853 222.54 291.854C221.118 291.854 219.965 290.7 219.965 289.278C219.965 287.856 221.118 286.703 222.54 286.703Z" fill="#008081" stroke="#107495"/>
<path d="M187.676 27.7661L207.708 61.0669" stroke="#107495" stroke-width="2"/>
<path d="M255.141 127.653L263.716 71.7334" stroke="#107495" stroke-width="2"/>
<path d="M208.744 60.8394L264.858 70.2007" stroke="#107495" stroke-width="2"/>
<path d="M300.845 148.962L263.086 68.1807" stroke="#107495" stroke-width="2"/>
<path d="M261.75 69.1641L188.439 27.436" stroke="#107495" stroke-width="2"/>
<path d="M186.98 26.9463L127.143 52.0933" stroke="#107495" stroke-width="2"/>
<path d="M265.57 72.8311L284.692 105.793" stroke="#107495" stroke-width="2"/>
<path d="M284.633 106.301L301.76 151.393" stroke="#107495" stroke-width="2"/>
<path d="M263.97 67.2842C265.392 67.2843 266.545 68.4374 266.545 69.8594C266.545 71.2813 265.392 72.4345 263.97 72.4346C262.548 72.4346 261.395 71.2814 261.395 69.8594C261.395 68.4373 262.548 67.2842 263.97 67.2842Z" fill="#008081" stroke="#107495"/>
<path d="M187.128 23.7788C188.55 23.7789 189.703 24.932 189.703 26.354C189.703 27.7759 188.55 28.9291 187.128 28.9292C185.706 28.9292 184.553 27.776 184.553 26.354C184.553 24.9319 185.706 23.7788 187.128 23.7788Z" fill="#008081" stroke="#107495"/>
<path d="M284.522 103.384C285.944 103.384 287.098 104.537 287.098 105.959C287.098 107.381 285.944 108.534 284.522 108.534C283.1 108.534 281.947 107.381 281.947 105.959C281.947 104.537 283.1 103.384 284.522 103.384Z" fill="#008081" stroke="#107495"/>
<path d="M48.493 95.52L27.7246 150.039" stroke="#107495" stroke-width="2"/>
<path d="M26.9648 151.189L37.6941 223.952" stroke="#107495" stroke-width="2"/>
<path d="M61.0891 217.209L39.4062 224.385" stroke="#107495" stroke-width="2"/>
<path d="M88.3089 281.58L38.0215 225.541" stroke="#107495" stroke-width="2"/>
<path d="M37.5596 221.969C38.9816 221.969 40.1348 223.122 40.1348 224.544C40.1347 225.966 38.9815 227.12 37.5596 227.12C36.1376 227.12 34.9845 225.966 34.9844 224.544C34.9844 223.122 36.1375 221.969 37.5596 221.969Z" fill="#008081" stroke="#107495"/>
<path d="M48.9033 92.8423C50.3253 92.8424 51.4785 93.9955 51.4785 95.4175C51.4784 96.8394 50.3252 97.9926 48.9033 97.9927C47.4813 97.9927 46.3282 96.8395 46.3281 95.4175C46.3281 93.9954 47.4812 92.8423 48.9033 92.8423Z" fill="#008081" stroke="#107495"/>
<path d="M206.935 61.7051L164.932 117.625" stroke="#107495" stroke-width="2"/>
<path d="M253.971 127.966L164.932 117.625" stroke="#107495" stroke-width="2"/>
<path d="M122.326 192.598L164.931 117.625" stroke="#107495" stroke-width="2"/>
<path d="M206.069 206.435L164.932 117.625" stroke="#107495" stroke-width="2"/>
<path d="M207.457 61.5801L254.949 127.829" stroke="#107495" stroke-width="2"/>
<path d="M207.561 60.6461L126.324 52.686" stroke="#107495" stroke-width="2"/>
<path d="M126.312 52.6401L164.932 117.625" stroke="#107495" stroke-width="2"/>
<path d="M165.501 115.346C166.923 115.346 168.076 116.499 168.076 117.921C168.076 119.343 166.923 120.496 165.501 120.497C164.079 120.497 162.926 119.343 162.926 117.921C162.926 116.499 164.079 115.346 165.501 115.346Z" fill="#008081" stroke="#107495"/>
<path d="M207.526 58.356C208.948 58.3561 210.102 59.5091 210.102 60.9312C210.101 62.3531 208.948 63.5062 207.526 63.5063C206.104 63.5063 204.951 62.3531 204.951 60.9312C204.951 59.5091 206.104 58.356 207.526 58.356Z" fill="#008081" stroke="#107495"/>
<g opacity="0.262584">
<path d="M88.8965 275.07C92.022 275.07 94.6209 277.86 94.6211 281.385C94.6211 284.911 92.0221 287.702 88.8965 287.702C85.7711 287.701 83.1729 284.911 83.1729 281.385C83.173 277.86 85.7712 275.07 88.8965 275.07Z" fill="#008081" stroke="#107495" stroke-width="0.848766"/>
<path d="M88.8969 274.645C85.5011 274.645 82.748 277.663 82.748 281.386C82.748 285.108 85.5011 288.126 88.8969 288.126C92.2927 288.126 95.0457 285.108 95.0457 281.386C95.0457 277.663 92.2927 274.645 88.8969 274.645Z" stroke="#107495" stroke-width="1.92364"/>
</g>
<path d="M59.8809 79.2446L74.2643 126.793" stroke="#107495" stroke-width="2"/>
<path d="M28.0605 149.309L74.0475 127.101" stroke="#107495" stroke-width="2"/>
<path d="M60.1589 217.718L27.041 150.584" stroke="#107495" stroke-width="2"/>
<path d="M26.8359 149.855L58.9515 79.0039" stroke="#107495" stroke-width="2"/>
<path d="M61.043 217.164L73.9573 128.285" stroke="#107495" stroke-width="2"/>
<path d="M122.098 192.643L74.9141 127.875" stroke="#107495" stroke-width="2"/>
<path d="M167.187 117.511L75.8711 126.918" stroke="#107495" stroke-width="2"/>
<path d="M126.232 52.1616L75.1875 125.734" stroke="#107495" stroke-width="2"/>
<path d="M73.8896 124.685C75.3116 124.685 76.4648 125.838 76.4648 127.26C76.4647 128.682 75.3116 129.835 73.8896 129.835C72.4676 129.835 71.3146 128.682 71.3145 127.26C71.3145 125.838 72.4676 124.685 73.8896 124.685Z" fill="#008081" stroke="#107495"/>
<path d="M26.7334 147.797C28.1554 147.797 29.3086 148.95 29.3086 150.372C29.3085 151.794 28.1553 152.947 26.7334 152.947C25.3114 152.947 24.1583 151.794 24.1582 150.372C24.1582 148.95 25.3113 147.797 26.7334 147.797Z" fill="#008081" stroke="#107495"/>
<path d="M126.3 49.623C127.722 49.6232 128.875 50.7762 128.875 52.1982C128.875 53.6202 127.722 54.7733 126.3 54.7734C124.878 54.7734 123.725 53.6202 123.725 52.1982C123.725 50.7762 124.878 49.623 126.3 49.623Z" fill="#008081" stroke="#107495"/>
<path d="M60.2979 214.773C61.7198 214.774 62.873 215.927 62.873 217.349C62.8729 218.771 61.7198 219.924 60.2979 219.924C58.8758 219.924 57.7228 218.771 57.7227 217.349C57.7227 215.927 58.8758 214.773 60.2979 214.773Z" fill="#008081" stroke="#107495"/>
<path d="M60.6777 217.665L88.5589 281.465" stroke="#107495" stroke-width="2"/>
<path d="M122.975 192.837L205.59 206.207" stroke="#107495" stroke-width="2"/>
<path d="M88.5059 281.172L163.941 302.725" stroke="#107495" stroke-width="2"/>
<path d="M164.058 302.74L140.504 266.523" stroke="#107495" stroke-width="2"/>
<path d="M88.5371 280.896L140.401 266.318" stroke="#107495" stroke-width="2"/>
<path d="M60.6562 217.665L140.401 266.318" stroke="#107495" stroke-width="2"/>
<path d="M60.6914 217.568L121.853 192.343" stroke="#107495" stroke-width="2"/>
<path d="M227.732 272.035L141.107 264.951" stroke="#107495" stroke-width="2"/>
<path d="M222.381 289.05L164.16 302.808" stroke="#107495" stroke-width="2"/>
<path d="M205.407 207.323L140.469 265.771" stroke="#107495" stroke-width="2"/>
<path d="M122.133 192.313L139.718 265.429" stroke="#107495" stroke-width="2"/>
<path d="M140.015 263.538C141.437 263.538 142.59 264.691 142.59 266.113C142.59 267.535 141.437 268.688 140.015 268.688C138.593 268.688 137.44 267.535 137.439 266.113C137.439 264.691 138.593 263.538 140.015 263.538Z" fill="#008081" stroke="#107495"/>
<path d="M163.181 299.39C164.603 299.39 165.756 300.543 165.756 301.965C165.756 303.387 164.603 304.54 163.181 304.54C161.759 304.54 160.606 303.387 160.605 301.965C160.605 300.543 161.759 299.39 163.181 299.39Z" fill="#008081" stroke="#107495"/>
<path d="M88.6963 278.665C90.1183 278.665 91.2715 279.818 91.2715 281.24C91.2714 282.662 90.1182 283.815 88.6963 283.815C87.2743 283.815 86.1212 282.662 86.1211 281.24C86.1211 279.818 87.2742 278.665 88.6963 278.665Z" fill="#008081" stroke="#107495"/>
<path d="M121.927 189.943C123.349 189.943 124.502 191.096 124.502 192.518C124.502 193.94 123.349 195.093 121.927 195.093C120.505 195.093 119.352 193.94 119.352 192.518C119.352 191.096 120.505 189.943 121.927 189.943Z" fill="#008081" stroke="#107495"/>
<path d="M205.522 204.065C206.944 204.065 208.098 205.218 208.098 206.64C208.098 208.062 206.944 209.215 205.522 209.215C204.1 209.215 202.947 208.062 202.947 206.64C202.947 205.218 204.1 204.065 205.522 204.065Z" fill="#008081" stroke="#107495"/>
<path d="M227.384 272.297L163.639 301.876" stroke="#107495" stroke-width="2"/>
</g>
</svg>
