<svg width="327" height="296" viewBox="0 0 327 296" fill="none" xmlns="http://www.w3.org/2000/svg">
<path d="M280.447 148.391L299.972 158.502C303.022 160.336 306.982 159.35 308.816 156.3C310.65 153.25 309.664 149.29 306.614 147.456L287.318 135.855L280.447 148.391Z" fill="url(#paint0_linear_3_14223)"/>
<path d="M280.447 148.391L299.972 158.502C303.022 160.336 306.982 159.35 308.816 156.3C310.65 153.25 309.664 149.29 306.614 147.456L287.318 135.855L280.447 148.391Z" stroke="white" stroke-width="1.987" stroke-miterlimit="10"/>
<path d="M255.484 153.352L165.343 103.782C152.631 96.7919 147.993 80.82 154.983 68.1081C161.974 55.3962 177.946 50.7582 190.657 57.7486L280.799 107.318C293.511 114.309 298.149 130.281 291.158 142.993C284.168 155.704 268.196 160.342 255.484 153.352Z" fill="url(#paint1_linear_3_14223)"/>
<path d="M280.503 136.216C281.522 142.012 277.649 147.536 271.853 148.555C266.058 149.574 260.534 145.702 259.515 139.906C258.496 134.11 262.368 128.586 268.164 127.567C273.96 126.548 279.484 130.421 280.503 136.216Z" stroke="white" stroke-width="0.578" stroke-miterlimit="10"/>
<path d="M291.736 120.598C292.809 123.333 293.026 126.035 292.491 128.016C292.124 129.352 291.401 130.354 290.349 130.767C288.999 131.296 287.387 130.754 285.895 129.446C284.53 128.263 283.282 126.456 282.418 124.253C281.792 122.657 281.457 121.053 281.398 119.604C281.283 116.914 282.139 114.756 283.811 114.1C285.228 113.544 286.933 114.172 288.479 115.617C288.488 115.614 288.488 115.614 288.488 115.614C289.765 116.796 290.925 118.532 291.736 120.598Z" stroke="white" stroke-width="0.574" stroke-miterlimit="10"/>
<path d="M276.32 138.041L279.216 154.118C279.562 156.04 280.76 157.701 282.476 158.636L296.822 166.447C299.948 168.149 301.103 172.063 299.4 175.189C297.698 178.315 293.784 179.469 290.659 177.766L270.886 166.999C269.171 166.065 267.972 164.403 267.626 162.482L263.635 140.326C263.004 136.823 265.332 133.472 268.835 132.841C272.338 132.211 275.689 134.538 276.32 138.041Z" fill="url(#paint2_linear_3_14223)"/>
<path d="M276.32 138.041L279.216 154.118C279.562 156.04 280.76 157.701 282.476 158.636L296.822 166.447C299.948 168.149 301.103 172.063 299.4 175.189C297.698 178.315 293.784 179.469 290.659 177.766L270.886 166.999C269.171 166.065 267.972 164.403 267.626 162.482L263.635 140.326C263.004 136.823 265.332 133.472 268.835 132.841C272.338 132.211 275.689 134.538 276.32 138.041Z" stroke="white" stroke-width="1.987" stroke-miterlimit="10"/>
<path d="M325.628 133.598C325.72 135.246 325.192 136.927 324.003 138.257C321.623 140.897 317.552 141.124 314.893 138.764L302.721 127.873C301.267 126.554 299.291 125.984 297.365 126.305L290.038 127.506C289.432 127.608 288.735 127.491 288.267 127.03C286.73 125.376 285.698 123.126 285.562 120.67C285.47 119.028 285.723 117.44 286.323 116.005C286.59 115.37 287.197 114.921 287.845 114.814L301.364 112.591C302.232 112.445 303.108 112.474 303.936 112.681C303.955 112.68 303.955 112.68 303.955 112.68C304.98 112.934 305.922 113.426 306.7 114.141L323.496 129.148C324.826 130.338 325.537 131.95 325.628 133.598Z" fill="url(#paint3_linear_3_14223)"/>
<path d="M325.628 133.598C325.72 135.246 325.192 136.927 324.003 138.257C321.623 140.897 317.552 141.124 314.893 138.764L302.721 127.873C301.267 126.554 299.291 125.984 297.365 126.305L290.038 127.506C289.432 127.608 288.735 127.491 288.267 127.03C286.73 125.376 285.698 123.126 285.562 120.67C285.47 119.028 285.723 117.44 286.323 116.005C286.59 115.37 287.197 114.921 287.845 114.814L301.364 112.591C302.232 112.445 303.108 112.474 303.936 112.681C303.955 112.68 303.955 112.68 303.955 112.68C304.98 112.934 305.922 113.426 306.7 114.141L323.496 129.148C324.826 130.338 325.537 131.95 325.628 133.598Z" stroke="white" stroke-width="1.987" stroke-miterlimit="10"/>
<path d="M109.708 277.915L30.3048 128.643C23.4918 115.835 28.352 99.9292 41.16 93.1162C53.9679 86.3032 69.8734 91.1633 76.6864 103.971L156.089 253.243C162.902 266.051 158.042 281.957 145.234 288.77C132.426 295.583 116.521 290.723 109.708 277.915Z" fill="url(#paint4_linear_3_14223)"/>
<path d="M210.141 291.688H51.1221C39.9347 291.688 30.8652 282.618 30.8652 271.431C30.8652 260.243 39.9347 251.174 51.1221 251.174H210.141C221.328 251.174 230.398 260.243 230.398 271.431C230.398 282.618 221.328 291.688 210.141 291.688Z" fill="url(#paint5_linear_3_14223)"/>
<path d="M18.4629 291.688H240.877" stroke="white" stroke-width="4.085" stroke-miterlimit="10" stroke-linecap="round"/>
<path d="M47.2106 90.6705L173.912 56.5113C187.566 52.8301 201.619 60.9151 205.3 74.5689L205.645 75.8465C209.326 89.5003 201.241 103.554 187.587 107.235L60.886 141.394C47.2323 145.076 33.1786 136.991 29.4975 123.337L29.153 122.059C25.4719 108.405 33.5569 94.3517 47.2106 90.6705Z" fill="url(#paint6_linear_3_14223)"/>
<path d="M171.633 96.8301C164.405 92.6723 161.908 83.4106 166.066 76.1834C170.223 68.9563 179.485 66.4598 186.712 70.6175C193.94 74.7752 196.437 84.037 192.279 91.2641C188.122 98.4913 178.86 100.988 171.633 96.8301ZM185.043 73.5187C179.416 70.2811 172.205 72.2259 168.967 77.8529C165.73 83.4799 167.674 90.6912 173.302 93.9288C178.929 97.1664 186.14 95.2217 189.378 89.5947C192.615 83.9677 190.671 76.7563 185.043 73.5187Z" fill="white"/>
<path d="M46.5955 129.988C39.3683 125.83 36.8707 116.568 41.0284 109.341C45.1861 102.114 54.4482 99.6175 61.6753 103.775C68.9025 107.933 71.4001 117.195 67.2424 124.422C63.0847 131.649 53.8226 134.145 46.5955 129.988ZM60.0063 106.676C54.3786 103.439 47.1675 105.384 43.9303 111.011C40.6932 116.638 42.6368 123.849 48.2645 127.087C53.8922 130.324 61.1033 128.379 64.3405 122.752C67.5776 117.125 65.634 109.914 60.0063 106.676Z" fill="white"/>
<defs>
<linearGradient id="paint0_linear_3_14223" x1="1686.39" y1="2208.78" x2="1679.03" y2="2221.02" gradientUnits="userSpaceOnUse">
<stop stop-color="#6E6E6E"/>
<stop offset="0.5" stop-color="#8B6FE6"/>
<stop offset="1" stop-color="#DED4FF"/>
</linearGradient>
<linearGradient id="paint1_linear_3_14223" x1="283.67" y1="140.647" x2="155.214" y2="66.0633" gradientUnits="userSpaceOnUse">
<stop stop-color="#C3C3C3"/>
<stop offset="0.87" stop-color="#F5F5F5"/>
<stop offset="1" stop-color="white"/>
</linearGradient>
<linearGradient id="paint2_linear_3_14223" x1="-1685.67" y1="1729.08" x2="-1671.12" y2="1702.34" gradientUnits="userSpaceOnUse">
<stop stop-color="#C0C0C1"/>
<stop offset="0.5" stop-color="#8B6FE6"/>
<stop offset="1" stop-color="#C3C3C3"/>
</linearGradient>
<linearGradient id="paint3_linear_3_14223" x1="285.685" y1="127.375" x2="324.853" y2="125.196" gradientUnits="userSpaceOnUse">
<stop stop-color="#6E6E6E"/>
<stop offset="0.5" stop-color="#C3C3C3"/>
<stop offset="1" stop-color="#F5F5F5"/>
</linearGradient>
<linearGradient id="paint4_linear_3_14223" x1="113.82" y1="179.208" x2="69.5955" y2="203.011" gradientUnits="userSpaceOnUse">
<stop stop-color="#C3C3C3"/>
<stop offset="0.87" stop-color="#F5F5F5"/>
<stop offset="1" stop-color="white"/>
</linearGradient>
<linearGradient id="paint5_linear_3_14223" x1="130.064" y1="251.661" x2="130.064" y2="291.484" gradientUnits="userSpaceOnUse">
<stop stop-color="#C3C3C3"/>
<stop offset="0.73" stop-color="#F5F5F5"/>
<stop offset="0.84" stop-color="#F5F5F5"/>
</linearGradient>
<linearGradient id="paint6_linear_3_14223" x1="123.379" y1="122.114" x2="110.687" y2="73.8791" gradientUnits="userSpaceOnUse">
<stop stop-color="#C3C3C3"/>
<stop offset="0.87" stop-color="#F5F5F5"/>
<stop offset="1" stop-color="white"/>
</linearGradient>
</defs>
</svg>
