<svg width="241" height="316" viewBox="0 0 241 316" fill="none" xmlns="http://www.w3.org/2000/svg">
<path d="M100.901 163.715V171.874H92.7422V163.715H100.901Z" fill="#525353"/>
<path d="M124.43 153.332V161.491H116.271V153.332H124.43Z" fill="#525353"/>
<path d="M147.467 163.691V171.85H139.309V163.691H147.467Z" fill="#525353"/>
<path d="M102.581 152.625V157.463H91.0625V152.625H102.581Z" fill="#525353"/>
<path d="M149.147 152.635V157.473H137.629V152.635H149.147Z" fill="#525353"/>
<path d="M126.11 152.101V156.938H114.592V152.101H126.11Z" fill="#525353"/>
<path d="M143.416 150.281V177.798H162.934V199.148" stroke="#525353" stroke-width="5.2" stroke-linejoin="round"/>
<path d="M120.381 149.178V205.763" stroke="#525353" stroke-width="5.2" stroke-miterlimit="10"/>
<path d="M96.8652 150.281V177.798H77.3477V199.148" stroke="#525353" stroke-width="5.2" stroke-linejoin="round"/>
<path d="M235.562 111.082C235.562 113.046 235.418 114.971 235.129 116.85C232.354 135.153 216.57 149.179 197.509 149.179H48.4758C29.491 149.179 13.3646 136.941 7.53356 119.917C6.02085 115.51 5.19922 110.777 5.19922 105.854C5.19922 81.935 24.5718 62.5366 48.4758 62.5366C52.1856 62.5366 55.7898 63.0011 59.2337 63.8832C64.4725 30.6275 93.242 5.2002 127.942 5.2002C165.745 5.2002 196.506 35.3835 197.487 72.9931H197.509C218.524 72.9931 235.562 90.0467 235.562 111.082Z" stroke="#107495" stroke-width="10.4" stroke-linecap="round" stroke-linejoin="round"/>
<path d="M128.772 306.738C128.772 311.412 124.982 315.2 120.308 315.2C115.633 315.2 111.844 311.412 111.844 306.738C111.844 302.063 115.633 298.274 120.308 298.274C124.982 298.274 128.772 302.063 128.772 306.738Z" fill="#525353"/>
<path d="M60.706 306.738C60.706 309.509 58.4581 311.757 55.686 311.757C52.915 311.757 50.668 309.509 50.668 306.738C50.668 303.965 52.915 301.719 55.686 301.719C58.4581 301.719 60.706 303.965 60.706 306.738Z" stroke="#525353" stroke-width="3.9" stroke-miterlimit="10"/>
<path d="M189.243 306.738C189.243 309.509 186.994 311.757 184.223 311.757C181.452 311.757 179.205 309.509 179.205 306.738C179.205 303.965 181.452 301.719 184.223 301.719C186.994 301.719 189.243 303.965 189.243 306.738Z" stroke="#525353" stroke-width="3.9" stroke-miterlimit="10"/>
<path d="M120.309 305.619V199.147" stroke="#525353" stroke-width="5.2" stroke-miterlimit="10"/>
<path d="M61.4102 306.738H179.204" stroke="#525353" stroke-width="5.2" stroke-miterlimit="10"/>
<path d="M190.494 290.957H49.3066V263.209H190.494V290.957Z" fill="#107495"/>
<path d="M172.447 271.075C172.447 272.595 171.215 273.827 169.694 273.827C168.175 273.827 166.941 272.595 166.941 271.075C166.941 269.554 168.175 268.323 169.694 268.323C171.215 268.323 172.447 269.554 172.447 271.075Z" fill="white"/>
<path d="M182.676 271.075C182.676 272.595 181.443 273.827 179.923 273.827C178.402 273.827 177.17 272.595 177.17 271.075C177.17 269.554 178.402 268.323 179.923 268.323C181.443 268.323 182.676 269.554 182.676 271.075Z" fill="white"/>
<path d="M67.8292 278.42H56.9004V275.748H67.8292V278.42Z" fill="white"/>
<path d="M67.8292 284.429H56.9004V281.756H67.8292V284.429Z" fill="white"/>
<path d="M67.8292 272.411H56.9004V269.739H67.8292V272.411Z" fill="white"/>
<path d="M190.494 257.634H49.3066V229.885H190.494V257.634Z" fill="#107495"/>
<path d="M172.447 237.751C172.447 239.272 171.215 240.503 169.694 240.503C168.175 240.503 166.941 239.272 166.941 237.751C166.941 236.231 168.175 234.998 169.694 234.998C171.215 234.998 172.447 236.231 172.447 237.751Z" fill="white"/>
<path d="M182.676 237.751C182.676 239.272 181.443 240.503 179.923 240.503C178.402 240.503 177.17 239.272 177.17 237.751C177.17 236.231 178.402 234.998 179.923 234.998C181.443 234.998 182.676 236.231 182.676 237.751Z" fill="white"/>
<path d="M67.8292 245.097H56.9004V242.425H67.8292V245.097Z" fill="white"/>
<path d="M67.8292 251.106H56.9004V248.434H67.8292V251.106Z" fill="white"/>
<path d="M67.8292 239.087H56.9004V236.415H67.8292V239.087Z" fill="white"/>
<path d="M190.494 224.31H49.3066V196.562H190.494V224.31Z" fill="#107495"/>
<path d="M172.447 204.427C172.447 205.947 171.215 207.18 169.694 207.18C168.175 207.18 166.941 205.947 166.941 204.427C166.941 202.906 168.175 201.675 169.694 201.675C171.215 201.675 172.447 202.906 172.447 204.427Z" fill="white"/>
<path d="M182.676 204.427C182.676 205.947 181.443 207.18 179.923 207.18C178.402 207.18 177.17 205.947 177.17 204.427C177.17 202.906 178.402 201.675 179.923 201.675C181.443 201.675 182.676 202.906 182.676 204.427Z" fill="white"/>
<path d="M67.8292 211.772H56.9004V209.1H67.8292V211.772Z" fill="white"/>
<path d="M67.8292 217.783H56.9004V215.111H67.8292V217.783Z" fill="white"/>
<path d="M67.8292 205.764H56.9004V203.092H67.8292V205.764Z" fill="white"/>
<path d="M137.941 73.085V70.1683C137.941 60.4842 130.065 52.6056 120.383 52.6056C110.699 52.6056 102.82 60.4842 102.82 70.1683V73.085H99.6719V70.1683C99.6719 58.7477 108.964 49.457 120.383 49.457C131.804 49.457 141.097 58.7477 141.097 70.1683V73.085H137.941Z" fill="#107495"/>
<path d="M146.311 120.799H94.4497C93.1 120.799 92.0059 119.706 92.0059 118.358V76.4759C92.0059 75.1262 93.1 74.0308 94.4497 74.0308H146.311C147.662 74.0308 148.756 75.1262 148.756 76.4759V118.358C148.756 119.706 147.662 120.799 146.311 120.799Z" stroke="#107495" stroke-width="5.382" stroke-miterlimit="10"/>
<path d="M126.692 109.652L123.693 96.337C125.352 95.2535 126.451 93.3819 126.451 91.2519C126.451 87.8968 123.733 85.1787 120.379 85.1787C117.026 85.1787 114.306 87.8968 114.306 91.2519C114.306 93.3819 115.406 95.2535 117.065 96.337L114.066 109.652H126.692Z" stroke="#107495" stroke-width="3.588" stroke-linejoin="round"/>
</svg>
